<?xml version="1.0" standalone="no"?>
<!DOCTYPE svg PUBLIC "-//W3C//DTD SVG 20010904//EN"
 "http://www.w3.org/TR/2001/REC-SVG-20010904/DTD/svg10.dtd">
<svg version="1.0" xmlns="http://www.w3.org/2000/svg"
 width="746.000000pt" height="768.000000pt" viewBox="0 0 746.000000 768.000000"
 preserveAspectRatio="xMidYMid meet">
<metadata>
Created by potrace 1.16, written by Peter Selinger 2001-2019
</metadata>
<g transform="translate(0.000000,768.000000) scale(0.100000,-0.100000)"
fill="#000000" stroke="none">
<path d="M0 6087 c0 -1574 0 -1594 20 -1617 21 -24 18 -40 -6 -40 -13 0 -15
-14 -10 -87 3 -49 5 -96 4 -105 -2 -47 -2 -527 0 -558 1 -19 -1 -68 -4 -107
-5 -61 -3 -73 10 -73 24 0 31 -22 10 -37 -19 -14 -19 -56 -22 -1738 l-2 -1725
1813 0 c1298 0 1816 3 1824 11 8 8 17 8 31 0 15 -8 562 -11 1906 -11 l1886 0
0 1674 c0 1475 -2 1676 -15 1690 -19 19 -19 36 -1 36 13 0 15 73 15 500 0 419
-2 500 -14 500 -24 0 -29 22 -9 37 19 14 19 54 22 1628 l2 1615 -1630 0
c-1593 0 -1631 0 -1647 -19 -17 -21 -45 -18 -36 4 4 12 -61 13 -399 11 -221
-2 -410 -4 -418 -4 -8 -1 -43 1 -77 4 -52 5 -63 3 -63 -10 0 -25 -21 -29 -41
-7 l-20 21 -1564 0 -1565 0 0 -1593z m3070 1564 c0 -29 -14 -33 -33 -10 -22
26 -22 29 8 29 18 0 25 -5 25 -19z m1260 9 c0 -5 -4 -10 -10 -10 -5 0 -10 -7
-10 -15 0 -8 -9 -15 -20 -15 -15 0 -20 7 -20 25 0 21 5 25 30 25 17 0 30 -4
30 -10z m-1380 -35 c0 -28 -23 -34 -46 -11 -22 23 -17 36 16 36 25 0 30 -4 30
-25z m1470 10 c0 -8 -5 -15 -11 -15 -5 0 -7 -4 -4 -10 6 -10 -27 -14 -37 -4
-3 3 -4 14 -1 25 6 23 53 27 53 4z m-1570 -30 c0 -28 -14 -32 -36 -11 -21 22
-17 36 11 36 20 0 25 -5 25 -25z m1680 14 c0 -14 -25 -39 -39 -39 -6 0 -11 11
-11 25 0 20 5 25 25 25 14 0 25 -5 25 -11z m-1760 -38 c0 -29 -14 -33 -39 -12
-28 25 -27 31 9 31 23 0 30 -5 30 -19z m1910 -6 c0 -8 -34 -45 -42 -45 -5 0
-8 11 -8 25 0 20 5 25 25 25 14 0 25 -2 25 -5z m-2070 -40 c0 -16 -6 -25 -15
-25 -8 0 -15 7 -15 15 0 8 -4 15 -10 15 -5 0 -10 5 -10 10 0 6 11 10 25 10 20
0 25 -5 25 -25z m80 15 c0 -5 -4 -10 -10 -10 -5 0 -10 5 -10 10 0 6 5 10 10
10 6 0 10 -4 10 -10z m2060 5 c0 -8 -34 -45 -42 -45 -5 0 -8 11 -8 25 0 20 5
25 25 25 14 0 25 -2 25 -5z m25 -45 c-3 -5 -12 -10 -18 -10 -7 0 -6 4 3 10 19
12 23 12 15 0z m155 -30 c0 -5 -7 -10 -16 -10 -8 0 -13 -4 -10 -9 7 -10 -19
-23 -28 -14 -3 4 -6 15 -6 25 0 13 8 18 30 18 17 0 30 -4 30 -10z m-2560 -29
c0 -26 -18 -37 -26 -17 -3 9 -12 16 -20 16 -8 0 -14 5 -14 10 0 6 14 10 30 10
23 0 30 -5 30 -19z m50 15 c0 -3 -4 -8 -10 -11 -5 -3 -10 -1 -10 4 0 6 5 11
10 11 6 0 10 -2 10 -4z m2530 -26 c0 -5 -4 -10 -10 -10 -5 0 -10 5 -10 10 0 6
5 10 10 10 6 0 10 -4 10 -10z m98 -15 c15 -32 15 -35 2 -35 -5 0 -10 9 -10 20
0 11 -7 20 -15 20 -8 0 -15 -4 -15 -10 0 -5 -4 -10 -10 -10 -5 0 -10 9 -10 20
0 31 44 27 58 -5z m-2788 -20 c0 -16 -6 -25 -15 -25 -8 0 -15 5 -15 10 0 6 -4
10 -10 10 -5 0 -10 -9 -10 -20 0 -14 -7 -20 -24 -20 -13 0 -26 -6 -28 -12 -3
-9 -9 -8 -21 4 -25 25 -21 31 16 25 17 -3 26 -3 20 0 -23 9 -14 33 12 33 14 0
25 5 25 10 0 6 11 10 25 10 20 0 25 -5 25 -25z m2885 -55 c3 -5 1 -10 -4 -10
-6 0 -11 5 -11 10 0 6 2 10 4 10 3 0 8 -4 11 -10z m-3075 -30 c0 -22 -15 -27
-23 -7 -3 6 -6 2 -6 -10 -1 -29 -18 -38 -36 -19 -21 20 -19 36 5 36 11 0 20 5
20 10 0 6 9 10 20 10 13 0 20 -7 20 -20z m40 10 c0 -5 -5 -10 -11 -10 -5 0 -7
5 -4 10 3 6 8 10 11 10 2 0 4 -4 4 -10z m3190 -20 c0 -5 9 -10 20 -10 11 0 20
-7 20 -15 0 -9 9 -15 25 -15 14 0 25 -4 25 -10 0 -5 -8 -10 -17 -10 -15 0 -16
-2 -3 -10 12 -8 11 -10 -7 -10 -12 0 -25 5 -28 10 -3 6 -15 10 -26 10 -13 0
-19 7 -20 23 0 12 -3 16 -6 10 -9 -23 -33 -14 -33 12 0 20 5 25 25 25 14 0 25
-4 25 -10z m-3396 -76 c3 -9 4 -20 0 -25 -9 -15 -24 -10 -24 9 -1 13 -3 12
-14 -6 -13 -24 -13 -24 -13 7 0 25 4 31 23 31 12 0 25 -7 28 -16z m3596 -32
c0 -8 -37 -42 -45 -42 -3 0 -5 11 -5 25 0 20 5 25 25 25 14 0 25 -3 25 -8z
m-3675 -22 c3 -5 1 -10 -4 -10 -6 0 -11 5 -11 10 0 6 2 10 4 10 3 0 8 -4 11
-10z m-95 -59 c0 -29 -14 -33 -33 -10 -22 26 -22 29 8 29 18 0 25 -5 25 -19z
m-67 -34 c3 -8 2 -19 -3 -26 -6 -10 -12 -10 -29 0 -11 8 -21 19 -21 26 0 17
46 17 53 0z m1733 -1 c22 -23 17 -36 -15 -36 -20 0 -30 6 -34 19 -8 33 22 43
49 17z m556 8 c3 -3 4 -14 1 -25 -7 -24 -63 -28 -63 -4 0 8 7 15 16 15 8 0 12
5 9 10 -6 10 27 14 37 4z m1658 -4 c0 -5 -5 -10 -11 -10 -5 0 -7 5 -4 10 3 6
8 10 11 10 2 0 4 -4 4 -10z m-2390 -27 c28 -24 25 -33 -9 -33 -20 0 -30 6 -34
19 -9 35 11 41 43 14z m913 -14 c-6 -22 -6 -22 -21 8 -10 18 -9 20 7 16 13 -3
17 -11 14 -24z m1537 11 c0 -11 -4 -20 -9 -20 -5 0 -7 9 -4 20 3 11 7 20 9 20
2 0 4 -9 4 -20z m-2590 -15 c0 -8 5 -15 10 -15 6 0 10 -4 10 -10 0 -5 -13 -10
-30 -10 -22 0 -30 5 -30 18 0 10 3 22 7 25 12 13 33 7 33 -8z m1180 -10 c0
-21 -5 -25 -30 -25 -35 0 -36 3 -13 30 24 27 43 25 43 -5z m-2666 7 c2 -4 1
-14 -4 -22 -7 -11 -11 -11 -24 3 -9 8 -16 18 -16 21 0 9 38 7 44 -2z m2746
-27 c0 -20 -5 -25 -25 -25 -30 0 -30 3 -8 30 23 27 33 25 33 -5z m-1364 1 c20
-20 18 -26 -11 -26 -18 0 -25 5 -25 20 0 23 16 26 36 6z m2764 -6 c0 -11 -4
-20 -10 -20 -5 0 -10 9 -10 20 0 11 5 20 10 20 6 0 10 -9 10 -20z m-2832 -9
c29 -25 28 -31 -8 -31 -22 0 -30 5 -30 18 0 16 8 32 15 32 1 0 12 -8 23 -19z
m1522 -11 c0 -15 -7 -20 -25 -20 -28 0 -30 5 -12 25 18 21 37 18 37 -5z
m-2930 -20 c0 -11 -4 -20 -10 -20 -5 0 -10 9 -10 20 0 11 5 20 10 20 6 0 10
-9 10 -20z m1326 6 c21 -22 17 -36 -11 -36 -20 0 -25 5 -25 25 0 28 14 32 36
11z m1802 -54 c3 -19 -1 -22 -27 -22 -17 0 -31 5 -31 10 0 6 7 10 15 10 8 0
15 7 15 16 0 23 24 11 28 -14z m-1988 -37 c0 -3 -11 -5 -25 -5 -18 0 -25 5
-25 18 0 29 12 34 32 12 10 -10 18 -22 18 -25z m-1220 17 c0 -25 -7 -31 -31
-25 -16 5 -18 8 -7 14 10 7 10 9 1 9 -7 0 -13 5 -13 10 0 6 11 10 25 10 18 0
25 -5 25 -18z m3270 14 c0 -18 -15 -36 -31 -36 -22 0 -24 6 -6 25 11 13 37 21
37 11z m-2235 -66 c-3 -5 -12 -10 -18 -10 -7 0 -6 4 3 10 19 12 23 12 15 0z
m-55 -30 c0 -5 -2 -10 -4 -10 -3 0 -8 5 -11 10 -3 6 -1 10 4 10 6 0 11 -4 11
-10z m-1120 -30 c0 -24 -6 -25 -26 -6 -19 20 -18 26 6 26 13 0 20 -7 20 -20z
m1086 6 c19 -20 18 -26 -6 -26 -11 0 -20 -4 -20 -10 0 -16 -37 -11 -44 6 -9
22 -8 24 10 24 8 0 12 -4 9 -10 -3 -5 1 -10 11 -10 11 0 15 6 11 20 -6 23 8
26 29 6z m-96 -36 c0 -5 -5 -10 -11 -10 -5 0 -7 5 -4 10 3 6 8 10 11 10 2 0 4
-4 4 -10z m2755 -10 c3 -5 1 -10 -4 -10 -6 0 -11 5 -11 10 0 6 2 10 4 10 3 0
8 -4 11 -10z m35 -25 c0 -20 -5 -25 -25 -25 -16 0 -25 6 -25 15 0 8 7 15 15
15 8 0 15 5 15 10 0 6 5 10 10 10 6 0 10 -11 10 -25z m1070 0 c0 -18 -5 -25
-20 -25 -11 0 -20 7 -20 16 0 8 -4 12 -10 9 -5 -3 -10 1 -10 9 0 11 9 16 30
16 25 0 30 -4 30 -25z m130 17 c0 -13 -36 -43 -42 -36 -12 11 5 44 23 44 11 0
19 -4 19 -8z m-207 -31 c6 -25 0 -31 -32 -31 -21 0 -23 2 -11 10 10 6 11 10 3
10 -7 0 -13 7 -13 15 0 23 47 19 53 -4z m257 -6 c0 -14 -4 -25 -10 -25 -5 0
-10 11 -10 25 0 14 5 25 10 25 6 0 10 -11 10 -25z m60 -27 c0 -19 -2 -20 -10
-8 -8 13 -10 12 -10 -3 0 -26 -24 -16 -28 11 -3 18 2 22 22 22 20 0 26 -5 26
-22z m-4244 -12 c20 -20 18 -26 -11 -26 -18 0 -25 5 -25 20 0 23 16 26 36 6z
m3854 -4 c0 -25 -37 -63 -55 -56 -20 8 -20 54 0 54 8 0 15 5 15 10 0 6 9 10
20 10 13 0 20 -7 20 -18z m-460 -23 c0 -10 -4 -19 -10 -19 -5 0 -10 -7 -10
-15 0 -8 -7 -15 -15 -15 -8 0 -15 -4 -15 -10 0 -17 -38 -11 -45 7 -4 13 4 27
30 50 38 33 65 34 65 2z m-4406 5 c8 -22 -56 -86 -78 -78 -23 9 -20 41 7 69
25 27 62 32 71 9z m2346 -24 c0 -28 -27 -36 -50 -15 -29 26 -25 35 15 35 29 0
35 -4 35 -20z m460 12 c0 -14 -42 -43 -58 -40 -9 2 -18 13 -20 26 -3 20 1 22
37 22 23 0 41 -3 41 -8z m1341 -9 c10 -11 10 -14 2 -9 -8 4 -13 1 -13 -8 0 -9
-9 -16 -20 -16 -11 0 -20 7 -20 15 0 8 6 15 13 15 8 0 7 4 -3 10 -12 8 -11 10
6 10 12 0 28 -8 35 -17z m-3241 -13 c-8 -5 -19 -10 -25 -10 -5 0 -3 5 5 10 8
5 20 10 25 10 6 0 3 -5 -5 -10z m1240 -15 c0 -22 -4 -25 -37 -25 -28 0 -34 3
-23 10 10 6 11 10 3 10 -7 0 -13 7 -13 15 0 10 11 15 35 15 31 0 35 -3 35 -25z
m810 10 c0 -8 -6 -15 -12 -15 -9 0 -8 -4 2 -10 12 -8 10 -10 -11 -10 -32 0
-38 6 -32 31 6 23 53 27 53 4z m-930 -35 c0 -14 -7 -20 -21 -20 -11 0 -17 5
-14 10 3 6 -1 10 -9 10 -9 0 -16 5 -16 10 0 6 14 10 30 10 23 0 30 -4 30 -20z
m-1194 -14 c19 -20 18 -26 -6 -26 -13 0 -20 7 -20 20 0 24 6 25 26 6z m1084
-6 c0 -23 -25 -27 -46 -6 -21 21 -18 26 16 26 23 0 30 -4 30 -20z m1150 10 c0
-5 -2 -10 -4 -10 -3 0 -8 5 -11 10 -3 6 -1 10 4 10 6 0 11 -4 11 -10z m130 4
c0 -10 -28 -34 -39 -34 -13 0 -13 3 -5 24 6 15 44 23 44 10z m1030 -4 c0 -5
-4 -10 -10 -10 -5 0 -10 5 -10 10 0 6 5 10 10 10 6 0 10 -4 10 -10z m1170 -9
c0 -17 -18 -31 -40 -31 -4 0 -10 11 -12 25 -5 22 -2 25 23 25 22 0 29 -5 29
-19z m-3565 -31 c3 -5 1 -10 -4 -10 -6 0 -11 5 -11 10 0 6 2 10 4 10 3 0 8 -4
11 -10z m1415 0 c0 -5 -5 -10 -11 -10 -5 0 -7 5 -4 10 3 6 8 10 11 10 2 0 4
-4 4 -10z m1530 2 c0 -14 -11 -21 -26 -15 -21 8 -17 23 6 23 11 0 20 -4 20 -8z
m-3130 -62 c0 -23 -16 -26 -36 -6 -20 20 -18 26 11 26 18 0 25 -5 25 -20z
m1740 10 c8 -5 11 -10 5 -10 -5 0 -17 5 -25 10 -8 5 -10 10 -5 10 6 0 17 -5
25 -10z m-2710 -40 c0 -25 -4 -30 -25 -30 -18 0 -25 5 -25 20 0 11 7 20 15 20
8 0 15 5 15 10 0 6 5 10 10 10 6 0 10 -13 10 -30z m860 -9 c0 -29 -14 -33 -33
-10 -22 26 -22 29 8 29 18 0 25 -5 25 -19z m2030 9 c0 -5 11 -10 25 -10 30 0
30 -3 8 -29 -19 -23 -33 -19 -33 10 0 10 -4 19 -10 19 -5 0 -10 -7 -10 -15 0
-17 -16 -20 -24 -6 -10 16 5 41 25 41 10 0 19 -4 19 -10z m1924 -26 c3 -8 2
-12 -4 -9 -6 3 -10 10 -10 16 0 14 7 11 14 -7z m56 -29 c0 -20 -5 -25 -25 -25
-14 0 -25 5 -25 10 0 6 5 10 11 10 5 0 8 4 5 9 -6 8 7 18 27 20 4 1 7 -10 7
-24z m-5820 -15 c-17 -5 -19 -8 -7 -9 27 -2 20 -21 -8 -21 -18 0 -25 5 -25 20
0 16 6 20 33 19 30 -1 31 -1 7 -9z m3925 -8 c-3 -3 -11 0 -18 7 -9 10 -8 11 6
5 10 -3 15 -9 12 -12z m-3099 -16 c19 -20 18 -26 -6 -26 -11 0 -20 2 -20 4 0
2 -3 11 -6 20 -8 20 12 21 32 2z m3234 -12 c0 -7 -27 -34 -34 -34 -3 0 -6 9
-6 20 0 13 7 20 20 20 11 0 20 -3 20 -6z m-2510 -39 c0 -16 -6 -25 -15 -25 -8
0 -15 7 -15 16 0 8 -4 12 -10 9 -5 -3 -10 1 -10 9 0 10 9 16 25 16 20 0 25 -5
25 -25z m-120 -65 c0 -24 -6 -25 -26 -6 -19 20 -18 26 6 26 13 0 20 -7 20 -20z
m2790 -31 c0 -49 -15 -79 -39 -79 -6 0 -11 -4 -11 -10 0 -5 -13 -10 -30 -10
-16 0 -30 5 -30 10 0 6 5 10 10 10 6 0 10 6 10 13 0 7 9 19 20 27 14 10 20 26
20 52 0 34 3 38 25 38 23 0 25 -3 25 -51z m876 30 c3 -6 1 -15 -6 -19 -10 -6
-8 -9 6 -13 12 -3 6 -5 -13 -6 -26 -1 -33 3 -33 18 0 26 33 41 46 20z m854
-24 c0 -20 -5 -25 -25 -25 -26 0 -29 7 -19 34 10 27 44 20 44 -9z m-6080 -25
c0 -5 -4 -10 -10 -10 -5 0 -10 5 -10 10 0 6 5 10 10 10 6 0 10 -4 10 -10z
m1485 0 c3 -5 1 -10 -4 -10 -6 0 -11 5 -11 10 0 6 2 10 4 10 3 0 8 -4 11 -10z
m1243 -29 c12 -11 22 -22 22 -25 0 -14 -54 -4 -66 12 -13 16 -13 16 -14 -3 0
-17 -2 -17 -10 -5 -14 22 -12 28 13 33 12 2 24 5 27 5 3 1 15 -7 28 -17z m456
10 c14 -22 -7 -41 -45 -41 -44 0 -46 2 -22 30 18 21 57 27 67 11z m-1750 -9
c6 -11 -4 -24 -30 -38 -19 -11 -20 -10 -16 17 3 20 10 29 23 29 10 0 20 -4 23
-8z m4686 -12 c0 -13 -7 -20 -20 -20 -11 0 -20 7 -20 16 0 8 5 12 10 9 6 -3
10 -1 10 4 0 6 5 11 10 11 6 0 10 -9 10 -20z m-3547 -10 c23 -27 22 -30 -13
-30 -22 0 -30 5 -30 18 0 36 18 41 43 12z m-1863 6 c0 -2 -8 -10 -17 -17 -16
-13 -17 -12 -4 4 13 16 21 21 21 13z m2613 -16 c-3 -13 -14 -20 -29 -20 -27 0
-29 5 -11 25 19 22 46 19 40 -5z m-857 -14 c19 -20 18 -26 -6 -26 -11 0 -20 2
-20 4 0 2 -3 11 -6 20 -8 20 12 21 32 2z m954 4 c0 -5 -4 -10 -10 -10 -5 0
-10 5 -10 10 0 6 5 10 10 10 6 0 10 -4 10 -10z m-2070 -36 c0 -21 -4 -25 -20
-21 -11 3 -18 1 -14 -4 3 -5 0 -9 -5 -9 -6 0 -11 14 -11 30 0 25 4 30 25 30
20 0 25 -5 25 -26z m1045 16 c-3 -5 1 -10 9 -10 9 0 16 -4 16 -10 0 -5 -13
-10 -30 -10 -23 0 -30 4 -30 20 0 14 7 20 21 20 11 0 17 -4 14 -10z m3775 -15
c0 -20 -5 -25 -25 -25 -29 0 -31 7 -8 32 22 25 33 23 33 -7z m-2610 -20 c0
-20 -5 -25 -25 -25 -16 0 -25 6 -25 15 0 8 7 15 15 15 8 0 15 5 15 10 0 6 5
10 10 10 6 0 10 -11 10 -25z m-3685 -1 c13 -5 14 -8 3 -15 -10 -7 -9 -9 5 -9
18 0 23 -15 8 -24 -18 -11 -41 6 -41 30 0 26 1 27 25 18z m785 -15 c0 -28 -23
-49 -56 -49 -15 0 -33 -8 -40 -17 -7 -10 -13 -13 -13 -8 0 20 28 47 40 39 8
-4 10 -3 5 4 -11 18 17 52 41 52 17 0 23 -6 23 -21z m2970 -10 c0 -14 -7 -19
-25 -19 -30 0 -30 3 -8 29 19 23 33 19 33 -10z m1780 -10 c8 -15 7 -23 -5 -35
-13 -14 -17 -14 -30 0 -8 8 -15 23 -15 33 0 26 37 27 50 2z m-3204 -3 c20 -20
18 -26 -11 -26 -18 0 -25 5 -25 20 0 23 16 26 36 6z m4004 -6 c0 -13 -7 -20
-20 -20 -23 0 -25 5 -7 25 17 20 27 18 27 -5z m-4074 -14 c20 -20 18 -26 -11
-26 -18 0 -25 5 -25 20 0 23 16 26 36 6z m1624 -6 c0 -11 5 -20 10 -20 6 0 10
5 10 10 0 6 5 10 10 10 6 0 10 -9 10 -20 0 -13 -7 -20 -20 -20 -11 0 -20 5
-20 10 0 6 -11 10 -25 10 -28 0 -30 5 -12 25 18 21 37 18 37 -5z m-3929 -12
c0 -10 2 -10 6 0 9 22 20 13 15 -13 -3 -16 -11 -25 -23 -25 -14 0 -19 7 -19
25 0 25 19 36 21 13z m1379 -9 c0 -12 -12 -32 -27 -45 -32 -27 -32 -27 -53
-14 -13 8 -13 10 1 10 12 0 15 7 11 25 -3 18 0 25 12 25 9 0 16 5 16 10 0 6 9
10 20 10 14 0 20 -7 20 -21z m3620 -33 c0 -8 -6 -17 -12 -19 -7 -3 2 -3 20 0
36 6 40 0 15 -25 -12 -12 -18 -13 -21 -4 -2 6 -14 12 -26 12 -29 0 -35 7 -29
31 6 22 53 27 53 5z m-900 -36 c0 -11 -4 -20 -10 -20 -5 0 -10 9 -10 20 0 11
5 20 10 20 6 0 10 -9 10 -20z m2350 0 c0 -11 5 -20 10 -20 6 0 10 -9 10 -20 0
-13 -7 -20 -20 -20 -21 0 -28 19 -7 21 6 1 1 4 -12 8 -28 8 -40 31 -16 31 9 0
13 5 10 10 -3 6 1 10 9 10 9 0 16 -9 16 -20z m-5766 4 c21 -8 21 -44 0 -44 -8
0 -12 5 -9 10 3 6 -1 10 -9 10 -17 0 -21 12 -9 23 8 8 8 8 27 1z m5001 -5 c4
-5 -1 -12 -10 -15 -13 -6 -14 -8 -3 -15 9 -6 7 -9 -9 -9 -31 0 -33 45 -3 47
11 1 22 -3 25 -8z m-4375 -9 c0 -5 -4 -10 -10 -10 -5 0 -10 5 -10 10 0 6 5 10
10 10 6 0 10 -4 10 -10z m-1370 -27 c27 -23 25 -33 -5 -33 -20 0 -25 5 -25 25
0 30 3 30 30 8z m2100 7 c0 -5 -5 -10 -11 -10 -5 0 -7 5 -4 10 3 6 8 10 11 10
2 0 4 -4 4 -10z m3076 -4 c22 -22 18 -56 -7 -56 -11 0 -27 6 -35 14 -8 8 -14
24 -14 35 0 25 34 29 56 7z m-4486 -73 c0 -13 -4 -23 -10 -23 -5 0 -10 6 -10
13 0 8 -4 7 -10 -3 -8 -12 -10 -9 -10 12 0 21 5 26 20 25 14 -1 20 -8 20 -24z
m1300 12 c0 -8 5 -15 10 -15 6 0 10 -4 10 -10 0 -5 -11 -10 -25 -10 -20 0 -25
5 -25 25 0 16 6 25 15 25 8 0 15 -7 15 -15z m-740 -5 c-13 -8 -12 -10 3 -10
21 0 22 -7 0 -28 -23 -24 -53 -24 -53 0 0 25 21 47 45 47 17 1 17 -1 5 -9z
m3426 -4 c19 -20 18 -26 -5 -26 -25 0 -36 -16 -16 -24 24 -9 17 -26 -10 -26
-20 0 -25 5 -25 25 0 14 5 25 10 25 6 0 10 9 10 20 0 23 16 26 36 6z m1132
-21 c-3 -3 -9 2 -12 12 -6 14 -5 15 5 6 7 -7 10 -15 7 -18z m-3888 -40 c0 -28
-4 -35 -19 -35 -11 0 -23 5 -26 10 -4 6 -12 7 -18 3 -15 -8 12 27 33 44 24 20
30 15 30 -22z m4630 25 c0 -5 -2 -10 -4 -10 -3 0 -8 5 -11 10 -3 6 -1 10 4 10
6 0 11 -4 11 -10z m-676 -58 c5 -8 -28 -42 -39 -42 -3 0 -5 11 -5 25 0 18 5
25 19 25 11 0 22 -4 25 -8z m-554 -21 c0 -21 -17 -31 -37 -23 -19 6 -16 22 5
22 14 0 15 2 2 10 -12 8 -11 10 8 10 15 0 22 -6 22 -19z m-3510 -6 c0 -8 5
-15 10 -15 6 0 10 -4 10 -10 0 -5 -9 -10 -20 -10 -15 0 -20 7 -20 25 0 14 5
25 10 25 6 0 10 -7 10 -15z m2814 -8 c7 -7 16 -28 19 -48 6 -27 3 -38 -13 -52
-11 -9 -22 -17 -25 -17 -3 0 -5 29 -5 65 0 67 3 74 24 52z m1296 -33 c0 -8
-35 -44 -42 -44 -13 0 -9 48 5 53 12 4 37 -2 37 -9z m700 2 c0 -3 -4 -8 -10
-11 -5 -3 -10 -1 -10 4 0 6 5 11 10 11 6 0 10 -2 10 -4z m-5510 -26 c0 -5 -10
-10 -22 -10 -19 0 -20 2 -8 10 19 13 30 13 30 0z m1890 -15 c0 -21 -5 -25 -31
-25 -17 0 -28 4 -24 10 3 6 1 10 -4 10 -6 0 -11 7 -11 15 0 10 11 15 35 15 31
0 35 -3 35 -25z m410 14 c0 -14 -25 -39 -39 -39 -6 0 -11 11 -11 25 0 20 5 25
25 25 14 0 25 -5 25 -11z m1980 -14 c0 -18 -5 -25 -20 -25 -23 0 -24 3 -8 30
17 27 28 25 28 -5z m-4840 5 c-19 -13 -30 -13 -30 0 0 6 10 10 23 10 18 0 19
-2 7 -10z m2310 -30 c0 -23 -25 -27 -46 -6 -21 21 -18 26 16 26 23 0 30 -4 30
-20z m690 10 c0 -5 -7 -10 -16 -10 -8 0 -12 -4 -9 -10 3 -5 0 -10 -8 -10 -19
0 -27 9 -20 26 6 16 53 19 53 4z m110 -20 c0 -5 -5 -10 -11 -10 -6 0 -17 -7
-26 -15 -20 -20 -37 -14 -41 13 -3 20 1 22 37 22 23 0 41 -4 41 -10z m-2629
-29 c12 -11 16 -22 11 -25 -17 -10 -42 5 -42 25 0 24 6 24 31 0z m1669 0 c0
-29 -14 -33 -33 -10 -22 26 -22 29 8 29 18 0 25 -5 25 -19z m1020 13 c0 -10
-28 -34 -39 -34 -6 0 -11 9 -11 20 0 15 7 20 25 20 14 0 25 -3 25 -6z m2960
-4 c0 -5 -9 -10 -20 -10 -11 0 -20 5 -20 10 0 6 9 10 20 10 11 0 20 -4 20 -10z
m-2015 -10 c6 -10 -24 -50 -37 -50 -13 0 -9 48 5 53 19 8 25 8 32 -3z m-2035
-25 c0 -30 -10 -32 -33 -5 -22 27 -22 30 8 30 20 0 25 -5 25 -25z m1160 20 c0
-8 -34 -45 -42 -45 -5 0 -8 11 -8 25 0 20 5 25 25 25 14 0 25 -2 25 -5z m2190
-5 c0 -5 -4 -10 -10 -10 -5 0 -10 -7 -10 -15 0 -8 -4 -15 -10 -15 -5 0 -10 11
-10 25 0 18 5 25 20 25 11 0 20 -4 20 -10z m-6145 -30 c-3 -4 -15 -6 -27 -2
-21 5 -21 6 -2 12 21 8 37 3 29 -10z m-29 -24 c21 -22 17 -36 -11 -36 -20 0
-25 5 -25 25 0 28 14 32 36 11z m2714 -6 c0 -23 -16 -26 -36 -6 -20 20 -18 26
11 26 18 0 25 -5 25 -20z m1380 10 c0 -5 9 -10 20 -10 25 0 25 -5 0 -32 -17
-19 -20 -19 -26 -5 -3 10 -14 17 -23 17 -23 0 -31 9 -24 26 6 16 53 19 53 4z
m-3430 -25 c0 -14 -4 -25 -10 -25 -5 0 -10 -9 -10 -20 0 -24 -6 -25 -27 -5
-17 17 -17 17 12 33 11 6 14 12 8 12 -22 0 -14 30 7 30 15 0 20 -7 20 -25z
m530 5 c0 -5 -9 -10 -20 -10 -11 0 -20 5 -20 10 0 6 9 10 20 10 11 0 20 -4 20
-10z m1430 -30 c0 -23 -10 -26 -28 -8 -9 9 -12 7 -12 -9 0 -31 -14 -35 -33
-12 -22 25 -21 29 3 29 11 0 20 5 20 10 0 6 11 10 25 10 18 0 25 -5 25 -20z
m40 10 c0 -5 -4 -10 -10 -10 -5 0 -10 5 -10 10 0 6 5 10 10 10 6 0 10 -4 10
-10z m576 -4 c21 -21 18 -26 -16 -26 -23 0 -30 4 -30 20 0 23 25 27 46 6z
m3664 10 c0 -3 -4 -8 -10 -11 -5 -3 -10 -1 -10 4 0 6 5 11 10 11 6 0 10 -2 10
-4z m-6934 -30 c20 -20 17 -36 -6 -36 -15 0 -20 7 -20 25 0 29 6 31 26 11z
m1175 -13 c-12 -20 -14 -14 -5 12 4 9 9 14 11 11 3 -2 0 -13 -6 -23z m1965 13
c20 -20 18 -26 -11 -26 -18 0 -25 5 -25 20 0 23 16 26 36 6z m3834 -16 c0 -23
-5 -30 -19 -30 -29 0 -36 19 -15 40 27 27 34 24 34 -10z m-3924 -4 c21 -22 17
-36 -11 -36 -20 0 -25 5 -25 25 0 28 14 32 36 11z m-2396 -32 c0 -13 -4 -24
-10 -24 -5 0 -10 -9 -10 -20 0 -11 -4 -20 -10 -20 -5 0 -10 -11 -10 -25 0 -16
-6 -25 -15 -25 -8 0 -15 7 -15 15 0 8 -4 15 -10 15 -5 0 -10 5 -10 10 0 6 11
10 25 10 14 0 25 5 25 10 0 6 -4 10 -10 10 -5 0 -10 5 -10 10 0 6 9 10 20 10
23 0 27 15 5 24 -20 7 -19 24 3 29 25 5 32 -1 32 -29z m3660 11 c0 -8 -6 -15
-12 -15 -9 0 -8 -4 2 -10 12 -8 11 -10 -6 -10 -11 0 -29 9 -39 20 -17 18 -17
20 -2 14 10 -3 17 -1 17 5 0 6 9 11 20 11 11 0 20 -7 20 -15z m693 2 c37 -38
39 -46 24 -62 -20 -20 -24 -19 -52 10 -31 30 -33 65 -4 65 11 0 26 -6 32 -13z
m-2073 -52 c0 -3 -11 -5 -25 -5 -18 0 -25 5 -25 18 0 29 12 34 32 12 10 -10
18 -22 18 -25z m-1200 25 c0 -5 -11 -10 -25 -10 -14 0 -25 5 -25 10 0 6 11 10
25 10 14 0 25 -4 25 -10z m4010 0 c0 -5 -2 -10 -4 -10 -3 0 -8 5 -11 10 -3 6
-1 10 4 10 6 0 11 -4 11 -10z m-1360 -15 c0 -8 -40 -50 -41 -44 -10 33 -4 49
17 49 13 0 24 -2 24 -5z m1400 -15 c0 -13 -7 -20 -20 -20 -23 0 -25 5 -7 25
17 20 27 18 27 -5z m-5824 -14 c20 -20 17 -36 -6 -36 -15 0 -20 7 -20 25 0 29
6 31 26 11z m2850 0 c19 -20 18 -26 -6 -26 -11 0 -20 -7 -20 -15 0 -9 -9 -15
-25 -15 -14 0 -25 -4 -25 -10 0 -19 -38 -10 -43 10 -6 24 12 38 24 19 7 -11
10 -9 15 9 4 13 14 22 26 22 12 0 17 -4 12 -12 -4 -8 -3 -10 2 -5 5 5 10 13
10 18 4 24 9 25 30 5z m-393 -19 c7 -19 -4 -33 -29 -39 -18 -4 -21 -1 -22 23
-1 24 3 29 23 29 12 0 25 -6 28 -13z m2037 -2 c0 -8 -7 -15 -15 -15 -8 0 -15
-4 -15 -10 0 -5 -4 -10 -10 -10 -5 0 -10 11 -10 25 0 20 5 25 25 25 16 0 25
-6 25 -15z m-2790 -30 c0 -30 -3 -30 -29 -8 -23 19 -19 33 10 33 14 0 19 -7
19 -25z m4680 15 c0 -6 -7 -13 -15 -16 -22 -9 -18 -24 5 -24 24 0 25 -6 6 -26
-20 -19 -26 -18 -26 6 0 11 -4 20 -10 20 -5 0 -10 11 -10 25 0 20 5 25 25 25
14 0 25 -5 25 -10z m-3670 -30 c0 -5 -4 -10 -10 -10 -5 0 -10 5 -10 10 0 6 5
10 10 10 6 0 10 -4 10 -10z m-2090 -25 c0 -29 -6 -31 -26 -11 -20 20 -17 36 6
36 15 0 20 -7 20 -25z m481 -8 c-10 -9 -11 -8 -5 6 3 10 9 15 12 12 3 -3 0
-11 -7 -18z m4064 13 c-3 -5 -15 -10 -26 -10 -10 0 -19 5 -19 10 0 6 12 10 26
10 14 0 23 -4 19 -10z m725 -15 c0 -20 -5 -25 -25 -25 -30 0 -31 7 -7 31 24
25 32 23 32 -6z m-4246 9 c20 -8 21 -44 1 -44 -8 0 -15 6 -15 13 0 8 -4 7 -10
-3 -8 -12 -10 -9 -10 13 0 28 6 32 34 21z m1001 -14 c-3 -5 1 -10 9 -10 9 0
16 -4 16 -10 0 -5 -11 -10 -25 -10 -18 0 -25 5 -25 20 0 11 7 20 16 20 8 0 12
-4 9 -10z m1925 -24 c-14 -14 -22 -2 -14 18 5 14 9 15 15 4 4 -7 4 -17 -1 -22z
m-3970 -12 c0 -13 -4 -24 -10 -24 -5 0 -10 7 -10 16 0 8 -4 12 -10 9 -5 -3
-10 0 -10 9 0 15 19 26 33 19 4 -2 7 -15 7 -29z m6500 0 c0 -20 -4 -25 -22
-22 -11 2 -22 11 -24 20 -1 11 3 15 12 11 8 -3 14 0 14 6 0 6 5 11 10 11 6 0
10 -12 10 -26z m-7137 1 c-3 -9 -8 -14 -10 -11 -3 3 -2 9 2 15 9 16 15 13 8
-4z m6457 -16 c0 -11 -4 -17 -10 -14 -5 3 -10 1 -10 -4 0 -6 -7 -11 -15 -11
-22 0 -20 48 3 53 24 5 32 -1 32 -24z m-3830 10 c-11 -8 -12 -12 -2 -16 19 -7
14 -23 -7 -23 -10 0 -21 9 -24 19 -6 24 -4 26 25 28 18 2 20 0 8 -8z m640 -39
c0 -23 -25 -27 -46 -6 -21 21 -18 26 16 26 23 0 30 -4 30 -20z m2000 10 c0 -5
-9 -10 -20 -10 -11 0 -20 5 -20 10 0 6 9 10 20 10 11 0 20 -4 20 -10z m-2090
-29 c0 -30 -19 -36 -41 -12 -26 27 -24 31 11 31 23 0 30 -5 30 -19z m3980 -11
c0 -23 -5 -30 -19 -30 -29 0 -36 19 -15 40 27 27 34 24 34 -10z m-680 9 c0
-11 -24 -39 -34 -39 -3 0 -6 11 -6 25 0 18 5 25 20 25 11 0 20 -5 20 -11z
m-3370 -18 c0 -29 -14 -33 -33 -10 -22 26 -22 29 8 29 18 0 25 -5 25 -19z
m2210 -12 c0 -5 -4 -9 -10 -9 -5 0 -10 -4 -10 -10 0 -5 3 -9 8 -9 23 4 32 -4
32 -28 0 -22 -2 -25 -10 -13 -6 10 -10 11 -10 3 0 -7 -7 -13 -15 -13 -8 0 -15
9 -15 20 0 11 -4 20 -10 20 -15 0 -12 48 3 53 16 5 37 -3 37 -14z m-4720 -14
c0 -29 -8 -32 -26 -7 -19 24 -17 32 6 32 15 0 20 -7 20 -25z m3860 5 c0 -11 5
-20 10 -20 6 0 10 5 10 10 0 6 7 10 15 10 9 0 15 -9 15 -25 0 -20 -5 -25 -25
-25 -14 0 -25 5 -25 10 0 6 -13 10 -30 10 -20 0 -30 5 -30 15 0 8 6 15 13 15
8 0 7 4 -3 10 -11 7 -7 10 18 10 25 0 32 -4 32 -20z m1540 -5 c0 -20 -5 -25
-25 -25 -19 0 -25 5 -25 21 0 11 5 17 10 14 6 -3 10 -1 10 4 0 6 7 11 15 11 9
0 15 -9 15 -25z m-3515 -11 c-16 -14 -24 -24 -16 -22 8 2 17 -5 19 -14 2 -11
-2 -18 -12 -18 -9 0 -16 -4 -16 -10 0 -5 -13 -10 -30 -10 -16 0 -30 5 -30 10
0 6 5 10 10 10 6 0 10 6 10 13 0 13 18 28 60 51 37 21 38 18 5 -10z m-2545 2
c0 -8 7 -17 16 -20 20 -8 9 -26 -17 -26 -14 0 -19 7 -19 30 0 17 5 30 10 30 6
0 10 -6 10 -14z m3050 -11 c0 -19 -5 -25 -22 -25 -19 0 -20 2 -8 10 10 6 11
10 3 10 -7 0 -13 7 -13 15 0 8 9 15 20 15 15 0 20 -7 20 -25z m4190 -25 c0
-11 -2 -20 -4 -20 -2 0 -11 -3 -20 -6 -19 -7 -21 11 -3 31 17 20 27 18 27 -5z
m-6600 -21 c0 -11 -5 -19 -11 -19 -16 0 -41 28 -35 39 10 16 46 0 46 -20z
m440 9 c0 -9 4 -8 10 2 8 12 10 11 10 -6 0 -27 -7 -33 -31 -27 -22 6 -26 43
-4 43 8 0 15 -6 15 -12z m1200 2 c0 -5 -9 -10 -20 -10 -11 0 -20 5 -20 10 0 6
9 10 20 10 11 0 20 -4 20 -10z m680 -10 c0 -24 -6 -25 -26 -6 -19 20 -18 26 6
26 13 0 20 -7 20 -20z m1680 10 c8 -5 16 -18 16 -30 1 -15 -5 -20 -22 -20 -20
0 -24 5 -24 30 0 32 6 36 30 20z m-270 -31 c0 -23 -16 -24 -37 -3 -13 13 -14
17 -3 24 19 12 40 1 40 -21z m548 -1 c-5 -34 -44 -37 -50 -4 -5 23 -2 26 24
26 25 0 29 -4 26 -22z m-4932 -12 c20 -20 17 -36 -6 -36 -15 0 -20 7 -20 25 0
29 6 31 26 11z m6114 -6 c0 -11 -2 -20 -4 -20 -2 0 -11 -3 -20 -6 -19 -7 -21
11 -3 31 17 20 27 18 27 -5z m-3900 -14 c0 -8 4 -16 10 -18 5 -1 1 -13 -8 -26
-12 -15 -24 -21 -35 -16 -18 7 -24 44 -7 44 6 0 10 7 10 15 0 8 7 15 15 15 8
0 15 -6 15 -14z m5060 -16 c0 -23 -4 -30 -20 -30 -14 0 -20 7 -20 21 0 11 5
17 10 14 6 -3 10 1 10 9 0 9 5 16 10 16 6 0 10 -13 10 -30z m-5680 10 c0 -5
-4 -10 -10 -10 -5 0 -10 5 -10 10 0 6 5 10 10 10 6 0 10 -4 10 -10z m3143 -26
c4 -21 1 -24 -24 -24 -21 0 -29 5 -29 18 0 44 44 49 53 6z m-1890 1 c9 -21
-11 -29 -28 -11 -20 19 -19 26 4 26 10 0 21 -7 24 -15z m3287 -5 c0 -11 -2
-20 -4 -20 -2 0 -11 -3 -20 -6 -19 -7 -21 11 -3 31 17 20 27 18 27 -5z m480
10 c0 -5 -5 -10 -11 -10 -5 0 -7 5 -4 10 3 6 8 10 11 10 2 0 4 -4 4 -10z
m-1130 -10 c0 -6 -7 -13 -15 -16 -24 -9 -17 -24 10 -24 30 0 31 -4 5 -30 -26
-26 -30 -25 -30 5 0 14 -4 25 -10 25 -5 0 -10 11 -10 25 0 20 5 25 25 25 14 0
25 -5 25 -10z m-3915 -10 c3 -5 1 -10 -4 -10 -6 0 -11 5 -11 10 0 6 2 10 4 10
3 0 8 -4 11 -10z m3385 6 c0 -3 -4 -8 -10 -11 -5 -3 -10 -1 -10 4 0 6 5 11 10
11 6 0 10 -2 10 -4z m-4974 -30 c23 -23 17 -46 -11 -46 -21 0 -25 5 -25 30 0
33 13 38 36 16z m614 4 c12 -8 11 -10 -7 -10 -13 0 -23 5 -23 10 0 13 11 13
30 0z m1810 -33 c0 -20 -5 -24 -31 -24 -31 0 -31 0 -7 13 18 11 19 13 6 14
-28 0 -21 20 7 20 20 0 25 -5 25 -23z m1960 -2 c0 -20 -5 -25 -25 -25 -19 0
-25 5 -25 21 0 11 5 17 10 14 6 -3 10 -1 10 4 0 6 7 11 15 11 9 0 15 -9 15
-25z m650 0 c0 -18 -5 -25 -20 -25 -23 0 -26 14 -7 35 18 21 27 18 27 -10z
m1140 0 c0 -18 -5 -25 -20 -25 -23 0 -26 14 -7 35 18 21 27 18 27 -10z m1150
-15 c0 -11 -4 -20 -9 -20 -5 0 -16 -3 -25 -6 -11 -4 -16 -1 -16 11 0 9 5 13
10 10 6 -3 10 1 10 9 0 9 7 16 15 16 8 0 15 -9 15 -20z m-5174 -25 c13 -13 13
-17 -3 -34 -18 -19 -18 -19 -20 15 -3 38 1 41 23 19z m-1086 -15 c0 -5 -4 -10
-10 -10 -5 0 -10 5 -10 10 0 6 5 10 10 10 6 0 10 -4 10 -10z m3360 -9 c0 -17
-18 -31 -41 -31 -5 0 -9 7 -9 15 0 8 6 15 13 15 8 0 7 4 -3 10 -12 8 -9 10 13
10 20 0 27 -5 27 -19z m1750 7 c0 6 7 12 15 12 9 0 15 -9 15 -25 0 -20 -5 -25
-25 -25 -21 0 -25 5 -25 28 0 21 2 24 10 12 6 -10 10 -11 10 -2z m-1310 -25
c0 -22 -2 -25 -10 -13 -6 10 -10 11 -10 3 0 -7 -7 -13 -15 -13 -15 0 -21 31
-8 43 3 4 15 7 25 7 13 0 18 -7 18 -27z m1820 16 c0 -14 -25 -39 -39 -39 -6 0
-11 11 -11 25 0 20 5 25 25 25 14 0 25 -5 25 -11z m-6710 -10 c0 -5 4 -8 8 -5
4 2 9 -4 9 -15 1 -14 -5 -19 -23 -19 -19 0 -24 5 -24 25 0 16 6 25 15 25 8 0
15 -5 15 -11z m1570 -35 c0 -13 -4 -24 -10 -24 -5 0 -10 7 -10 16 0 8 -4 12
-10 9 -11 -7 -14 18 -4 28 12 12 34 -6 34 -29z m4013 9 c-7 -3 -13 -11 -13
-19 0 -8 -4 -14 -10 -14 -15 0 -12 47 3 53 6 2 17 0 22 -5 7 -7 6 -12 -2 -15z
m-4527 3 c19 -20 18 -40 -2 -32 -9 3 -18 6 -20 6 -2 0 -4 9 -4 20 0 24 6 25
26 6z m4074 -11 c0 -20 -5 -25 -25 -25 -29 0 -31 7 -8 32 22 25 33 23 33 -7z
m2240 -4 c0 -20 -6 -30 -19 -34 -11 -3 -22 -2 -25 1 -10 10 -6 53 4 47 6 -3
10 -1 10 4 0 6 7 11 15 11 10 0 15 -10 15 -29z m-5026 -11 c-22 -9 -29 -6 -20
9 4 6 14 7 23 4 15 -6 14 -7 -3 -13z m346 -19 c0 -19 -27 -42 -43 -35 -25 9
-21 42 6 46 24 4 37 1 37 -11z m-1156 3 c14 -6 24 -54 11 -54 -14 0 -46 40
-40 49 7 13 8 13 29 5z m3391 -4 c3 -5 1 -10 -4 -10 -6 0 -11 5 -11 10 0 6 2
10 4 10 3 0 8 -4 11 -10z m1325 -15 c0 -18 -5 -25 -19 -25 -28 0 -36 19 -15
35 27 20 34 18 34 -10z m-5640 -10 c0 -30 -3 -30 -30 -8 -27 23 -25 33 5 33
20 0 25 -5 25 -25z m1714 19 c15 -6 23 -44 10 -44 -10 0 -34 28 -34 39 0 13 3
13 24 5z m-215 -21 c23 -19 19 -33 -12 -33 -20 0 -20 0 -1 -15 16 -12 17 -16
5 -24 -8 -5 -20 -7 -28 -4 -15 6 -18 53 -3 53 6 0 10 9 10 20 0 24 4 25 29 3z
m2849 -10 c2 -7 -5 -13 -15 -14 -14 0 -12 -3 7 -12 14 -6 26 -12 28 -13 5 -3
-32 -44 -40 -44 -5 0 -8 11 -8 25 0 14 -4 25 -10 25 -5 0 -10 12 -10 26 0 20
4 25 22 22 12 -2 23 -9 26 -15z m1772 6 c0 -11 -24 -39 -34 -39 -3 0 -6 11 -6
25 0 18 5 25 20 25 11 0 20 -5 20 -11z m-6748 -19 c15 -14 19 -23 12 -30 -17
-17 -44 0 -44 26 0 29 5 30 32 4z m4578 1 c0 -20 -25 -35 -41 -25 -14 9 -10
24 7 24 8 0 12 5 9 10 -3 6 1 10 9 10 9 0 16 -8 16 -19z m-1950 -13 c0 -9 4
-8 10 2 8 12 10 9 10 -11 0 -27 -15 -40 -37 -32 -19 7 -16 53 2 53 8 0 15 -6
15 -12z m3020 2 c0 -5 -10 -10 -22 -10 -19 0 -20 2 -8 10 19 13 30 13 30 0z
m1760 -20 c0 -23 -5 -30 -19 -30 -29 0 -36 19 -15 40 27 27 34 24 34 -10z
m-5860 -15 c0 -29 -6 -31 -26 -11 -20 20 -17 36 6 36 15 0 20 -7 20 -25z
m-940 -36 c0 -19 -5 -29 -15 -29 -8 0 -15 5 -15 11 0 5 -4 7 -10 4 -10 -6 -14
37 -4 47 3 3 14 4 25 1 13 -4 19 -14 19 -34z m423 21 c24 -28 21 -40 -8 -40
-21 0 -25 5 -25 30 0 35 9 38 33 10z m1553 -24 c19 -20 18 -26 -6 -26 -13 0
-20 7 -20 20 0 24 6 25 26 6z m2431 -8 c0 -13 -1 -17 -4 -10 -3 6 -13 12 -24
12 -10 0 -19 5 -19 10 0 6 10 10 23 10 17 0 23 -6 24 -22z m1758 11 c6 -9 -26
-49 -40 -49 -3 0 -5 14 -5 30 0 23 5 30 19 30 11 0 23 -5 26 -11z m-4475 -30
c0 -11 -5 -19 -11 -19 -16 0 -41 28 -35 39 10 16 46 0 46 -20z m-770 -15 c0
-13 -4 -24 -10 -24 -5 0 -10 5 -10 10 0 6 -7 10 -15 10 -15 0 -21 21 -9 32 13
14 44 -6 44 -28z m3110 -19 c0 -5 -5 -3 -10 5 -5 8 -10 20 -10 25 0 6 5 3 10
-5 5 -8 10 -19 10 -25z m-2060 5 c0 -5 -9 -10 -20 -10 -22 0 -27 -25 -7 -34
10 -5 10 -7 0 -12 -7 -3 -13 -17 -13 -30 0 -19 -5 -24 -25 -24 -20 0 -25 5
-25 25 0 26 24 35 33 13 3 -7 3 3 0 23 -4 30 -1 37 19 46 30 15 38 15 38 3z
m1108 -17 c3 -22 0 -23 -72 -23 -67 0 -76 2 -76 18 0 29 10 33 80 30 59 -3 65
-5 68 -25z m2012 -9 c0 -14 -4 -23 -10 -19 -5 3 -10 1 -10 -4 0 -6 -7 -11 -15
-11 -10 0 -15 10 -15 30 0 25 4 30 25 30 20 0 25 -5 25 -26z m-4700 1 c0 -8 7
-15 16 -15 24 0 12 -35 -14 -38 -19 -3 -22 1 -22 32 0 20 5 36 10 36 6 0 10
-7 10 -15z m3690 -10 c0 -14 5 -25 10 -25 16 0 11 -37 -6 -44 -22 -9 -24 -8
-24 9 0 8 5 15 10 15 6 0 10 5 10 10 0 6 -9 10 -20 10 -23 0 -24 3 -8 30 17
27 28 25 28 -5z m-4100 -15 c0 -20 -5 -30 -15 -30 -8 0 -15 5 -15 11 0 5 -4 7
-10 4 -6 -4 -10 5 -10 19 0 21 5 26 25 26 21 0 25 -5 25 -30z m3193 9 c-4 -15
-8 -17 -14 -8 -8 14 -3 29 11 29 4 0 6 -9 3 -21z m1277 0 c0 -11 -24 -39 -34
-39 -3 0 -6 11 -6 25 0 18 5 25 20 25 11 0 20 -5 20 -11z m-1634 -13 c20 -20
18 -26 -11 -26 -18 0 -25 5 -25 20 0 23 16 26 36 6z m424 -6 c0 -11 7 -20 15
-20 8 0 15 5 15 10 0 6 5 10 10 10 6 0 10 -9 10 -20 0 -24 -34 -27 -56 -6 -16
17 -19 46 -4 46 6 0 10 -9 10 -20z m2440 10 c0 -5 -2 -10 -4 -10 -3 0 -8 5
-11 10 -3 6 -1 10 4 10 6 0 11 -4 11 -10z m505 -1 c6 -9 -26 -49 -40 -49 -3 0
-5 14 -5 30 0 23 5 30 19 30 11 0 23 -5 26 -11z m-5285 -24 c0 -28 -14 -32
-36 -10 -18 18 -10 35 17 35 14 0 19 -7 19 -25z m740 0 c0 -29 -6 -31 -26 -11
-20 20 -17 36 6 36 15 0 20 -7 20 -25z m-211 -2 c23 -19 19 -33 -10 -33 -14 0
-19 7 -19 25 0 30 3 30 29 8z m3051 -28 c0 -8 -7 -15 -15 -15 -8 0 -15 -7 -15
-15 0 -8 -4 -15 -10 -15 -5 0 -10 14 -10 30 0 25 4 30 25 30 16 0 25 -6 25
-15z m-1095 -30 c49 -38 60 -61 40 -81 -14 -15 -17 -14 -34 5 -10 12 -22 21
-25 21 -17 0 -38 32 -33 50 3 12 -1 24 -11 30 -14 8 -13 9 5 7 13 -2 39 -16
58 -32z m1725 19 c0 -8 -4 -12 -10 -9 -5 3 -10 -1 -10 -9 0 -9 -4 -16 -10 -16
-5 0 -10 11 -10 25 0 18 5 25 20 25 11 0 20 -7 20 -16z m-3502 -25 c-19 -13
-28 -11 -28 5 0 9 7 12 21 9 16 -4 17 -8 7 -14z m285 1 c24 -28 21 -40 -8 -40
-21 0 -25 5 -25 30 0 35 9 38 33 10z m2227 -5 c0 -18 -5 -25 -20 -25 -11 0
-20 5 -20 10 0 6 5 10 10 10 6 0 10 7 10 15 0 8 5 15 10 15 6 0 10 -11 10 -25z
m550 0 c0 -18 -5 -25 -20 -25 -11 0 -20 5 -20 10 0 6 5 10 10 10 6 0 10 7 10
15 0 8 5 15 10 15 6 0 10 -11 10 -25z m1050 -4 c0 -27 -20 -47 -34 -34 -10 11
-7 45 4 38 6 -3 10 1 10 9 0 9 5 16 10 16 6 0 10 -13 10 -29z m-5340 -18 c22
-19 23 -22 12 -41 -14 -22 -42 -2 -42 29 0 34 3 35 30 12z m1030 0 c27 -23 25
-33 -5 -33 -20 0 -25 5 -25 25 0 30 3 30 30 8z m-1460 -34 c0 -33 -5 -35 -26
-15 -24 25 -16 60 12 49 8 -3 14 -18 14 -34z m920 10 c0 -10 -3 -19 -6 -19
-12 0 -35 30 -29 39 9 16 35 1 35 -20z m3607 -4 c-21 -20 -27 -19 -27 4 0 11
8 21 18 23 23 5 27 -8 9 -27z m-2607 -12 c27 -23 25 -33 -5 -33 -20 0 -25 5
-25 25 0 30 3 30 30 8z m2820 -33 c0 -23 -4 -30 -20 -30 -23 0 -27 23 -7 45
19 22 27 18 27 -15z m446 4 c5 -18 1 -30 -14 -45 -12 -10 -24 -19 -27 -19 -11
0 -4 79 8 83 22 10 27 7 33 -19z m1074 -20 c0 -21 -4 -33 -10 -29 -5 3 -10 1
-10 -4 0 -6 -7 -11 -15 -11 -23 0 -21 77 3 83 26 6 32 -1 32 -39z m-2720 -21
c0 -22 -2 -25 -10 -13 -6 10 -10 11 -10 3 0 -7 -7 -13 -15 -13 -9 0 -15 9 -15
25 0 20 5 25 25 25 21 0 25 -5 25 -27z m1030 -15 c0 -25 -3 -29 -10 -18 -6 10
-10 11 -10 3 0 -7 -7 -13 -15 -13 -10 0 -15 10 -15 30 0 25 4 30 25 30 22 0
25 -4 25 -32z m-3130 -6 c23 -21 17 -67 -7 -58 -8 3 -17 6 -19 6 -2 0 -4 16
-4 35 0 40 3 42 30 17z m456 4 c20 -20 17 -36 -6 -36 -15 0 -20 7 -20 25 0 29
6 31 26 11z m2288 -2 c3 -8 2 -12 -4 -9 -6 3 -10 10 -10 16 0 14 7 11 14 -7z
m1586 4 c0 6 7 12 15 12 10 0 15 -10 15 -30 0 -20 -5 -30 -15 -30 -9 0 -15
-10 -16 -22 -1 -22 -1 -22 -9 2 -4 14 -8 39 -9 55 0 23 2 26 9 15 6 -10 10
-11 10 -2z m-3180 -28 c0 -11 -4 -20 -10 -20 -5 0 -10 -11 -10 -25 0 -29 -6
-31 -26 -11 -20 20 -17 36 6 36 11 0 20 5 20 10 0 6 -4 10 -10 10 -5 0 -10 5
-10 10 0 6 9 10 20 10 13 0 20 -7 20 -20z m-1706 -6 c15 -6 24 -64 10 -64 -13
0 -34 30 -34 49 0 23 1 24 24 15z m746 -35 c0 -19 -5 -29 -15 -29 -8 0 -15 5
-15 11 0 5 -4 8 -8 5 -5 -3 -9 3 -9 12 -2 31 5 41 26 35 15 -4 21 -13 21 -34z
m2610 -33 c0 -22 -31 -42 -44 -28 -12 11 -6 32 9 32 8 0 15 5 15 10 0 6 5 10
10 10 6 0 10 -11 10 -24z m964 -3 c6 -14 -22 -53 -39 -53 -11 0 -4 59 8 63 21
9 25 8 31 -10z m-444 -23 c0 -23 -4 -30 -20 -30 -23 0 -27 23 -7 45 19 22 27
18 27 -15z m-1160 9 c0 -11 -24 -39 -34 -39 -12 0 -6 38 7 43 20 9 27 8 27 -4z
m990 -20 c0 -17 -4 -28 -10 -24 -5 3 -10 -1 -10 -9 0 -9 -4 -16 -10 -16 -15 0
-12 67 3 73 23 10 27 7 27 -24z m-4183 6 c22 -23 24 -181 2 -206 -9 -11 -19
-19 -23 -19 -3 0 -6 54 -6 120 0 66 3 120 6 120 3 0 12 -7 21 -15z m1469 1
c14 -15 19 -48 8 -59 -15 -14 -34 8 -34 39 0 38 4 41 26 20z m649 4 c3 -5 1
-10 -4 -10 -6 0 -11 5 -11 10 0 6 2 10 4 10 3 0 8 -4 11 -10z m-635 -216 c0
-23 -20 -54 -34 -54 -11 0 -6 61 7 74 16 18 27 10 27 -20z m-990 -54 c0 -33
-4 -40 -19 -40 -33 0 -36 32 -6 67 18 21 25 14 25 -27z m3860 -16 c0 -38 -4
-41 -26 -20 -14 15 -19 48 -8 59 15 14 34 -8 34 -39z m-2210 11 c0 -18 -5 -25
-20 -25 -23 0 -24 3 -8 30 17 27 28 25 28 -5z m1036 11 c20 -20 17 -36 -6 -36
-15 0 -20 7 -20 25 0 29 6 31 26 11z m984 -2 c0 -8 5 -12 10 -9 6 3 10 -2 10
-13 0 -24 -8 -32 -26 -25 -16 6 -19 63 -4 63 6 0 10 -7 10 -16z m-330 -39 c0
-19 -4 -35 -10 -35 -5 0 -10 5 -10 10 0 6 -7 10 -15 10 -15 0 -21 31 -8 43 3
4 15 7 25 7 14 0 18 -8 18 -35z m-2610 -20 c0 -20 -5 -25 -25 -25 -27 0 -32
13 -12 35 19 22 37 17 37 -10z m3560 8 c22 -19 23 -22 12 -41 -14 -22 -42 -2
-42 29 0 34 3 35 30 12z m-2620 -23 c0 -11 5 -20 10 -20 11 0 14 -43 4 -53 -3
-3 -12 -3 -20 0 -16 6 -19 33 -4 33 6 0 10 5 10 10 0 6 -9 10 -20 10 -23 0
-25 5 -7 25 17 20 27 18 27 -5z m996 6 c19 -20 18 -26 -6 -26 -13 0 -20 7 -20
20 0 24 6 25 26 6z m-2112 -39 c-3 -9 -10 -14 -15 -11 -5 3 -9 -2 -9 -10 0 -9
-4 -16 -10 -16 -15 0 -12 67 3 73 18 7 39 -17 31 -36z m456 2 c0 -11 -4 -17
-10 -14 -5 3 -10 -1 -10 -9 0 -9 -4 -16 -10 -16 -15 0 -12 47 3 53 22 10 27 7
27 -14z m-1910 -43 c0 -40 -24 -55 -40 -25 -9 15 -7 21 5 25 8 3 15 12 15 20
0 8 5 14 10 14 6 0 10 -15 10 -34z m4550 20 c0 -8 5 -16 12 -18 19 -7 1 -38
-22 -38 -16 0 -20 6 -20 35 0 24 5 35 15 35 8 0 15 -6 15 -14z m-369 -23 c-12
-20 -14 -14 -5 12 4 9 9 14 11 11 3 -2 0 -13 -6 -23z m-2531 -18 c0 -20 -5
-25 -25 -25 -30 0 -31 7 -7 31 24 25 32 23 32 -6z m960 5 c0 -11 -2 -20 -4
-20 -2 0 -11 -3 -20 -6 -19 -7 -21 11 -3 31 17 20 27 18 27 -5z m3190 -10 c0
-20 -5 -30 -15 -30 -8 0 -15 6 -15 13 0 8 -4 7 -10 -3 -7 -11 -10 -7 -10 18 0
28 3 32 25 32 21 0 25 -5 25 -30z m-5360 -6 c0 -15 -23 -44 -34 -44 -12 0 -6
48 7 53 21 9 27 7 27 -9z m4300 -20 c0 -13 -3 -24 -6 -24 -14 0 -35 32 -30 45
8 22 36 6 36 -21z m1500 5 c0 -5 5 -7 10 -4 10 6 15 -47 4 -57 -3 -3 -14 -4
-25 -1 -24 7 -28 73 -4 73 8 0 15 -5 15 -11z m-2756 -25 c20 -20 20 -34 1 -34
-8 0 -15 6 -15 13 0 8 -4 7 -10 -3 -8 -12 -10 -9 -10 13 0 31 11 34 34 11z
m1682 2 c21 -21 17 -46 -6 -46 -16 0 -20 7 -20 30 0 34 5 37 26 16z m-3691 -7
c6 -9 -26 -49 -40 -49 -11 0 -4 49 8 53 19 8 25 8 32 -4z m195 -29 c0 -23 -5
-30 -19 -30 -26 0 -37 18 -17 26 9 3 16 12 16 20 0 8 5 14 10 14 6 0 10 -13
10 -30z m2860 10 c27 -27 25 -40 -5 -40 -21 0 -25 5 -25 30 0 35 3 37 30 10z
m-2580 -15 c0 -8 -9 -15 -20 -15 -25 0 -26 17 -2 23 9 3 18 5 20 6 1 0 2 -6 2
-14z m-1000 -14 c0 -20 -36 -36 -46 -20 -6 11 17 38 34 39 6 0 12 -8 12 -19z
m3204 3 c15 -6 23 -44 10 -44 -10 0 -34 28 -34 39 0 13 3 13 24 5z m566 -24
c0 -24 -6 -25 -26 -6 -19 20 -18 26 6 26 13 0 20 -7 20 -20z m-4690 -10 c0 -5
-7 -10 -15 -10 -8 0 -18 0 -22 -1 -4 0 -9 4 -11 10 -2 6 8 11 22 11 14 0 26
-4 26 -10z m440 -11 c0 -9 -36 -49 -45 -49 -3 0 -5 13 -5 29 0 20 6 31 18 34
20 4 32 -1 32 -14z m4040 4 c27 -23 25 -33 -5 -33 -20 0 -25 5 -25 25 0 30 3
30 30 8z m-3010 -8 c0 -3 -9 -14 -20 -25 -26 -26 -30 -25 -30 5 0 20 5 25 25
25 14 0 25 -2 25 -5z m480 -17 c0 -19 -2 -20 -10 -8 -8 13 -10 12 -10 -2 0
-10 -7 -18 -15 -18 -9 0 -15 9 -15 25 0 20 5 25 25 25 19 0 25 -5 25 -22z
m810 13 c0 -5 -6 -12 -12 -14 -10 -4 -9 -8 2 -16 12 -9 10 -10 -10 -8 -14 2
-24 7 -22 10 1 4 2 14 2 22 0 8 9 15 20 15 11 0 20 -4 20 -9z m574 -7 c3 -9 4
-20 0 -25 -9 -14 -24 -10 -24 7 0 8 -4 12 -10 9 -5 -3 -10 1 -10 9 0 21 36 21
44 0z m2390 10 c15 -6 24 -64 10 -64 -13 0 -34 30 -34 49 0 23 1 24 24 15z
m-4784 -39 c0 -20 -5 -25 -25 -25 -26 0 -26 0 -8 25 23 31 33 31 33 0z m700
15 c0 -5 -2 -10 -4 -10 -3 0 -8 5 -11 10 -3 6 -1 10 4 10 6 0 11 -4 11 -10z
m2480 -15 c0 -30 -3 -30 -30 -8 -27 23 -25 33 5 33 20 0 25 -5 25 -25z m550
-15 c0 -35 -4 -37 -31 -11 -24 22 -18 41 12 41 14 0 19 -7 19 -30z m452 -2
c-7 -7 -12 -8 -12 -2 0 14 12 26 19 19 2 -3 -1 -11 -7 -17z m-2272 6 c0 -14
-32 -35 -45 -30 -22 8 -6 36 21 36 13 0 24 -3 24 -6z m1609 -11 c23 -19 19
-33 -10 -33 -14 0 -19 7 -19 25 0 30 3 30 29 8z m-2969 -20 c0 -22 -2 -25 -10
-13 -6 10 -10 11 -10 3 0 -7 -7 -13 -15 -13 -9 0 -15 9 -15 25 0 20 5 25 25
25 21 0 25 -5 25 -27z m-1470 -8 c0 -20 -5 -25 -25 -25 -27 0 -32 13 -12 35
19 22 37 17 37 -10z m2890 20 c0 -3 -8 -14 -17 -24 -19 -23 -33 -19 -33 10 0
14 7 19 25 19 14 0 25 -2 25 -5z m3279 -12 c23 -19 19 -33 -10 -33 -14 0 -19
7 -19 25 0 30 3 30 29 8z m-5748 -24 c-25 -24 -31 -24 -31 0 0 11 8 21 18 24
29 6 35 -4 13 -24z m2642 1 c6 -23 -14 -30 -73 -27 -28 2 -36 7 -38 25 -3 20
0 22 51 22 46 0 55 -3 60 -20z m117 16 c0 -3 -4 -8 -10 -11 -5 -3 -10 -1 -10
4 0 6 5 11 10 11 6 0 10 -2 10 -4z m1450 -42 c0 -15 -6 -24 -15 -24 -8 0 -15
6 -15 14 0 8 -5 16 -12 18 -20 7 1 26 22 21 13 -3 20 -14 20 -29z m-5220 3 c0
-12 -34 -47 -45 -47 -3 0 -5 13 -5 29 0 20 6 31 18 34 21 4 32 -1 32 -16z
m1530 -2 c0 -18 -5 -25 -20 -25 -23 0 -26 14 -7 35 18 21 27 18 27 -10z m4130
14 c0 -5 5 -7 11 -3 7 4 9 -2 7 -17 -2 -16 -11 -25 -25 -27 -20 -3 -23 1 -23
27 0 21 5 31 15 31 8 0 15 -5 15 -11z m-3390 -22 c10 -4 8 -6 -6 -6 -12 -1
-25 6 -28 15 -5 13 -3 14 6 7 7 -6 20 -13 28 -16z m-190 2 c0 -11 -24 -39 -34
-39 -3 0 -6 11 -6 25 0 18 5 25 20 25 11 0 20 -5 20 -11z m4186 -16 c-10 -10
-19 5 -10 18 6 11 8 11 12 0 2 -7 1 -15 -2 -18z m-3686 7 c0 -5 -4 -10 -10
-10 -5 0 -10 5 -10 10 0 6 5 10 10 10 6 0 10 -4 10 -10z m-280 -30 c0 -11 5
-20 10 -20 6 0 10 -9 10 -20 0 -11 5 -20 10 -20 6 0 10 -11 10 -25 0 -14 4
-25 9 -25 6 0 9 -17 8 -39 l-1 -38 -20 25 c-14 18 -17 27 -8 30 19 6 14 22 -8
22 -11 0 -20 7 -20 16 0 8 5 12 10 9 6 -3 10 -1 10 4 0 6 -9 11 -19 11 -26 0
-37 18 -17 26 23 9 20 24 -4 24 -23 0 -25 5 -7 25 17 20 27 18 27 -5z m310 -1
c0 -6 -6 -17 -14 -25 -22 -21 -36 -17 -36 11 0 20 5 25 25 25 14 0 25 -5 25
-11z m2580 -20 c0 -10 -3 -19 -6 -19 -12 0 -35 30 -29 39 9 16 35 1 35 -20z
m-4580 -4 c0 -20 -5 -25 -25 -25 -30 0 -31 7 -7 31 24 25 32 23 32 -6z m940 0
c0 -20 -5 -25 -25 -25 -30 0 -31 7 -7 31 24 25 32 23 32 -6z m5191 6 c24 -22
18 -41 -12 -41 -14 0 -19 7 -19 30 0 35 4 37 31 11z m-1782 -18 c23 -20 19
-33 -12 -33 -20 -1 -21 -2 -4 -14 24 -18 21 -26 -8 -26 -20 0 -25 5 -25 25 0
14 5 25 10 25 6 0 10 9 10 20 0 24 4 25 29 3z m680 0 c23 -19 19 -33 -10 -33
-14 0 -19 7 -19 25 0 30 3 30 29 8z m-1059 -28 c0 -27 -1 -28 -25 -19 -13 5
-14 8 -3 15 10 7 9 9 -4 9 -10 0 -18 5 -18 10 0 6 11 10 25 10 20 0 25 -5 25
-25z m2810 -21 c0 -28 -6 -30 -26 -10 -21 22 -18 45 6 39 13 -3 20 -14 20 -29z
m-5820 1 c0 -18 -5 -25 -20 -25 -11 0 -20 7 -20 16 0 8 5 12 10 9 6 -3 10 1
10 9 0 9 5 16 10 16 6 0 10 -11 10 -25z m560 15 c0 -5 -8 -14 -17 -19 -15 -9
-14 -10 10 -11 17 0 27 -5 27 -15 0 -8 -7 -15 -16 -15 -8 0 -12 -4 -9 -10 3
-5 -1 -10 -9 -10 -9 0 -16 9 -16 20 0 11 -4 20 -10 20 -5 0 -10 11 -10 25 0
20 5 25 25 25 14 0 25 -4 25 -10z m522 -14 c4 -19 1 -23 -19 -23 -18 0 -23 5
-23 23 0 17 6 24 19 24 12 0 20 -9 23 -24z m3593 4 c3 -5 1 -10 -4 -10 -6 0
-11 5 -11 10 0 6 2 10 4 10 3 0 8 -4 11 -10z m-5175 -11 c0 -11 -24 -39 -34
-39 -3 0 -6 11 -6 25 0 18 5 25 20 25 11 0 20 -5 20 -11z m-440 -29 c0 -23 -5
-30 -19 -30 -29 0 -36 19 -15 40 27 27 34 24 34 -10z m5000 0 c0 -5 -2 -10 -4
-10 -3 0 -8 5 -11 10 -3 6 -1 10 4 10 6 0 11 -4 11 -10z m1086 -4 c21 -21 17
-46 -6 -46 -16 0 -20 7 -20 30 0 34 5 37 26 16z m-5152 -22 c3 -8 2 -12 -4 -9
-6 3 -10 10 -10 16 0 14 7 11 14 -7z m3366 12 c0 -3 -4 -8 -10 -11 -5 -3 -10
-1 -10 4 0 6 5 11 10 11 6 0 10 -2 10 -4z m-3840 -26 c0 -5 -10 -10 -22 -10
-19 0 -20 2 -8 10 19 13 30 13 30 0z m5160 -25 c0 -40 -8 -44 -33 -14 -22 25
-15 49 13 49 16 0 20 -6 20 -35z m-1379 -2 c1 -17 2 -17 6 0 2 9 8 17 13 17
11 0 0 -43 -13 -52 -18 -11 -37 3 -37 28 0 28 29 34 31 7z m739 7 c0 -5 -4
-10 -10 -10 -5 0 -10 5 -10 10 0 6 5 10 10 10 6 0 10 -4 10 -10z m1760 -25 c0
-24 -5 -35 -15 -35 -8 0 -15 5 -15 11 0 5 -4 7 -10 4 -11 -7 -14 38 -3 48 3 4
15 7 25 7 14 0 18 -8 18 -35z m-2920 -11 c0 -17 -6 -24 -20 -24 -11 0 -20 6
-20 13 0 6 -6 3 -12 -7 -8 -15 -8 -21 0 -24 17 -5 15 -42 -3 -42 -8 0 -15 5
-15 11 0 5 -4 7 -10 4 -5 -3 -10 3 -10 14 0 12 5 21 10 21 6 0 16 12 23 28 6
15 16 30 21 34 17 11 36 -4 36 -28z m-1666 -3 c10 -16 -5 -41 -25 -41 -14 0
-19 7 -19 25 0 18 5 25 19 25 11 0 22 -4 25 -9z m-1674 -11 c0 -5 -5 -10 -11
-10 -5 0 -7 5 -4 10 3 6 8 10 11 10 2 0 4 -4 4 -10z m530 -10 c0 -11 5 -20 10
-20 6 0 10 -11 10 -25 0 -20 -5 -25 -25 -25 -29 0 -33 15 -7 29 15 9 15 10 -4
11 -30 0 -36 11 -16 31 23 24 32 23 32 -1z m5056 6 c21 -22 17 -36 -11 -36
-20 0 -25 5 -25 25 0 28 14 32 36 11z m-466 -21 c0 -16 -6 -25 -15 -25 -8 0
-15 6 -15 13 0 8 -4 7 -10 -3 -8 -12 -10 -9 -10 13 0 22 4 27 25 27 20 0 25
-5 25 -25z m-3780 -10 c0 -18 -5 -25 -19 -25 -24 0 -33 13 -25 34 10 27 44 20
44 -9z m2381 6 c12 -11 16 -22 11 -25 -17 -10 -42 5 -42 25 0 24 6 24 31 0z
m-4771 -2 c0 -11 -24 -39 -34 -39 -12 0 -6 38 7 43 20 9 27 8 27 -4z m2180
-10 c0 -5 -7 -9 -15 -9 -8 0 -15 -4 -15 -10 0 -5 -4 -10 -10 -10 -14 0 -12 38
3 43 16 5 37 -3 37 -14z m2804 15 c14 -5 24 -44 11 -44 -11 0 -44 34 -39 42 6
10 8 10 28 2z m506 -16 c0 -9 4 -8 10 2 8 12 10 11 10 -6 0 -27 -7 -33 -31
-27 -22 6 -26 43 -4 43 8 0 15 -6 15 -12z m1800 -29 c0 -19 -5 -29 -15 -29 -8
0 -15 8 -15 18 0 14 -2 15 -10 2 -8 -12 -10 -10 -10 11 0 32 6 38 31 32 13 -4
19 -14 19 -34z m-6224 2 c-4 -6 -14 -7 -23 -4 -15 6 -14 7 3 13 22 9 29 6 20
-9z m3899 -1 c-3 -5 -12 -10 -18 -10 -7 0 -6 4 3 10 19 12 23 12 15 0z m-4325
-30 c0 -25 -4 -30 -25 -30 -16 0 -25 6 -25 15 0 8 5 15 10 15 6 0 10 7 10 15
0 8 7 15 15 15 10 0 15 -10 15 -30z m5484 24 c15 -6 23 -44 10 -44 -10 0 -34
28 -34 39 0 13 3 13 24 5z m-3904 -39 c0 -20 -5 -25 -25 -25 -20 0 -25 5 -25
25 0 20 5 25 25 25 20 0 25 -5 25 -25z m640 0 c0 -20 -5 -25 -25 -25 -43 0
-31 46 13 49 6 1 12 -10 12 -24z m2100 0 c0 -16 -6 -25 -16 -25 -8 0 -12 5 -9
10 3 6 -1 10 -9 10 -9 0 -16 7 -16 15 0 9 9 15 25 15 20 0 25 -5 25 -25z
m-4940 -6 c0 -11 -24 -39 -34 -39 -3 0 -6 11 -6 25 0 18 5 25 20 25 11 0 20
-5 20 -11z m1080 -14 c0 -14 5 -25 10 -25 6 0 10 -7 10 -16 0 -8 -4 -12 -10
-9 -5 3 -10 -1 -10 -9 0 -9 -5 -16 -11 -16 -8 0 -10 13 -6 38 3 20 3 31 0 25
-9 -23 -33 -14 -33 12 0 20 5 25 25 25 20 0 25 -5 25 -25z m3248 -7 c-2 -15
-11 -24 -25 -26 -25 -4 -30 11 -10 33 19 22 39 18 35 -7z m2243 3 c24 -22 18
-41 -12 -41 -14 0 -19 7 -19 30 0 35 4 37 31 11z m-471 -16 c0 -14 -4 -25 -10
-25 -5 0 -10 -11 -10 -25 0 -30 -3 -30 -30 -8 -27 23 -25 33 5 33 14 0 25 5
25 10 0 6 -4 10 -10 10 -5 0 -10 7 -10 15 0 8 9 15 20 15 15 0 20 -7 20 -25z
m-5460 -10 c0 -20 -5 -25 -25 -25 -30 0 -31 7 -7 31 24 25 32 23 32 -6z m4010
13 c0 -9 4 -8 11 2 8 11 9 9 3 -10 -4 -14 -15 -32 -25 -40 -50 -43 -60 -50
-67 -50 -16 0 1 63 22 86 23 25 56 31 56 12z m2590 -29 c0 -16 -4 -29 -10 -29
-5 0 -10 7 -10 16 0 8 -4 12 -10 9 -11 -7 -14 27 -4 38 14 13 34 -7 34 -34z
m-5590 -4 c0 -14 5 -25 10 -25 6 0 10 -9 10 -19 0 -20 -25 -35 -41 -25 -15 9
-10 24 8 24 21 0 11 11 -14 14 -10 2 -18 12 -19 24 -1 12 3 19 7 16 5 -3 9 0
9 5 0 6 7 11 15 11 9 0 15 -9 15 -25z m3220 -16 c0 -11 -7 -27 -15 -35 -13
-14 -17 -14 -30 0 -12 12 -14 20 -5 36 14 27 50 27 50 -1z m-4850 1 c0 -13
-11 -13 -30 0 -12 8 -11 10 8 10 12 0 22 -4 22 -10z m2288 -38 l21 -38 -32 4
c-38 6 -57 23 -57 51 0 38 43 27 68 -17z m702 8 c0 -15 -7 -20 -25 -20 -14 0
-25 5 -25 10 0 6 7 10 15 10 8 0 15 5 15 10 0 6 5 10 10 10 6 0 10 -9 10 -20z
m60 -10 c0 -5 -4 -10 -10 -10 -5 0 -10 5 -10 10 0 6 5 10 10 10 6 0 10 -4 10
-10z m4150 -25 c0 -30 -3 -30 -30 -8 -27 23 -25 33 5 33 20 0 25 -5 25 -25z
m-7184 -4 c-4 -6 -14 -7 -23 -4 -15 6 -14 7 3 13 22 9 29 6 20 -9z m644 0 c0
-11 -4 -21 -10 -23 -6 -2 -6 -8 0 -18 8 -13 10 -12 10 3 0 9 5 17 10 17 6 0
10 -11 10 -25 0 -18 -5 -25 -20 -25 -13 0 -20 7 -20 20 0 11 -4 20 -10 20 -14
0 -13 18 3 35 17 20 27 18 27 -4z m460 13 c0 -7 -27 -34 -34 -34 -3 0 -6 9 -6
20 0 13 7 20 20 20 11 0 20 -3 20 -6z m1995 -4 c3 -5 1 -10 -4 -10 -6 0 -11 5
-11 10 0 6 2 10 4 10 3 0 8 -4 11 -10z m1358 -10 c3 -13 -1 -21 -15 -26 -25
-7 -41 7 -32 29 9 23 41 21 47 -3z m867 8 c0 -9 4 -8 10 2 8 12 10 9 10 -12 0
-24 -4 -28 -27 -28 -25 -1 -26 -2 -11 -14 20 -15 14 -26 -14 -26 -13 0 -18 7
-18 25 0 14 5 25 10 25 6 0 10 9 10 20 0 11 7 20 15 20 8 0 15 -6 15 -12z
m1172 -10 c13 -16 15 -24 7 -29 -20 -12 -39 2 -39 27 0 30 7 30 32 2z m-3312
-23 c0 -21 -5 -25 -30 -25 -20 0 -30 5 -30 15 0 8 5 15 11 15 5 0 7 5 4 10 -4
6 5 10 19 10 21 0 26 -5 26 -25z m123 -25 c-3 -13 -14 -20 -29 -20 -30 0 -30
7 -2 30 27 21 38 18 31 -10z m2697 5 c0 -16 -6 -25 -15 -25 -8 0 -15 5 -15 11
0 5 -4 7 -10 4 -5 -3 -10 3 -10 14 0 16 6 21 25 21 20 0 25 -5 25 -25z m-4880
5 c0 -13 -11 -13 -30 0 -12 8 -11 10 8 10 12 0 22 -4 22 -10z m-1090 -23 c0
-13 5 -28 12 -35 7 -7 8 -12 2 -12 -6 0 -16 10 -22 23 -6 12 -11 16 -11 10 -2
-25 -31 -13 -31 12 0 20 5 25 25 25 19 0 25 -5 25 -23z m2610 7 c0 -10 -28
-34 -39 -34 -6 0 -11 9 -11 20 0 15 7 20 25 20 14 0 25 -3 25 -6z m-1496 -30
c4 -9 4 -19 1 -22 -3 -3 -5 0 -5 6 0 7 -9 12 -20 12 -11 0 -20 5 -20 10 0 17
37 11 44 -6z m574 -6 c-2 -15 -11 -24 -25 -26 -25 -4 -30 11 -10 33 19 22 39
18 35 -7z m2948 7 c14 -13 14 -17 0 -30 -8 -8 -24 -15 -35 -15 -26 0 -29 35
-3 49 22 13 21 13 38 -4z m-2266 -12 c0 -5 -4 -14 -9 -21 -6 -10 -10 -9 -14 7
-3 14 0 21 9 21 8 0 14 -3 14 -7z m310 -3 c0 -5 -7 -10 -15 -10 -8 0 -15 -7
-15 -15 0 -8 -4 -15 -10 -15 -5 0 -10 11 -10 25 0 20 5 25 25 25 14 0 25 -4
25 -10z m2560 -20 c0 -5 -4 -10 -10 -10 -5 0 -10 5 -10 10 0 6 5 10 10 10 6 0
10 -4 10 -10z m1183 -15 c-3 -9 -8 -14 -10 -11 -3 3 -2 9 2 15 9 16 15 13 8
-4z m687 -15 c0 -20 -5 -30 -15 -30 -8 0 -15 5 -15 11 0 5 -4 8 -8 5 -4 -2 -9
6 -10 20 -1 19 3 24 23 24 21 0 25 -5 25 -30z m-2564 6 c20 -20 18 -36 -5 -36
-20 0 -35 25 -25 41 7 12 13 11 30 -5z m-4496 -14 c0 -8 -37 -42 -45 -42 -3 0
-5 11 -5 25 0 20 5 25 25 25 14 0 25 -3 25 -8z m1110 -12 c0 -13 -11 -13 -30
0 -12 8 -11 10 8 10 12 0 22 -4 22 -10z m560 0 c-19 -13 -30 -13 -30 0 0 6 10
10 23 10 18 0 19 -2 7 -10z m1060 0 c0 -5 11 -10 25 -10 14 0 25 -4 25 -10 0
-5 9 -10 20 -10 11 0 20 -4 20 -10 0 -5 11 -10 25 -10 29 0 32 -8 8 -26 -25
-19 -33 -17 -33 6 0 11 -4 20 -10 20 -5 0 -10 -7 -10 -15 0 -28 -30 -16 -31
13 0 15 -3 21 -6 15 -8 -21 -33 -15 -33 7 0 11 -4 20 -10 20 -5 0 -10 -4 -10
-10 0 -5 -4 -10 -10 -10 -5 0 -10 9 -10 20 0 13 7 20 20 20 11 0 20 -4 20 -10z
m1700 -14 c0 -3 -4 -8 -10 -11 -5 -3 -10 -1 -10 4 0 6 5 11 10 11 6 0 10 -2
10 -4z m686 -11 c9 -8 13 -19 10 -24 -10 -16 -46 0 -46 20 0 23 16 25 36 4z
m-3982 -3 c5 -8 -28 -42 -39 -42 -11 0 -4 39 8 43 19 8 25 8 31 -1z m1320 -1
c10 -16 -5 -41 -25 -41 -13 0 -19 7 -19 23 0 18 2 19 10 7 8 -13 10 -12 10 3
0 18 15 23 24 8z m3896 -11 c0 -5 -2 -10 -4 -10 -3 0 -8 5 -11 10 -3 6 -1 10
4 10 6 0 11 -4 11 -10z m-4636 -26 c3 -8 2 -12 -4 -9 -6 3 -10 10 -10 16 0 14
7 11 14 -7z m799 -17 c-2 -4 -3 -14 -3 -22 0 -8 -9 -15 -20 -15 -22 0 -27 15
-7 23 9 4 8 8 -3 16 -12 9 -10 10 10 8 14 -2 24 -7 23 -10z m417 -2 c0 -8 -6
-15 -12 -15 -9 0 -8 -4 2 -10 12 -8 9 -10 -12 -10 -23 0 -28 4 -28 25 0 20 5
25 25 25 16 0 25 -6 25 -15z m2170 5 c0 -5 -4 -10 -10 -10 -5 0 -10 5 -10 10
0 6 5 10 10 10 6 0 10 -4 10 -10z m1230 0 c0 -5 -4 -10 -10 -10 -5 0 -10 5
-10 10 0 6 5 10 10 10 6 0 10 -4 10 -10z m-2040 -25 c0 -8 5 -15 10 -15 6 0
10 -4 10 -10 0 -5 -9 -10 -20 -10 -15 0 -20 7 -20 25 0 14 5 25 10 25 6 0 10
-7 10 -15z m-1290 -1 c0 -3 -6 -12 -14 -20 -21 -21 -46 -17 -46 6 0 16 7 20
30 20 17 0 30 -3 30 -6z m2050 -4 c-13 -8 -12 -10 3 -10 27 0 21 -13 -29 -58
-47 -42 -74 -46 -74 -10 0 20 42 68 60 68 5 0 10 5 10 10 0 6 10 10 23 10 18
0 19 -2 7 -10z m1249 -7 c23 -19 19 -33 -10 -33 -14 0 -19 7 -19 25 0 30 3 30
29 8z m-5121 -18 c-3 -3 -9 2 -12 12 -6 14 -5 15 5 6 7 -7 10 -15 7 -18z
m-488 3 c0 6 7 12 15 12 8 0 15 -9 15 -20 0 -15 -7 -20 -25 -20 -19 0 -25 5
-25 23 0 18 2 19 10 7 6 -10 10 -11 10 -2z m1120 -7 c0 -27 -30 -35 -46 -14
-20 27 -17 33 16 33 23 0 30 -5 30 -19z m2440 9 c0 -5 -4 -10 -10 -10 -5 0
-10 5 -10 10 0 6 5 10 10 10 6 0 10 -4 10 -10z m2740 -25 c0 -14 -4 -25 -10
-25 -5 0 -10 -11 -10 -25 0 -29 -6 -31 -26 -11 -20 20 -17 36 6 36 24 0 27 15
4 24 -20 8 -9 26 17 26 14 0 19 -7 19 -25z m-4360 -5 c0 -15 -7 -20 -25 -20
-28 0 -30 5 -12 25 18 21 37 18 37 -5z m570 10 c0 -5 -7 -10 -15 -10 -8 0 -15
-4 -15 -10 0 -5 -7 -10 -15 -10 -17 0 -18 2 -9 24 7 17 54 22 54 6z m1002 -12
c-3 -12 -7 -17 -10 -10 -2 7 -9 9 -15 5 -7 -4 -6 1 2 10 19 24 30 21 23 -5z
m-1532 -18 c0 -11 5 -20 11 -20 5 0 8 4 5 9 -4 5 2 8 11 7 12 -2 17 -10 15
-25 -4 -25 13 -28 26 -5 12 22 32 9 25 -16 -5 -21 -53 -30 -53 -10 0 6 -9 10
-20 10 -11 0 -20 5 -20 10 0 6 -9 10 -20 10 -11 0 -20 7 -20 15 0 8 5 15 11
15 5 0 7 5 4 10 -3 6 1 10 9 10 9 0 16 -9 16 -20z m686 6 c20 -20 18 -26 -10
-26 -19 0 -23 4 -19 20 6 24 10 25 29 6z m810 0 c21 -22 17 -36 -11 -36 -20 0
-25 5 -25 25 0 28 14 32 36 11z m-3436 -16 c12 -8 11 -10 -7 -10 -13 0 -23 5
-23 10 0 13 11 13 30 0z m5521 -7 c1 -17 2 -17 6 0 7 27 21 20 15 -8 -3 -16
-11 -25 -23 -25 -10 0 -21 -4 -24 -10 -3 -5 1 -10 9 -10 9 0 16 -7 16 -15 0
-9 -9 -15 -25 -15 -20 0 -25 5 -25 25 0 14 5 25 10 25 6 0 10 11 10 25 0 29
29 36 31 8z m-4999 -53 c-12 -11 -24 -20 -27 -20 -3 0 -5 9 -5 20 0 15 7 20
27 20 l27 0 -22 -20z m2764 6 c20 -20 18 -26 -11 -26 -18 0 -25 5 -25 20 0 23
16 26 36 6z m-70 -20 c20 -20 18 -26 -11 -26 -18 0 -25 5 -25 20 0 23 16 26
36 6z m3004 -6 c0 -11 -2 -20 -5 -20 -3 0 -15 9 -27 20 l-22 20 27 0 c20 0 27
-5 27 -20z m-1250 -26 c0 -29 -10 -30 -33 -4 -21 25 -15 40 13 33 13 -3 20
-14 20 -29z m-4900 1 c0 -18 -5 -25 -20 -25 -23 0 -26 14 -7 35 18 21 27 18
27 -10z m3086 11 c21 -22 17 -36 -11 -36 -20 0 -25 5 -25 25 0 28 14 32 36 11z
m-851 -24 c-3 -3 -11 0 -18 7 -9 10 -8 11 6 5 10 -3 15 -9 12 -12z m760 8 c-3
-5 -1 -10 4 -10 6 0 11 -7 11 -15 0 -10 -10 -15 -30 -15 -25 0 -30 4 -30 25 0
20 5 25 26 25 14 0 23 -4 19 -10z m2425 0 c0 -5 -4 -10 -10 -10 -5 0 -10 5
-10 10 0 6 5 10 10 10 6 0 10 -4 10 -10z m-3046 -19 c12 -19 -7 -41 -35 -41
-16 0 -29 5 -29 10 0 6 5 10 10 10 6 0 10 7 10 15 0 16 35 21 44 6z m466 -11
c26 -26 25 -30 -9 -30 -20 0 -30 6 -34 19 -9 36 13 41 43 11z m-1630 0 c0 -5
-6 -10 -12 -11 -10 0 -10 -2 0 -6 20 -8 14 -22 -8 -16 -38 10 -37 43 1 43 10
0 19 -4 19 -10z m-673 -34 c-21 -21 -27 -20 -27 3 0 21 20 33 34 20 5 -4 2
-14 -7 -23z m4297 28 c15 -6 23 -44 10 -44 -10 0 -34 28 -34 39 0 13 3 13 24
5z m-4784 -23 c0 -20 -25 -35 -41 -25 -14 9 -10 24 7 24 8 0 12 5 9 10 -3 6 1
10 9 10 9 0 16 -8 16 -19z m6050 -16 c0 -30 -3 -30 -29 -8 -23 19 -19 33 10
33 14 0 19 -7 19 -25z m-6010 -45 c0 -11 -2 -20 -4 -20 -2 0 -11 -3 -20 -6
-19 -7 -21 11 -3 31 17 20 27 18 27 -5z m1230 -5 c0 -20 -5 -25 -25 -25 -20 0
-25 5 -25 25 0 20 5 25 25 25 20 0 25 -5 25 -25z m4740 11 c0 -3 -4 -8 -10
-11 -5 -3 -10 -1 -10 4 0 6 5 11 10 11 6 0 10 -2 10 -4z m-2020 -21 c0 -8 7
-15 15 -15 21 0 19 -22 -5 -43 -11 -9 -22 -17 -25 -17 -3 0 -5 20 -5 45 0 25
5 45 10 45 6 0 10 -7 10 -15z m750 -10 c0 -16 -6 -25 -15 -25 -8 0 -15 6 -15
13 0 8 -4 7 -10 -3 -8 -12 -10 -9 -10 13 0 22 4 27 25 27 20 0 25 -5 25 -25z
m526 8 c19 -25 17 -33 -6 -33 -15 0 -20 7 -20 25 0 29 8 32 26 8z m-4641 -49
c20 -24 32 -44 26 -44 -6 0 -11 5 -11 10 0 6 -8 10 -17 10 -15 0 -16 -2 -3
-10 13 -8 12 -10 -3 -10 -23 0 -67 44 -67 67 0 35 37 23 75 -23z m5360 26 c3
-5 1 -10 -4 -10 -6 0 -11 5 -11 10 0 6 2 10 4 10 3 0 8 -4 11 -10z m-4625 -15
c0 -3 -8 -14 -17 -24 -19 -23 -33 -19 -33 10 0 14 7 19 25 19 14 0 25 -2 25
-5z m-1970 -25 c0 -5 -7 -10 -15 -10 -8 0 -15 -4 -15 -10 0 -5 -4 -10 -10 -10
-5 0 -10 9 -10 20 0 15 7 20 25 20 14 0 25 -4 25 -10z m720 -9 c0 -10 -9 -21
-19 -24 -27 -7 -32 1 -18 24 15 24 37 24 37 0z m5116 5 c19 -20 18 -40 -2 -32
-9 3 -18 6 -20 6 -2 0 -4 9 -4 20 0 24 6 25 26 6z m764 -6 c0 -23 -10 -26 -28
-8 -18 18 -15 28 8 28 13 0 20 -7 20 -20z m-4570 -11 c0 -6 -6 -17 -14 -25
-27 -27 -44 -16 -30 20 7 18 44 22 44 5z m3230 -34 c0 -30 -3 -30 -29 -8 -23
19 -19 33 10 33 14 0 19 -7 19 -25z m-610 -5 c0 -5 -8 -14 -17 -19 -17 -10
-16 -11 19 -15 16 -2 22 -26 6 -26 -10 0 -9 -3 2 -10 12 -8 9 -10 -12 -10 -21
0 -28 5 -28 20 0 11 -4 20 -10 20 -5 0 -10 11 -10 25 0 20 5 25 25 25 14 0 25
-4 25 -10z m-4610 -35 c0 -5 -5 -3 -10 5 -5 8 -10 20 -10 25 0 6 5 3 10 -5 5
-8 10 -19 10 -25z m1280 15 c8 -11 19 -20 24 -20 16 0 45 -41 39 -56 -6 -17
-53 -19 -53 -1 0 7 -9 19 -20 27 -12 8 -20 26 -20 42 0 33 10 36 30 8z m4470
8 c0 -9 4 -8 10 2 8 12 10 11 10 -6 0 -23 -16 -34 -37 -27 -18 6 -16 43 2 43
8 0 15 -6 15 -12z m760 -29 c0 -10 -4 -19 -10 -19 -5 0 -10 -11 -10 -25 0 -14
-4 -25 -10 -25 -5 0 -10 -9 -10 -20 0 -24 -6 -25 -26 -6 -21 21 -18 38 6 31
14 -5 20 -2 20 9 0 9 -4 16 -10 16 -5 0 -10 5 -10 10 0 6 9 10 20 10 22 0 27
16 8 22 -6 2 -8 9 -4 16 10 16 36 3 36 -19z m-5770 2 c0 -21 -26 -36 -35 -21
-6 10 14 39 28 40 4 0 7 -9 7 -19z m1340 -1 c0 -11 -4 -20 -10 -20 -5 0 -10 9
-10 20 0 11 5 20 10 20 6 0 10 -9 10 -20z m2020 -20 c0 -24 -6 -25 -26 -6 -19
20 -18 26 6 26 13 0 20 -7 20 -20z m-4060 -20 c0 -4 -9 -6 -21 -3 -15 4 -17 8
-8 14 14 8 29 3 29 -11z m5666 6 c19 -20 18 -40 -2 -32 -9 3 -18 6 -20 6 -2 0
-4 9 -4 20 0 24 6 25 26 6z m-3446 -66 c0 -5 -2 -10 -4 -10 -3 0 -8 5 -11 10
-3 6 -1 10 4 10 6 0 11 -4 11 -10z m1670 -10 c0 -23 -16 -26 -36 -6 -20 20
-18 26 11 26 18 0 25 -5 25 -20z m790 16 c0 -18 -15 -36 -31 -36 -22 0 -24 6
-6 25 11 13 37 21 37 11z m320 -18 c0 -19 -2 -20 -10 -8 -13 19 -13 30 0 30 6
0 10 -10 10 -22z m-2670 -18 c0 -11 -6 -20 -14 -20 -9 0 -12 7 -9 20 3 11 9
20 14 20 5 0 9 -9 9 -20z m2390 13 c0 -5 -5 -15 -10 -23 -8 -12 -10 -11 -10 8
0 12 5 22 10 22 6 0 10 -3 10 -7z m880 -5 c0 -9 4 -8 10 2 8 12 10 12 10 -5 0
-30 -53 -87 -73 -79 -24 9 -21 40 6 69 24 26 47 32 47 13z m-4155 -30 c7 -11
11 -27 8 -34 -6 -16 -43 -19 -43 -4 0 6 -6 10 -14 10 -10 0 -14 10 -14 28 1
25 4 28 25 24 13 -2 30 -13 38 -24z m965 15 c-1 -11 -26 -43 -34 -43 -3 0 -6
11 -6 25 0 18 5 25 20 25 11 0 20 -3 20 -7z m1430 -3 c0 -5 -4 -10 -10 -10 -5
0 -10 5 -10 10 0 6 5 10 10 10 6 0 10 -4 10 -10z m1060 0 c-13 -8 -12 -10 3
-10 9 0 17 -7 17 -15 0 -12 -16 -15 -80 -15 -64 0 -80 3 -80 15 0 8 8 15 18
16 14 0 14 2 -3 9 -13 6 6 9 60 9 55 1 75 -2 65 -9z m-4040 -26 c0 -8 5 -14
10 -14 6 0 10 -13 10 -30 0 -16 -4 -30 -10 -30 -5 0 -10 5 -10 10 0 6 -5 10
-11 10 -11 0 -59 49 -59 61 0 3 16 5 35 6 24 1 35 -3 35 -13z m1620 1 c0 -8
-6 -15 -12 -15 -9 0 -8 -4 2 -10 11 -7 7 -10 -17 -10 -29 0 -33 3 -33 25 0 21
5 25 30 25 20 0 30 -5 30 -15z m1240 -10 c0 -28 -14 -32 -36 -11 -21 22 -17
36 11 36 20 0 25 -5 25 -25z m-1150 -11 c0 -3 -6 -12 -14 -20 -21 -21 -46 -17
-46 6 0 16 7 20 30 20 17 0 30 -3 30 -6z m1070 -14 c0 -23 -25 -27 -46 -6 -21
21 -18 26 16 26 23 0 30 -4 30 -20z m-980 -10 c0 -5 -7 -10 -16 -10 -8 0 -13
-4 -10 -9 7 -10 -19 -23 -28 -14 -3 4 -6 15 -6 25 0 13 8 18 30 18 17 0 30 -4
30 -10z m880 -10 c0 -23 -16 -26 -36 -6 -20 20 -18 26 11 26 18 0 25 -5 25
-20z m-2006 -8 c2 -4 1 -14 -3 -21 -6 -9 -10 -7 -14 8 -5 20 7 29 17 13z
m1236 -2 c0 -5 -6 -10 -14 -10 -8 0 -16 -7 -20 -15 -9 -24 -26 -17 -26 10 0
21 5 25 30 25 17 0 30 -4 30 -10z m660 -10 c0 -23 -16 -26 -36 -6 -20 20 -18
26 11 26 18 0 25 -5 25 -20z m-380 -10 c0 -5 -4 -10 -10 -10 -5 0 -10 -7 -10
-15 0 -11 -12 -15 -44 -15 -59 0 -75 7 -69 31 5 16 14 19 69 19 36 0 64 -4 64
-10z m184 -6 c9 -24 -2 -34 -40 -34 -24 0 -34 5 -34 15 0 8 -4 15 -10 15 -5 0
-10 5 -10 10 0 17 87 12 94 -6z m1162 2 c8 -8 14 -19 14 -25 0 -6 5 -11 10
-11 6 0 10 -18 10 -40 0 -22 -3 -40 -6 -40 -9 0 -34 28 -34 38 0 5 -9 17 -20
27 -23 21 -25 31 -7 50 15 18 16 18 33 1z m1924 -11 c0 -14 -4 -25 -10 -25 -5
0 -10 7 -10 15 0 8 -4 15 -10 15 -5 0 -10 5 -10 10 0 6 9 10 20 10 15 0 20 -7
20 -25z m-4735 -5 c3 -6 -1 -7 -9 -4 -18 7 -21 14 -7 14 6 0 13 -4 16 -10z
m3875 -30 c-17 -5 -19 -8 -7 -9 22 -1 21 -7 -1 -32 -33 -35 -71 0 -39 36 6 8
26 14 42 14 29 -1 29 -1 5 -9z m-5262 -31 c2 -19 1 -21 -7 -9 -7 10 -11 11
-11 3 0 -7 -4 -13 -10 -13 -5 0 -10 8 -10 18 0 40 33 41 38 1z m6050 -22 c2
-43 1 -44 -30 -44 -18 0 -27 2 -20 5 6 2 12 15 12 29 0 18 4 24 15 19 8 -3 14
-2 14 2 -2 12 1 32 4 32 2 0 4 -19 5 -43z m-4506 -9 c9 -23 -3 -38 -28 -38
-26 0 -31 13 -11 35 15 18 33 19 39 3z m2644 -13 c-11 -8 -14 -15 -8 -15 7 0
12 -7 12 -15 0 -9 -9 -15 -25 -15 -20 0 -25 5 -25 24 0 19 6 26 28 29 15 2 29
5 32 5 3 1 -4 -5 -14 -13z m-3266 -49 c0 -19 -4 -22 -25 -18 -16 3 -25 11 -25
23 0 14 7 19 25 19 20 0 25 -5 25 -24z m-795 -33 c29 -33 30 -40 11 -59 -17
-17 -26 -18 -26 -3 0 14 -25 39 -39 39 -15 0 -14 37 2 43 22 10 28 7 52 -20z
m3935 -3 c0 -11 -4 -20 -10 -20 -5 0 -10 9 -10 20 0 11 5 20 10 20 6 0 10 -9
10 -20z m-40 -10 c-13 -8 -12 -10 3 -10 9 0 17 -4 17 -10 0 -5 -13 -10 -30
-10 -23 0 -30 4 -30 20 0 15 7 20 28 20 21 0 24 -2 12 -10z m-2990 -25 c0 -8
-6 -15 -12 -15 -9 0 -8 -4 2 -10 12 -8 9 -10 -12 -10 -23 0 -28 4 -28 25 0 20
5 25 25 25 16 0 25 -6 25 -15z m4060 -19 c0 -8 5 -16 12 -18 6 -2 8 -9 4 -16
-11 -18 -36 -2 -36 24 0 13 5 24 10 24 6 0 10 -6 10 -14z m830 -26 c0 -5 -9
-10 -20 -10 -11 0 -20 5 -20 10 0 6 9 10 20 10 11 0 20 -4 20 -10z m-4820 -42
c0 -5 -4 -8 -10 -8 -5 0 -10 10 -10 23 0 18 2 19 10 7 5 -8 10 -18 10 -22z
m830 12 c0 -13 -7 -20 -20 -20 -23 0 -25 5 -7 25 17 20 27 18 27 -5z m1846
-14 c20 -20 18 -26 -11 -26 -18 0 -25 5 -25 20 0 23 16 26 36 6z m-2596 -22
c0 -8 -4 -12 -10 -9 -5 3 -10 -1 -10 -9 0 -17 -15 -21 -24 -7 -4 5 -3 16 0 25
8 21 44 21 44 0z m882 10 c3 -3 4 -14 1 -25 -6 -22 -43 -26 -43 -4 0 8 6 15
13 15 8 0 7 4 -3 10 -12 8 -11 10 6 10 11 0 23 -3 26 -6z m3798 -40 c0 -21 -5
-24 -35 -24 -19 0 -35 5 -35 10 0 6 5 10 10 10 6 0 10 6 10 14 0 8 6 16 13 19
22 7 37 -4 37 -29z m-3730 1 c0 -20 -5 -25 -25 -25 -30 0 -31 4 -7 29 24 26
32 25 32 -4z m1490 -5 c0 -11 -4 -20 -10 -20 -5 0 -10 9 -10 20 0 11 5 20 10
20 6 0 10 -9 10 -20z m-51 -20 c6 0 11 -4 11 -10 0 -16 -47 -11 -54 6 -9 24 5
40 19 21 7 -10 17 -17 24 -17z m-2319 10 c0 -5 -6 -10 -12 -10 -10 0 -10 -2 0
-9 11 -6 9 -9 -7 -14 -24 -6 -31 0 -31 25 0 13 7 18 25 18 14 0 25 -4 25 -10z
m1050 -30 c0 -11 -4 -20 -10 -20 -5 0 -10 9 -10 20 0 11 5 20 10 20 6 0 10 -9
10 -20z m1176 6 c20 -20 18 -26 -10 -26 -23 0 -41 22 -29 34 10 10 24 7 39 -8z
m974 -6 c0 -24 -6 -25 -26 -6 -19 20 -18 26 6 26 13 0 20 -7 20 -20z m-2040
-20 c0 -16 -7 -20 -30 -20 -33 0 -36 4 -17 25 18 21 47 18 47 -5z m956 6 c20
-20 18 -26 -11 -26 -14 0 -25 2 -25 4 0 2 -3 11 -6 20 -8 20 22 22 42 2z
m-824 -12 c3 -3 4 -14 1 -25 -7 -24 -63 -28 -63 -4 0 8 6 15 13 15 8 0 7 4 -3
10 -11 7 -8 10 16 10 17 0 33 -3 36 -6z m678 -4 c0 -5 7 -10 15 -10 8 0 15 -7
15 -15 0 -24 -56 -20 -63 4 -3 11 -2 22 1 25 9 10 32 7 32 -4z m1173 -3 c7
-19 -4 -33 -33 -40 -24 -6 -24 -5 -6 8 17 13 18 15 3 15 -9 0 -17 7 -17 15 0
19 46 20 53 2z m717 -3 c0 -8 -4 -12 -10 -9 -5 3 -10 -1 -10 -9 0 -9 -4 -16
-10 -16 -5 0 -10 11 -10 25 0 18 5 25 20 25 11 0 20 -7 20 -16z m-3730 -19 c0
-8 -6 -15 -12 -15 -9 0 -8 -4 2 -10 12 -8 9 -10 -11 -10 -30 0 -44 21 -26 39
16 16 47 14 47 -4z m1607 -4 c7 -9 13 -19 13 -23 0 -5 -67 -8 -150 -8 -93 0
-150 4 -150 10 0 6 5 10 10 10 6 0 10 7 10 15 0 23 249 19 267 -4z m-2553 -26
c8 -9 13 -22 10 -30 -8 -19 -41 -19 -60 0 -13 12 -13 17 -2 29 17 20 33 20 52
1z m5280 -1 c9 -3 16 -15 16 -25 0 -15 -7 -19 -34 -19 -33 0 -34 1 -23 25 13
27 17 28 41 19z m-4224 -45 c0 -11 -4 -17 -10 -14 -5 3 -10 1 -10 -4 0 -6 -7
-11 -15 -11 -9 0 -15 9 -15 25 0 20 5 25 25 25 19 0 25 -5 25 -21z m70 -34 c0
-8 -7 -15 -15 -15 -8 0 -15 -5 -15 -11 0 -5 -4 -8 -9 -5 -5 3 -7 15 -4 26 6
23 43 27 43 5z m40 -25 c0 -5 9 -10 20 -10 24 0 25 -6 6 -26 -20 -19 -26 -18
-26 6 0 22 -16 27 -23 8 -3 -9 -10 -8 -23 6 -11 10 -13 16 -6 12 6 -4 12 -2
12 3 0 6 9 11 20 11 11 0 20 -4 20 -10z m2550 -10 c0 -14 -7 -20 -21 -20 -11
0 -17 5 -14 10 3 6 1 10 -4 10 -6 0 -11 5 -11 10 0 6 11 10 25 10 18 0 25 -5
25 -20z m1440 -7 c0 -15 2 -16 10 -3 5 8 10 12 10 8 0 -3 3 -13 6 -22 5 -12 0
-16 -20 -16 -14 0 -26 -4 -26 -10 0 -5 -9 -10 -19 -10 -22 0 -35 26 -19 36 7
4 14 2 16 -4 7 -22 22 -13 22 13 0 14 5 25 10 25 6 0 10 -8 10 -17z m-5008
-16 c23 -8 12 -37 -13 -37 -15 0 -19 7 -19 33 0 17 4 27 8 21 4 -6 15 -13 24
-17z m3446 -56 c-15 -5 -19 4 -11 24 6 18 7 18 13 -1 4 -10 3 -21 -2 -23z
m1332 14 c0 -20 -5 -25 -25 -25 -16 0 -25 6 -25 15 0 8 6 15 13 15 8 0 7 4 -3
10 -12 8 -9 10 13 10 22 0 27 -4 27 -25z m135 15 c-17 -7 -17 -9 -2 -9 9 -1
17 -8 17 -16 0 -11 -11 -15 -39 -15 -30 0 -40 4 -44 19 -7 27 0 31 47 30 32 0
37 -2 21 -9z m-1502 -30 c5 -20 -18 -36 -78 -54 -20 -6 -20 -6 -1 9 17 13 18
15 3 15 -9 0 -17 5 -17 11 0 8 13 10 38 6 20 -3 31 -3 25 0 -20 7 -15 33 6 33
10 0 21 -9 24 -20z m-3287 -48 c1 -17 -4 -22 -22 -22 -18 0 -24 5 -24 23 0 18
2 19 10 7 8 -13 10 -12 10 3 0 26 25 15 26 -11z m1244 -32 c0 -5 11 -10 25
-10 16 0 25 -6 25 -15 0 -8 -7 -15 -15 -15 -8 0 -15 -4 -15 -10 0 -5 -4 -10
-10 -10 -5 0 -10 9 -10 19 0 11 -4 23 -10 26 -5 3 -10 -1 -10 -9 0 -9 -7 -16
-15 -16 -9 0 -15 9 -15 25 0 20 5 25 25 25 14 0 25 -4 25 -10z m90 -46 c0 -3
-7 -12 -16 -21 -14 -14 -17 -14 -32 2 -9 10 -11 15 -4 11 6 -4 12 -2 12 3 0 6
9 11 20 11 11 0 20 -3 20 -6z m2787 -44 c0 -25 -4 -30 -24 -30 -20 0 -24 5
-21 23 2 15 9 21 22 19 11 -2 15 1 11 7 -3 6 -2 11 3 11 5 0 9 -13 9 -30z
m-1177 -15 c0 -30 -10 -32 -33 -5 -22 27 -22 30 8 30 20 0 25 -5 25 -25z
m-1460 0 c0 -11 -34 -44 -41 -39 -14 8 4 44 22 44 11 0 19 -2 19 -5z m-1245
-25 c3 -6 -1 -7 -9 -4 -18 7 -21 14 -7 14 6 0 13 -4 16 -10z m1265 -10 c0 -11
-4 -20 -9 -20 -5 0 -7 9 -4 20 3 11 7 20 9 20 2 0 4 -9 4 -20z m1380 10 c0 -5
-2 -10 -4 -10 -3 0 -8 5 -11 10 -3 6 -1 10 4 10 6 0 11 -4 11 -10z m-1290 -26
c0 -10 -28 -34 -39 -34 -6 0 -11 9 -11 20 0 15 7 20 25 20 14 0 25 -3 25 -6z
m1250 2 c0 -2 -7 -7 -16 -10 -8 -3 -12 -2 -9 4 6 10 25 14 25 6z m-100 -36 c0
-23 -16 -26 -36 -6 -20 20 -18 26 11 26 18 0 25 -5 25 -20z m-1125 -10 c3 -5
1 -10 -4 -10 -6 0 -11 5 -11 10 0 6 2 10 4 10 3 0 8 -4 11 -10z m2331 -4 c19
-19 18 -26 -5 -26 -19 0 -35 23 -24 34 9 9 13 8 29 -8z m-2226 -40 c-14 -14
-22 -2 -14 18 5 14 9 15 15 4 4 -7 4 -17 -1 -22z m2166 9 c-17 -13 -18 -15 -3
-15 9 0 17 -7 17 -15 0 -9 -9 -15 -25 -15 -14 0 -25 -4 -25 -10 0 -5 -9 -10
-20 -10 -15 0 -20 7 -20 28 1 24 2 25 14 10 18 -24 26 -22 26 6 0 18 7 26 23
29 12 2 24 5 27 5 3 1 -4 -5 -14 -13z m-2076 -6 c0 -11 -24 -39 -34 -39 -3 0
-6 11 -6 25 0 18 5 25 20 25 11 0 20 -5 20 -11z m805 1 c3 -5 1 -10 -4 -10 -6
0 -11 5 -11 10 0 6 2 10 4 10 3 0 8 -4 11 -10z m-2115 -55 c0 -14 5 -25 10
-25 6 0 10 5 10 10 0 6 5 10 10 10 6 0 10 -9 10 -20 0 -11 5 -20 10 -20 6 0
10 5 10 10 0 6 5 10 10 10 6 0 10 -9 10 -20 0 -13 -7 -20 -20 -20 -11 0 -20 5
-20 10 0 6 -9 10 -20 10 -11 0 -20 5 -20 10 0 6 -11 10 -25 10 -30 0 -30 3 -8
30 23 27 33 25 33 -5z m1400 -5 c0 -11 -4 -20 -10 -20 -5 0 -10 9 -10 20 0 11
5 20 10 20 6 0 10 -9 10 -20z m70 -32 c0 -5 -7 -8 -15 -8 -17 0 -18 2 -9 25 5
13 8 14 15 3 5 -7 9 -16 9 -20z m420 12 c0 -23 -16 -26 -36 -6 -20 20 -18 26
11 26 18 0 25 -5 25 -20z m1373 0 c-3 -11 -7 -20 -9 -20 -2 0 -4 9 -4 20 0 11
4 20 9 20 5 0 7 -9 4 -20z m-1443 -25 c0 -30 -4 -31 -30 -5 -26 26 -25 30 5
30 20 0 25 -5 25 -25z m-290 -5 c0 -5 -4 -10 -10 -10 -5 0 -10 5 -10 10 0 6 5
10 10 10 6 0 10 -4 10 -10z m220 -10 c0 -24 -6 -25 -26 -6 -19 20 -18 26 6 26
13 0 20 -7 20 -20z m1408 -26 c-11 -23 -13 -24 -19 -7 -5 16 2 24 28 32 2 1
-3 -11 -9 -25z m-2958 -19 c0 -14 5 -25 11 -25 5 0 8 4 5 9 -3 5 0 11 8 14 14
6 29 -26 18 -37 -9 -10 -52 -6 -52 4 0 6 -9 10 -20 10 -24 0 -25 4 -3 30 23
27 33 25 33 -5z m90 -35 c0 -5 9 -10 20 -10 15 0 20 -7 20 -25 0 -20 -5 -25
-25 -25 -16 0 -25 6 -25 15 0 8 -9 15 -20 15 -23 0 -25 5 -7 25 14 17 37 20
37 5z m2673 -44 c23 -18 22 -36 -3 -36 -11 0 -20 -4 -20 -10 0 -5 -11 -10 -25
-10 -20 0 -25 5 -25 25 0 14 5 25 10 25 6 0 10 -7 10 -15 0 -8 5 -15 10 -15 6
0 10 11 10 25 0 28 7 30 33 11z m-2503 -56 c0 -15 -7 -20 -25 -20 -28 0 -30 5
-12 25 18 21 37 18 37 -5z m2410 10 c0 -5 -4 -10 -10 -10 -5 0 -10 5 -10 10 0
6 5 10 10 10 6 0 10 -4 10 -10z m-90 -60 c0 -11 -2 -20 -4 -20 -2 0 -6 9 -9
20 -3 11 -1 20 4 20 5 0 9 -9 9 -20z m-34 -4 c21 -22 17 -36 -11 -36 -20 0
-25 5 -25 25 0 28 14 32 36 11z m-2093 -36 c-3 -11 -14 -20 -24 -20 -22 0 -24
6 -6 25 18 21 36 18 30 -5z m134 -40 c16 0 23 -6 23 -20 0 -11 5 -20 10 -20 6
0 10 5 10 10 0 6 7 10 15 10 9 0 15 -9 15 -25 0 -20 -5 -25 -25 -25 -14 0 -25
5 -25 10 0 6 -11 10 -25 10 -29 0 -36 30 -7 31 11 0 7 4 -10 11 -16 5 -28 15
-28 21 0 8 4 7 12 -1 7 -7 22 -12 35 -12z m1798 10 c-3 -5 1 -10 9 -10 9 0 16
-4 16 -10 0 -5 -11 -10 -25 -10 -18 0 -25 5 -25 20 0 11 7 20 16 20 8 0 12 -4
9 -10z m-135 -95 c0 -3 -11 -5 -25 -5 -18 0 -25 5 -25 18 0 29 12 34 32 12 10
-10 18 -22 18 -25z m-1490 4 c0 -7 10 -9 25 -7 14 3 28 2 30 -2 10 -17 -8 -40
-31 -40 -25 0 -33 15 -11 23 6 3 -3 3 -20 0 -35 -6 -40 0 -20 22 15 17 27 19
27 4z m1366 -23 c19 -20 18 -26 -6 -26 -13 0 -20 7 -20 20 0 24 6 25 26 6z
m-1123 -76 c-3 -11 -14 -20 -24 -20 -22 0 -24 6 -6 25 18 21 36 18 30 -5z
m947 10 c0 -5 -4 -10 -10 -10 -5 0 -10 5 -10 10 0 6 5 10 10 10 6 0 10 -4 10
-10z m-70 -30 c0 -11 -4 -20 -10 -20 -5 0 -10 9 -10 20 0 11 5 20 10 20 6 0
10 -9 10 -20z m-760 -20 c0 -15 -7 -20 -25 -20 -28 0 -30 5 -12 25 18 21 37
18 37 -5z m60 -25 c0 -20 -5 -25 -25 -25 -16 0 -25 6 -25 15 0 8 7 15 16 15 8
0 12 5 9 10 -3 6 1 10 9 10 10 0 16 -9 16 -25z m596 11 c21 -22 17 -36 -11
-36 -20 0 -25 5 -25 25 0 28 14 32 36 11z m-533 -19 c-2 -4 -3 -14 -3 -22 0
-8 -9 -15 -20 -15 -11 0 -20 7 -20 15 0 8 5 15 11 15 5 0 8 4 5 9 -4 5 2 8 11
7 10 -2 17 -6 16 -9z m457 -17 c0 -11 -2 -20 -4 -20 -2 0 -6 9 -9 20 -3 11 -1
20 4 20 5 0 9 -9 9 -20z m-387 -20 c-3 -11 -14 -20 -24 -20 -22 0 -24 6 -6 25
18 21 36 18 30 -5z m333 6 c19 -19 18 -26 -5 -26 -10 0 -21 9 -24 20 -6 23 8
26 29 6z"/>
<path d="M2720 4670 c-9 -6 -10 -10 -3 -10 6 0 15 5 18 10 8 12 4 12 -15 0z"/>
<path d="M2420 2831 c0 -10 19 -25 25 -20 1 2 -3 10 -11 17 -8 7 -14 8 -14 3z"/>
</g>
</svg>
