<?xml version="1.0" standalone="no"?>
<!DOCTYPE svg PUBLIC "-//W3C//DTD SVG 20010904//EN"
 "http://www.w3.org/TR/2001/REC-SVG-20010904/DTD/svg10.dtd">
<svg version="1.0" xmlns="http://www.w3.org/2000/svg"
 width="746.000000pt" height="768.000000pt" viewBox="0 0 746.000000 768.000000"
 preserveAspectRatio="xMidYMid meet">
<metadata>
Created by potrace 1.16, written by Peter Selinger 2001-2019
</metadata>
<g transform="translate(0.000000,768.000000) scale(0.100000,-0.100000)"
fill="#ffffff" stroke="none">
<path d="M3190 7666 c0 -23 -22 -31 -35 -13 -8 11 -26 17 -49 17 -29 0 -36 -4
-36 -19 0 -26 -18 -37 -26 -17 -4 11 -19 16 -50 16 -40 0 -44 -2 -44 -25 0
-29 -23 -34 -46 -10 -25 24 -54 19 -54 -10 0 -16 -6 -25 -15 -25 -8 0 -15 5
-15 10 0 6 -11 10 -25 10 -18 0 -25 -5 -25 -19 0 -27 -15 -34 -33 -16 -17 17
-97 21 -97 5 0 -5 -7 -10 -15 -10 -9 0 -15 -9 -15 -25 0 -16 -6 -25 -15 -25
-8 0 -15 7 -15 15 0 10 -11 15 -35 15 -19 0 -35 -4 -35 -10 0 -5 -13 -10 -30
-10 -20 0 -30 -5 -30 -15 0 -10 -11 -15 -35 -15 -31 0 -36 -3 -42 -30 -7 -36
-21 -48 -29 -26 -4 10 -18 16 -39 16 -34 0 -45 -13 -45 -51 0 -10 -7 -19 -15
-19 -8 0 -15 5 -15 10 0 6 -4 10 -10 10 -5 0 -10 -9 -10 -20 0 -14 -7 -20 -24
-20 -13 0 -27 -6 -30 -12 -5 -10 -7 -10 -12 0 -3 6 -21 12 -40 12 -31 0 -34
-3 -34 -30 0 -30 -14 -41 -23 -17 -3 6 -6 2 -6 -10 -1 -29 -18 -38 -37 -19
-20 20 -44 21 -44 1 0 -10 -10 -15 -31 -15 -28 0 -30 -2 -27 -32 2 -18 -2 -33
-9 -35 -7 -3 -13 3 -13 14 -1 15 -3 13 -16 -7 -14 -23 -14 -23 -9 -2 5 16 2
22 -9 22 -9 0 -16 -4 -16 -10 0 -5 -7 -10 -16 -10 -18 0 -44 -23 -44 -39 0 -6
-11 -11 -25 -11 -22 0 -24 -3 -19 -29 6 -31 -12 -53 -22 -27 -3 9 -15 16 -26
16 -16 0 -19 -5 -16 -24 8 -39 -6 -52 -33 -32 -32 22 -42 20 -37 -8 6 -28 -10
-60 -19 -38 -6 16 -41 15 -59 -2 -8 -8 -14 -26 -14 -40 0 -14 -4 -26 -10 -26
-5 0 -10 9 -10 20 0 11 -3 20 -6 20 -10 0 -34 -28 -34 -39 0 -6 -4 -11 -10
-11 -5 0 -10 -13 -10 -28 0 -16 -3 -31 -6 -34 -8 -9 -44 3 -38 13 13 22 -21 6
-46 -21 -15 -16 -33 -30 -39 -30 -6 0 -11 -16 -11 -35 0 -19 -4 -35 -10 -35
-5 0 -10 5 -10 10 0 18 -35 11 -50 -10 -8 -11 -18 -20 -23 -20 -10 0 -37 -26
-37 -36 0 -3 -10 -15 -21 -25 -15 -13 -20 -25 -16 -40 8 -31 -51 -90 -82 -82
-15 4 -27 -1 -40 -16 -10 -11 -22 -21 -25 -21 -9 0 -36 -26 -36 -35 0 -8 -67
-75 -75 -75 -10 0 -35 -28 -35 -39 0 -6 10 -11 23 -12 21 -1 21 -1 -3 -9 -17
-5 -19 -8 -7 -9 30 -2 18 -21 -13 -21 -36 0 -80 -39 -80 -70 0 -11 -5 -20 -10
-20 -18 0 -60 -48 -60 -67 0 -10 -9 -25 -20 -33 -11 -8 -20 -22 -20 -32 0 -10
-5 -18 -11 -18 -14 0 -39 -25 -39 -39 0 -6 6 -11 13 -11 8 0 7 -4 -3 -10 -13
-8 -12 -10 3 -10 11 0 17 -6 14 -12 -2 -8 -17 -12 -35 -10 -28 3 -32 0 -31
-20 0 -13 3 -17 6 -10 9 22 20 12 15 -14 -4 -23 -8 -25 -38 -19 -31 5 -34 4
-34 -20 0 -14 -4 -25 -10 -25 -16 0 -12 -37 5 -44 31 -11 16 -29 -20 -23 -32
5 -35 4 -35 -19 0 -13 -4 -24 -10 -24 -5 0 -10 -9 -10 -20 0 -11 -7 -20 -15
-20 -9 0 -15 -9 -15 -25 0 -14 -4 -25 -10 -25 -5 0 -10 -9 -10 -20 0 -11 -4
-20 -10 -20 -5 0 -10 -9 -10 -20 0 -11 -4 -20 -10 -20 -5 0 -10 -11 -10 -25 0
-14 -4 -25 -10 -25 -5 0 -10 -9 -10 -20 0 -11 -7 -20 -15 -20 -8 0 -15 -7 -15
-16 0 -9 7 -14 18 -12 11 2 19 -1 19 -7 0 -5 -8 -9 -18 -7 -14 2 -17 -1 -13
-12 3 -9 10 -16 15 -16 5 0 9 -7 9 -15 0 -9 -9 -15 -25 -15 -16 0 -25 -6 -25
-15 0 -8 5 -15 10 -15 6 0 10 -7 10 -15 0 -8 -7 -15 -16 -15 -8 0 -22 -6 -30
-14 -16 -17 -19 -66 -4 -66 6 0 10 -7 10 -15 0 -8 -9 -15 -20 -15 -11 0 -20
-4 -20 -10 0 -5 -7 -10 -15 -10 -10 0 -15 -10 -15 -30 0 -16 -4 -30 -10 -30
-5 0 -10 -16 -10 -35 0 -19 -4 -35 -10 -35 -17 0 -12 -87 6 -94 20 -8 9 -26
-17 -26 -14 0 -19 -7 -19 -25 0 -14 5 -25 10 -25 6 0 10 -7 10 -15 0 -8 -9
-15 -20 -15 -16 0 -20 -7 -20 -30 0 -16 5 -30 10 -30 6 0 10 -9 10 -20 0 -15
-7 -20 -25 -20 -18 0 -25 -5 -25 -19 0 -26 11 -52 19 -47 4 3 8 -4 8 -15 1
-14 -5 -19 -23 -19 -21 0 -24 -4 -24 -36 0 -23 6 -41 17 -49 21 -15 8 -38 -18
-30 -17 6 -19 1 -19 -50 0 -37 5 -62 15 -72 17 -17 11 -33 -11 -33 -13 0 -15
-14 -10 -87 3 -49 5 -96 4 -105 -2 -47 -2 -527 0 -558 1 -19 -1 -68 -4 -107
-5 -61 -3 -73 10 -73 23 0 31 -22 13 -35 -12 -8 -17 -27 -17 -60 0 -43 2 -47
21 -42 26 7 38 -21 16 -38 -13 -9 -17 -28 -17 -74 0 -34 4 -61 10 -61 6 0 10
-20 10 -45 0 -33 4 -45 15 -45 10 0 15 -10 15 -31 0 -26 3 -29 20 -24 14 5 20
2 20 -9 0 -9 -4 -16 -10 -16 -5 0 -10 -13 -10 -30 0 -23 4 -30 20 -30 11 0 20
-7 20 -15 0 -8 -4 -15 -10 -15 -5 0 -10 -11 -10 -25 0 -18 5 -25 20 -25 11 0
20 -5 20 -11 0 -6 -9 -8 -20 -4 -14 5 -20 2 -20 -9 0 -9 5 -16 10 -16 6 0 10
-7 10 -16 0 -12 6 -15 21 -11 13 3 19 1 16 -6 -2 -7 -11 -11 -21 -9 -9 2 -16
0 -16 -3 0 -14 30 -35 49 -35 15 0 21 -6 21 -23 0 -13 5 -28 12 -35 7 -7 8
-12 2 -12 -6 0 -16 10 -22 23 -10 21 -11 21 -11 -6 -1 -33 19 -57 48 -57 24 0
28 -18 6 -26 -17 -7 -21 -64 -5 -64 6 0 10 -16 10 -35 0 -19 5 -35 10 -35 6 0
10 -9 10 -20 0 -11 7 -20 15 -20 9 0 15 -9 15 -25 0 -14 5 -25 10 -25 6 0 10
-9 10 -20 0 -11 5 -20 10 -20 6 0 10 -11 10 -25 0 -14 5 -25 10 -25 6 0 10 -9
10 -20 0 -11 5 -20 10 -20 6 0 10 -9 10 -20 0 -11 7 -20 15 -20 9 0 15 -9 15
-25 0 -14 5 -25 10 -25 6 0 10 -9 10 -20 0 -16 7 -20 35 -20 19 0 35 -4 35
-10 0 -5 -7 -10 -15 -10 -9 0 -15 -9 -15 -25 0 -14 5 -25 10 -25 6 0 10 -9 10
-20 0 -11 6 -20 14 -20 8 0 16 -5 18 -12 2 -6 15 -12 28 -13 13 -1 25 -6 27
-12 3 -7 -4 -9 -16 -6 -27 7 -28 -18 -1 -37 11 -8 20 -20 20 -28 0 -16 24 -42
39 -42 6 0 11 -10 11 -23 0 -12 9 -29 20 -37 11 -8 20 -22 20 -32 0 -10 5 -18
10 -18 6 0 10 -5 10 -11 0 -20 30 -40 57 -37 23 3 28 -1 31 -22 2 -20 1 -22
-7 -10 -9 12 -11 11 -11 -7 0 -13 5 -23 10 -23 6 0 10 -5 10 -10 0 -6 11 -22
26 -36 19 -19 31 -24 50 -20 19 5 30 0 49 -21 25 -29 32 -53 15 -53 -18 0 -10
-31 15 -55 13 -14 27 -25 30 -25 8 0 35 -27 35 -35 0 -8 67 -75 75 -75 8 0 35
-27 35 -35 0 -4 6 -13 14 -21 17 -16 46 -19 46 -4 0 15 26 12 43 -4 8 -9 12
-26 10 -40 -3 -16 -1 -26 6 -26 6 0 11 -5 11 -10 0 -14 46 -60 60 -60 5 0 10
-4 10 -10 0 -5 5 -10 10 -10 6 0 10 10 10 23 0 12 4 17 8 11 4 -6 14 -13 23
-16 11 -5 15 -14 12 -32 -5 -25 15 -56 35 -56 6 0 13 -6 15 -12 4 -10 8 -10
15 1 8 11 10 11 15 0 4 -10 6 -8 6 4 1 10 7 17 14 14 7 -2 11 -18 10 -35 -1
-18 2 -32 8 -32 5 0 9 -7 9 -15 0 -9 9 -15 23 -15 12 0 29 -9 37 -20 8 -11 21
-20 30 -20 9 0 22 -9 30 -20 8 -11 25 -20 37 -20 13 0 23 -5 23 -11 0 -16 26
-39 44 -39 9 0 16 -4 16 -10 0 -5 7 -10 15 -10 8 0 15 -4 15 -10 0 -5 8 -10
18 -10 10 0 24 -9 32 -20 8 -11 25 -20 37 -20 14 0 23 -6 23 -15 0 -8 9 -15
20 -15 11 0 20 -4 20 -10 0 -16 37 -12 44 5 9 24 26 17 26 -10 0 -14 5 -25 10
-25 6 0 10 5 10 10 0 6 5 10 10 10 6 0 10 -9 10 -20 0 -11 5 -20 10 -20 6 0
10 5 10 10 0 6 5 10 10 10 6 0 10 -16 10 -35 0 -31 3 -35 25 -35 14 0 25 -4
25 -10 0 -16 37 -12 44 5 9 24 26 17 26 -10 0 -14 5 -25 11 -25 5 0 8 4 5 9
-3 5 1 11 9 15 13 5 20 -10 16 -36 0 -5 3 -8 9 -8 5 0 10 5 10 10 0 6 7 10 15
10 8 0 15 -4 15 -10 0 -5 9 -10 20 -10 14 0 20 -7 20 -21 0 -24 22 -49 44 -49
9 0 16 -4 16 -10 0 -5 9 -10 20 -10 11 0 20 5 20 10 0 6 7 10 15 10 8 0 15 -7
15 -16 0 -20 24 -44 44 -44 9 0 16 -7 16 -15 0 -9 9 -15 25 -15 14 0 25 -4 25
-10 0 -5 14 -10 30 -10 17 0 30 5 30 10 0 6 6 10 14 10 9 0 12 -7 9 -20 -4
-14 0 -20 11 -20 9 0 16 -4 16 -10 0 -5 9 -10 20 -10 11 0 20 -4 20 -10 0 -5
17 -10 38 -9 36 1 37 1 10 11 -16 5 -28 15 -28 21 0 8 4 7 12 -1 7 -7 22 -12
35 -12 16 0 23 -6 23 -20 0 -11 5 -20 10 -20 6 0 10 5 10 10 0 6 7 10 15 10 8
0 15 -9 15 -19 0 -38 11 -51 45 -51 18 0 36 6 38 13 4 9 8 9 15 -1 5 -8 20
-12 33 -10 20 2 24 -1 22 -19 -2 -17 2 -23 17 -23 11 0 20 -7 20 -15 0 -10 10
-15 30 -15 17 0 30 -4 30 -10 0 -5 16 -10 35 -10 19 0 35 5 35 10 0 6 7 10 15
10 9 0 12 -6 9 -15 -3 -8 1 -21 9 -30 17 -17 77 -21 77 -5 0 6 7 10 15 10 8 0
15 -9 15 -20 0 -14 7 -20 21 -20 11 0 17 5 14 10 -3 6 1 10 9 10 11 0 16 -9
16 -26 0 -20 4 -25 16 -20 9 3 18 6 20 6 3 0 3 4 0 9 -4 5 2 8 11 7 12 -2 17
-10 15 -25 -3 -17 2 -21 22 -21 14 0 26 5 26 10 0 6 6 10 14 10 9 0 12 -7 9
-19 -4 -14 3 -20 27 -25 48 -9 95 -7 106 4 8 8 19 7 37 -1 16 -7 45 -9 82 -4
50 6 56 9 52 26 -3 12 0 19 9 19 8 0 14 -4 14 -10 0 -5 12 -10 26 -10 21 0 25
4 21 20 -3 11 -1 20 4 20 5 0 9 -9 9 -20 0 -11 6 -20 14 -20 15 0 26 21 26 51
0 10 7 19 15 19 8 0 15 -4 15 -10 0 -15 60 -12 76 4 8 8 14 22 14 30 0 9 5 16
10 16 6 0 10 -9 10 -20 0 -11 5 -20 10 -20 6 0 10 5 10 10 0 6 16 10 35 10 19
0 35 5 35 10 0 6 9 10 20 10 11 0 20 5 20 10 0 6 16 10 35 10 24 0 35 5 35 15
0 8 5 15 10 15 6 0 10 9 10 20 0 11 5 20 10 20 6 0 10 -4 10 -10 0 -5 16 -10
35 -10 31 0 36 3 42 30 7 36 21 48 29 26 7 -18 74 -23 74 -6 0 6 9 10 20 10
11 0 20 7 20 15 0 8 5 15 10 15 6 0 10 9 10 20 0 11 7 20 16 20 8 0 12 -5 9
-10 -4 -6 8 -10 29 -10 20 0 36 5 36 10 0 6 7 10 16 10 22 0 44 25 44 49 0 25
15 27 36 6 9 -8 24 -15 35 -15 10 0 19 7 19 15 0 8 7 15 15 15 8 0 15 5 15 10
0 6 14 10 30 10 28 0 30 3 30 35 0 19 5 35 10 35 6 0 10 -7 10 -15 0 -8 5 -15
10 -15 6 0 10 11 10 25 0 29 7 30 34 10 25 -19 36 -19 36 0 0 9 9 15 25 15 14
0 25 5 25 10 0 6 9 10 20 10 11 0 20 5 20 10 0 6 9 10 19 10 20 0 37 32 27 49
-3 5 3 11 14 14 16 4 18 2 10 -13 -13 -24 -13 -30 1 -30 14 0 39 25 39 39 0 6
9 11 20 11 15 0 22 9 27 30 3 17 9 30 13 30 5 0 6 -9 3 -20 -3 -12 0 -20 7
-20 21 0 40 28 40 62 1 30 2 31 14 16 18 -24 26 -22 26 6 0 18 7 25 27 29 26
5 26 4 8 -9 -18 -13 -17 -14 9 -14 24 0 27 3 24 27 -2 15 2 28 10 30 6 3 12 0
12 -6 0 -6 9 -11 20 -11 11 0 20 5 20 10 0 6 7 10 15 10 8 0 15 5 15 10 0 6 7
10 16 10 24 0 42 24 46 61 2 27 7 33 22 31 11 -2 15 1 11 7 -3 6 -1 11 5 11 7
0 9 -8 5 -20 -10 -30 11 -24 50 15 42 41 49 100 15 125 -11 8 -20 18 -20 23 0
9 -46 57 -55 57 -8 0 -55 47 -55 55 0 8 -47 55 -55 55 -8 0 -55 47 -55 55 0 9
-48 55 -57 55 -5 0 -15 9 -23 20 -11 16 -26 20 -67 20 -52 0 -53 0 -53 -30 0
-16 -4 -30 -10 -30 -5 0 -10 5 -10 10 0 6 -9 10 -21 10 -15 0 -20 -6 -19 -22
4 -40 1 -46 -27 -51 -26 -5 -26 -4 -8 9 10 8 14 14 8 14 -6 0 -18 3 -27 6 -11
4 -16 1 -16 -10 0 -9 -8 -16 -18 -16 -10 0 -24 -9 -32 -20 -8 -11 -24 -20 -35
-20 -11 0 -27 -9 -35 -20 -8 -11 -22 -20 -32 -20 -14 0 -18 -8 -18 -35 0 -29
-4 -35 -21 -35 -11 0 -17 5 -14 10 3 6 -3 10 -14 10 -12 0 -21 -4 -21 -10 0
-5 -9 -10 -19 -10 -20 0 -37 -32 -26 -50 3 -5 -1 -10 -10 -10 -12 0 -15 6 -10
20 5 15 2 20 -10 20 -13 0 -16 -7 -13 -30 5 -31 -10 -44 -77 -64 -20 -6 -20
-6 -1 9 19 14 19 15 -7 15 -15 0 -27 -4 -27 -10 0 -5 -9 -10 -20 -10 -11 0
-20 -4 -20 -10 0 -5 -11 -10 -25 -10 -14 0 -25 -4 -25 -10 0 -5 -9 -10 -20
-10 -11 0 -20 -7 -20 -15 0 -8 -9 -15 -20 -15 -11 0 -20 -4 -20 -10 0 -5 -11
-10 -24 -10 -24 0 -36 -16 -36 -51 0 -23 -18 -25 -26 -4 -7 17 -74 21 -74 5 0
-5 -9 -10 -20 -10 -11 0 -20 -7 -20 -15 0 -8 -7 -15 -16 -15 -20 0 -44 -24
-44 -44 0 -9 -7 -16 -15 -16 -8 0 -15 5 -15 10 0 6 -13 10 -30 10 -16 0 -30
-4 -30 -10 0 -5 -16 -10 -35 -10 -19 0 -35 -4 -35 -10 0 -5 -16 -10 -35 -10
-19 0 -35 -4 -35 -10 0 -5 -9 -10 -20 -10 -11 0 -20 -7 -20 -15 0 -10 -11 -15
-35 -15 -31 0 -36 -3 -41 -30 -6 -27 -34 -44 -34 -20 0 6 -9 10 -20 10 -15 0
-20 -7 -20 -25 0 -27 -15 -34 -24 -10 -8 23 -46 19 -46 -5 0 -11 -4 -20 -10
-20 -5 0 -10 5 -10 10 0 6 -25 10 -55 10 -30 0 -55 5 -55 10 0 6 -16 10 -35
10 -19 0 -35 5 -35 10 0 6 -13 10 -30 10 -16 0 -30 5 -30 10 0 6 -7 10 -16 10
-11 0 -14 -6 -9 -20 5 -14 2 -20 -10 -20 -12 0 -15 6 -10 20 5 14 2 20 -9 20
-9 0 -16 5 -16 10 0 6 -4 10 -10 10 -5 0 -10 -9 -10 -20 0 -11 -4 -20 -10 -20
-5 0 -10 9 -10 20 0 11 -4 20 -10 20 -5 0 -10 7 -10 15 0 20 -44 20 -64 0 -20
-20 -26 -19 -26 6 0 22 -22 49 -40 49 -6 0 -10 -7 -8 -16 2 -10 -3 -19 -11
-22 -9 -3 -11 1 -6 17 5 15 2 21 -9 21 -9 0 -16 5 -16 10 0 6 -9 10 -20 10
-11 0 -20 5 -20 10 0 6 -16 10 -35 10 -19 0 -35 -4 -35 -10 0 -5 -6 -10 -14
-10 -8 0 -17 15 -20 35 -7 38 -36 50 -36 15 0 -11 -4 -20 -9 -20 -5 0 -7 9 -4
20 6 24 -22 28 -31 4 -3 -8 -10 -13 -15 -9 -6 3 -8 12 -5 20 8 19 -19 45 -45
45 -12 0 -21 5 -21 10 0 15 -57 12 -63 -2 -3 -9 -10 -8 -23 6 -11 10 -13 16
-6 12 6 -4 12 -2 12 3 0 6 -7 11 -15 11 -8 0 -15 -4 -15 -10 0 -5 -4 -10 -10
-10 -5 0 -10 9 -10 19 0 11 -4 23 -10 26 -5 3 -10 -1 -10 -9 0 -9 -7 -16 -15
-16 -8 0 -15 9 -15 19 0 35 -12 51 -36 51 -13 0 -24 5 -24 10 0 6 -9 10 -20
10 -11 0 -20 5 -20 10 0 6 -11 10 -25 10 -16 0 -25 6 -25 15 0 8 -9 15 -20 15
-11 0 -20 5 -20 10 0 6 -9 10 -20 10 -11 0 -20 5 -20 10 0 6 -11 10 -25 10
-14 0 -25 -4 -25 -10 0 -5 -4 -10 -10 -10 -5 0 -10 9 -10 20 0 22 -16 27 -23
8 -3 -9 -10 -8 -23 6 -11 10 -13 16 -6 12 6 -4 12 -2 12 3 0 6 -7 11 -15 11
-8 0 -15 -5 -15 -11 0 -5 -4 -8 -9 -5 -5 3 -7 14 -5 24 5 22 -15 53 -23 34 -2
-6 -9 -10 -14 -6 -5 3 -9 0 -9 -5 0 -6 -7 -11 -16 -11 -13 0 -15 7 -11 35 5
32 4 35 -19 35 -13 0 -24 5 -24 10 0 6 -10 10 -22 10 -19 0 -20 -2 -8 -10 12
-8 9 -10 -11 -10 -27 0 -46 24 -29 35 19 12 10 35 -13 35 -12 0 -29 9 -37 20
-8 11 -24 20 -35 20 -15 0 -16 -3 -7 -9 10 -6 9 -10 -7 -14 -27 -7 -34 6 -26
43 6 27 4 30 -19 28 -14 -1 -26 -9 -26 -16 0 -8 -6 -12 -12 -9 -7 2 -12 16
-10 31 3 27 -17 56 -38 56 -7 0 -9 -8 -5 -20 4 -11 2 -20 -4 -20 -6 0 -11 9
-11 19 0 11 -7 26 -15 35 -8 8 -15 20 -15 26 0 7 -7 9 -16 6 -9 -3 -19 -6 -22
-6 -4 0 0 -5 8 -10 12 -7 8 -10 -14 -10 -27 0 -28 2 -23 35 4 24 2 35 -6 35
-7 0 -19 9 -27 20 -17 23 -30 26 -30 6 0 -9 -8 -12 -26 -8 -23 4 -25 8 -19 38
4 22 2 34 -5 34 -14 0 -100 86 -100 100 0 5 -5 10 -11 10 -6 0 -24 13 -39 30
-33 35 -40 37 -40 10 0 -11 -4 -20 -10 -20 -5 0 -10 5 -10 10 0 6 -5 10 -11
10 -12 0 -59 50 -59 62 0 4 10 7 21 5 12 -1 24 4 26 11 3 6 0 12 -7 12 -11 0
-80 65 -80 75 0 17 -33 36 -57 33 -15 -2 -28 2 -30 10 -3 6 0 12 6 12 6 0 11
9 11 20 0 11 -4 20 -10 20 -5 0 -10 7 -10 16 0 11 -8 15 -28 14 -42 -3 -44 -2
-28 22 19 26 20 38 5 38 -6 0 -17 7 -26 15 -9 9 -23 13 -34 10 -13 -4 -19 -2
-19 9 0 9 5 16 10 16 6 0 10 9 10 21 0 17 -5 20 -32 17 -18 -2 -33 2 -35 10
-3 6 2 12 9 12 8 0 14 9 15 20 1 16 -4 20 -33 20 -24 0 -34 5 -34 15 0 8 5 15
10 15 6 0 10 9 10 20 0 11 -4 20 -10 20 -5 0 -10 9 -10 20 0 15 -9 22 -30 27
-16 3 -30 10 -30 15 0 5 9 6 20 3 14 -5 20 -2 20 9 0 12 -10 16 -35 16 -30 0
-35 3 -35 23 0 18 2 19 10 7 8 -12 10 -11 10 8 0 12 -4 22 -10 22 -5 0 -10 11
-10 25 0 14 -4 25 -10 25 -5 0 -10 9 -10 20 0 11 -4 20 -10 20 -5 0 -10 11
-10 25 0 14 -4 25 -10 25 -5 0 -10 9 -10 20 0 11 -7 20 -15 20 -8 0 -15 5 -15
10 0 6 -9 10 -20 10 -14 0 -20 7 -20 23 0 18 2 19 10 7 8 -13 10 -12 10 3 0
14 -5 17 -20 12 -14 -5 -20 -2 -20 9 0 9 5 16 10 16 15 0 12 49 -4 66 -8 8
-24 14 -35 14 -24 0 -28 18 -6 26 25 10 17 34 -10 34 -24 0 -36 25 -15 32 5 2
12 18 16 36 5 25 3 32 -10 32 -11 0 -16 9 -16 30 0 17 -4 30 -10 30 -5 0 -10
11 -10 25 0 18 -5 25 -19 25 -27 0 -37 21 -18 35 10 7 17 24 17 39 0 21 -5 26
-25 26 -27 0 -34 17 -10 26 10 4 15 20 15 45 0 35 -3 39 -25 39 -28 0 -32 14
-10 36 8 9 15 31 15 50 0 30 -3 35 -22 32 -11 -2 -23 3 -25 10 -3 7 5 12 21
12 14 0 26 5 26 10 0 6 -7 10 -15 10 -11 0 -15 12 -15 46 0 37 -3 45 -15 40
-9 -3 -19 3 -25 15 -9 15 -7 21 5 25 13 5 15 46 15 315 0 213 -3 309 -11 309
-6 0 -9 10 -7 23 2 15 9 21 21 19 14 -2 17 5 17 53 0 35 -4 54 -10 50 -6 -4
-10 5 -10 19 0 21 5 26 25 26 18 0 25 5 25 19 0 29 -11 52 -22 45 -5 -4 -8 6
-6 22 2 24 7 28 26 26 19 -3 22 1 22 31 0 22 -6 37 -15 41 -24 9 -17 26 10 26
21 0 25 5 25 30 0 17 5 30 10 30 6 0 10 20 10 45 0 25 5 45 10 45 6 0 10 5 10
10 0 6 -9 10 -20 10 -11 0 -20 5 -20 11 0 6 9 8 20 4 16 -5 20 -2 20 19 0 16
6 26 15 26 20 0 20 44 -1 64 -19 20 -10 36 16 29 15 -4 20 0 20 15 0 12 -4 24
-10 27 -15 10 -12 25 6 25 8 0 22 6 30 14 16 16 20 81 4 71 -5 -3 -10 1 -10 9
0 14 12 20 33 17 4 0 7 4 7 9 0 6 -4 10 -10 10 -5 0 -10 7 -10 15 0 8 9 15 20
15 13 0 20 7 20 20 0 11 -4 20 -10 20 -5 0 -10 5 -10 10 0 6 11 10 25 10 14 0
25 5 25 10 0 6 -4 10 -10 10 -5 0 -10 5 -10 10 0 6 9 10 20 10 25 0 25 9 3 26
-21 14 -15 24 16 27 21 1 31 17 11 17 -18 0 -10 17 12 28 13 6 17 11 11 11 -7
1 -13 8 -13 17 0 13 7 15 35 10 33 -6 35 -5 35 19 0 14 5 25 10 25 6 0 10 8
10 18 0 10 9 24 20 32 27 19 27 43 0 35 -11 -3 -20 -2 -20 3 0 5 14 12 30 16
21 4 30 11 30 26 0 11 5 20 11 20 17 0 39 27 39 47 0 10 9 25 20 33 11 8 20
24 20 35 0 16 -2 17 -10 5 -8 -12 -10 -9 -10 12 0 26 2 28 35 22 27 -4 35 -2
35 10 0 9 4 16 9 16 6 0 9 9 8 20 -1 11 -7 20 -15 20 -7 0 -12 6 -9 13 2 6 16
11 31 9 26 -3 56 17 56 37 0 6 5 11 11 11 11 0 39 24 39 34 0 14 -44 4 -56
-11 -7 -10 -13 -13 -13 -8 0 20 28 47 40 39 8 -4 10 -3 5 4 -13 21 17 52 51
52 18 0 33 5 33 10 0 6 5 10 10 10 11 0 100 85 100 95 0 8 27 35 35 35 8 0 75
67 75 75 0 4 7 13 15 22 9 9 13 23 10 34 -4 13 -2 19 9 19 9 0 16 -4 16 -10 0
-18 31 -10 55 15 16 15 25 36 25 55 0 20 5 30 15 30 8 0 15 5 15 10 0 6 5 10
10 10 6 0 10 -9 10 -20 0 -27 7 -25 40 10 15 17 37 30 49 30 12 0 21 6 21 15
0 8 5 15 10 15 6 0 10 14 10 30 0 17 5 30 10 30 6 0 10 -4 10 -10 0 -5 11 -10
25 -10 14 0 25 5 25 10 0 6 7 10 16 10 18 0 44 23 44 39 0 6 11 11 25 11 22 0
24 3 19 30 -5 23 -3 30 10 30 9 0 16 -4 16 -10 0 -5 9 -10 20 -10 11 0 20 5
20 10 0 6 11 10 25 10 14 0 25 5 25 10 0 6 9 10 20 10 11 0 20 7 20 15 0 8 9
15 19 15 21 0 33 22 25 45 -4 10 0 15 11 15 9 0 13 -4 10 -10 -3 -5 1 -10 11
-10 11 0 15 6 11 20 -3 13 0 20 9 20 8 0 14 -4 14 -10 0 -5 14 -10 30 -10 17
0 30 5 30 10 0 6 11 10 25 10 16 0 25 6 25 15 0 8 9 15 20 15 11 0 20 5 20 10
0 6 16 10 35 10 31 0 36 3 42 30 7 36 21 48 29 26 7 -18 74 -23 74 -6 0 6 14
10 30 10 17 0 30 5 30 10 0 6 9 10 20 10 15 0 20 7 20 25 0 16 6 25 15 25 8 0
15 -4 15 -10 0 -5 11 -10 25 -10 18 0 25 5 25 19 0 27 15 34 33 16 21 -21 37
-19 37 5 0 11 7 20 15 20 8 0 15 -4 15 -10 0 -5 15 -10 34 -10 28 0 35 4 38
22 3 26 38 38 38 14 0 -13 11 -16 51 -16 47 0 51 2 46 21 -7 26 17 36 38 15
12 -11 35 -16 76 -16 57 0 60 1 57 23 -2 16 3 23 20 25 12 2 22 -1 22 -7 0 -8
84 -11 266 -11 188 0 263 3 258 11 -4 7 2 9 17 7 18 -2 23 -8 21 -25 -3 -22 0
-23 67 -23 41 0 71 -4 71 -10 0 -5 7 -10 15 -10 18 0 18 5 5 30 -8 15 -6 17 9
13 13 -3 17 -11 14 -24 -5 -17 0 -19 40 -19 31 0 47 5 51 15 9 25 36 18 36
-10 0 -20 5 -25 24 -25 13 0 26 7 30 15 9 24 26 17 26 -10 0 -21 5 -25 30 -25
17 0 30 5 30 10 0 6 7 10 15 10 8 0 15 -9 15 -20 0 -13 7 -20 20 -20 11 0 20
-7 20 -15 0 -10 10 -15 30 -15 17 0 30 -4 30 -10 0 -5 16 -10 35 -10 25 0 35
4 35 16 0 23 24 11 28 -14 3 -21 32 -32 32 -12 0 6 7 10 16 10 11 0 14 -6 9
-20 -5 -14 -2 -20 9 -20 9 0 16 -4 16 -10 0 -5 14 -10 30 -10 17 0 30 -4 30
-10 0 -5 11 -10 25 -10 16 0 25 -6 25 -15 0 -8 9 -15 20 -15 11 0 20 -4 20
-10 0 -5 9 -10 20 -10 11 0 20 -4 20 -10 0 -5 11 -10 25 -10 14 0 25 -4 25
-10 0 -5 9 -10 20 -10 11 0 20 -4 20 -10 0 -5 11 -10 25 -10 14 0 25 5 25 10
0 6 5 10 10 10 6 0 10 -16 10 -35 0 -32 2 -35 30 -35 17 0 30 -4 30 -10 0 -5
7 -10 15 -10 8 0 15 -4 15 -10 0 -5 9 -10 20 -10 11 0 20 -4 20 -10 0 -5 10
-10 23 -10 18 0 19 2 7 10 -12 8 -11 10 6 10 28 0 46 -21 34 -40 -13 -21 -12
-30 3 -30 7 0 19 -9 27 -20 11 -15 26 -20 63 -20 57 0 82 19 73 54 -5 19 2 30
30 54 22 19 42 28 54 25 19 -5 70 36 70 57 0 5 5 10 10 10 14 0 100 86 100
100 0 5 5 10 10 10 6 0 26 16 45 35 30 29 35 41 35 80 0 27 -6 52 -14 61 -20
19 -26 18 -26 -6 0 -11 -4 -20 -10 -20 -5 0 -10 14 -10 30 0 20 -5 30 -15 30
-8 0 -15 7 -15 15 0 8 -4 15 -10 15 -5 0 -10 -9 -10 -20 0 -11 -4 -20 -9 -20
-5 0 -7 8 -4 18 5 22 -28 62 -53 62 -11 0 -26 9 -34 20 -8 11 -22 20 -32 20
-10 0 -18 7 -18 15 0 8 -6 15 -14 15 -8 0 -21 -7 -30 -15 -22 -22 -26 -19 -26
20 0 28 -4 35 -20 35 -11 0 -20 5 -20 10 0 6 -12 10 -27 10 -22 0 -25 -2 -13
-10 12 -8 11 -10 -7 -10 -12 0 -25 5 -28 10 -3 6 -15 10 -26 10 -13 0 -19 7
-20 23 0 12 -3 16 -6 10 -11 -28 -33 -13 -33 22 0 28 -4 35 -20 35 -11 0 -20
5 -20 10 0 6 -9 10 -20 10 -11 0 -20 5 -20 10 0 6 -11 10 -25 10 -16 0 -25 6
-25 15 0 8 -9 15 -20 15 -11 0 -20 5 -20 10 0 6 -7 10 -16 10 -11 0 -14 -6 -9
-20 4 -11 2 -20 -4 -20 -6 0 -11 9 -11 20 0 11 -7 20 -15 20 -8 0 -15 -4 -15
-10 0 -5 -4 -10 -10 -10 -5 0 -10 7 -10 16 0 25 -26 44 -60 44 -17 0 -29 -4
-26 -9 3 -5 -1 -11 -9 -15 -17 -6 -20 -2 -30 42 -6 28 -10 32 -41 32 -19 0
-34 5 -34 10 0 16 -57 12 -64 -5 -9 -24 -26 -17 -26 10 0 18 -5 25 -19 25 -10
0 -21 -7 -25 -15 -9 -24 -26 -17 -26 10 0 16 -6 25 -15 25 -8 0 -15 5 -15 10
0 6 -20 10 -45 10 -25 0 -45 -4 -45 -10 0 -5 -7 -10 -15 -10 -9 0 -15 9 -15
25 0 20 -5 25 -24 25 -34 0 -57 -10 -50 -22 4 -6 -4 -8 -17 -6 -18 2 -23 8
-21 26 3 19 -1 22 -27 22 -21 0 -31 -5 -31 -15 0 -8 -9 -15 -20 -15 -15 0 -20
7 -20 25 0 23 -4 25 -44 25 -30 0 -46 -5 -50 -15 -3 -8 -12 -12 -20 -9 -8 3
-12 12 -9 19 4 12 -61 13 -399 11 -221 -2 -410 -4 -418 -4 -8 -1 -43 1 -77 4
-52 5 -63 3 -63 -10z m-500 -116 c0 -5 -4 -10 -10 -10 -5 0 -10 5 -10 10 0 6
5 10 10 10 6 0 10 -4 10 -10z m2085 -40 c-3 -5 -12 -10 -18 -10 -7 0 -6 4 3
10 19 12 23 12 15 0z m-2355 -44 c0 -3 -4 -8 -10 -11 -5 -3 -10 -1 -10 4 0 6
5 11 10 11 6 0 10 -2 10 -4z m2530 -26 c0 -5 -4 -10 -10 -10 -5 0 -10 5 -10
10 0 6 5 10 10 10 6 0 10 -4 10 -10z m195 -90 c3 -5 1 -10 -4 -10 -6 0 -11 5
-11 10 0 6 2 10 4 10 3 0 8 -4 11 -10z m-3035 -20 c0 -5 -5 -10 -11 -10 -5 0
-7 5 -4 10 3 6 8 10 11 10 2 0 4 -4 4 -10z m-285 -150 c3 -5 1 -10 -4 -10 -6
0 -11 5 -11 10 0 6 2 10 4 10 3 0 8 -4 11 -10z m3785 -90 c0 -5 -5 -10 -11
-10 -5 0 -7 5 -4 10 3 6 8 10 11 10 2 0 4 -4 4 -10z m-3155 -240 c-3 -5 -12
-10 -18 -10 -7 0 -6 4 3 10 19 12 23 12 15 0z m-55 -30 c0 -5 -2 -10 -4 -10
-3 0 -8 5 -11 10 -3 6 -1 10 4 10 6 0 11 -4 11 -10z m-130 -60 c0 -5 -5 -10
-11 -10 -5 0 -7 5 -4 10 3 6 8 10 11 10 2 0 4 -4 4 -10z m2755 -10 c3 -5 1
-10 -4 -10 -6 0 -11 5 -11 10 0 6 2 10 4 10 3 0 8 -4 11 -10z m-3005 -140 c-8
-5 -19 -10 -25 -10 -5 0 -3 5 5 10 8 5 20 10 25 10 6 0 3 -5 -5 -10z m3320
-50 c0 -5 -4 -10 -10 -10 -5 0 -10 5 -10 10 0 6 5 10 10 10 6 0 10 -4 10 -10z
m-4630 -390 c0 -5 -4 -10 -10 -10 -5 0 -10 5 -10 10 0 6 5 10 10 10 6 0 10 -4
10 -10z m710 -44 c0 -2 -8 -10 -17 -17 -16 -13 -17 -12 -4 4 13 16 21 21 21
13z m-1237 -981 c-3 -9 -8 -14 -10 -11 -3 3 -2 9 2 15 9 16 15 13 8 -4z m357
-3110 c0 -5 -5 -3 -10 5 -5 8 -10 20 -10 25 0 6 5 3 10 -5 5 -8 10 -19 10 -25z
m1185 -1175 c3 -6 -1 -7 -9 -4 -18 7 -21 14 -7 14 6 0 13 -4 16 -10z m2645 0
c0 -5 -2 -10 -4 -10 -3 0 -8 5 -11 10 -3 6 -1 10 4 10 6 0 11 -4 11 -10z m-40
-24 c0 -2 -7 -7 -16 -10 -8 -3 -12 -2 -9 4 6 10 25 14 25 6z m-1225 -46 c3 -5
1 -10 -4 -10 -6 0 -11 5 -11 10 0 6 2 10 4 10 3 0 8 -4 11 -10z m1000 -40 c3
-5 1 -10 -4 -10 -6 0 -11 5 -11 10 0 6 2 10 4 10 3 0 8 -4 11 -10z m-585 -110
c0 -5 -4 -10 -10 -10 -5 0 -10 5 -10 10 0 6 5 10 10 10 6 0 10 -4 10 -10z
m1340 -180 c0 -5 -4 -10 -10 -10 -5 0 -10 5 -10 10 0 6 5 10 10 10 6 0 10 -4
10 -10z m-720 -310 c0 -5 -4 -10 -10 -10 -5 0 -10 5 -10 10 0 6 5 10 10 10 6
0 10 -4 10 -10z"/>
<path d="M6130 6725 c0 -18 -5 -25 -20 -25 -11 0 -20 6 -20 13 0 7 -9 13 -21
14 -15 1 -19 -3 -17 -20 2 -18 -3 -23 -27 -25 -23 -2 -27 0 -15 7 12 9 11 11
-7 11 -19 0 -23 -6 -23 -28 0 -39 -35 -75 -60 -62 -25 13 -30 13 -30 -5 0 -8
-4 -15 -10 -15 -5 0 -10 -9 -10 -20 0 -11 -4 -20 -10 -20 -5 0 -10 -4 -10 -10
0 -5 9 -10 21 -10 12 0 19 -5 16 -12 -2 -7 -11 -12 -21 -10 -14 3 -16 -12 -16
-123 0 -77 4 -125 10 -125 6 0 10 -10 10 -21 0 -18 4 -21 30 -16 31 7 52 -10
30 -23 -10 -6 -8 -9 6 -13 16 -4 16 -5 -3 -6 -22 -1 -34 -31 -13 -31 14 0 120
-107 120 -120 0 -7 13 -9 35 -6 28 5 36 2 46 -16 9 -16 9 -23 0 -26 -14 -5
-15 -42 -1 -42 6 0 10 -5 10 -11 0 -22 29 -39 59 -34 35 6 50 -9 24 -24 -14
-8 -15 -10 -3 -11 13 0 13 -1 0 -11 -11 -8 -12 -12 -2 -16 6 -2 12 -11 12 -19
0 -8 5 -14 10 -14 6 0 10 -7 10 -16 0 -18 23 -44 39 -44 6 0 11 -11 11 -25 0
-22 3 -24 29 -19 31 6 53 -12 27 -22 -9 -3 -16 -15 -16 -26 0 -16 5 -19 24
-16 37 7 53 -6 33 -27 -21 -21 -22 -45 -2 -45 8 0 15 -9 15 -20 0 -16 7 -20
30 -20 17 0 30 -4 30 -10 0 -5 -4 -10 -10 -10 -5 0 -10 -11 -10 -25 0 -14 5
-25 10 -25 6 0 10 -9 10 -20 0 -11 5 -20 10 -20 6 0 10 -9 10 -20 0 -11 7 -20
15 -20 9 0 15 -9 15 -25 0 -14 5 -25 10 -25 6 0 10 -7 10 -16 0 -22 25 -44 49
-44 24 0 28 -18 6 -26 -22 -9 -18 -24 5 -24 11 0 20 -4 20 -10 0 -5 -4 -10
-10 -10 -5 0 -10 -9 -10 -21 0 -15 5 -20 23 -17 17 2 23 -3 25 -21 2 -15 0
-21 -7 -17 -6 4 -11 0 -11 -8 0 -9 9 -16 20 -16 11 0 20 -7 20 -15 0 -8 -4
-15 -10 -15 -5 0 -10 -16 -10 -35 0 -19 5 -35 10 -35 6 0 10 -13 10 -30 0 -16
5 -30 10 -30 6 0 10 -16 10 -35 0 -19 5 -35 10 -35 6 0 10 -16 10 -35 0 -19 5
-35 10 -35 6 0 10 -7 10 -15 0 -9 9 -15 25 -15 16 0 25 -6 25 -15 0 -8 -4 -15
-10 -15 -5 0 -10 -18 -10 -40 0 -33 3 -40 20 -40 11 0 20 -7 20 -15 0 -8 -4
-15 -10 -15 -5 0 -10 -16 -10 -35 0 -28 4 -35 19 -35 27 0 37 -21 18 -35 -10
-7 -17 -26 -17 -44 0 -24 4 -31 19 -31 27 0 37 -21 18 -35 -13 -9 -17 -28 -17
-79 0 -64 1 -67 23 -64 19 3 22 -2 25 -36 2 -22 -1 -36 -6 -32 -19 12 -22 -29
-22 -299 0 -270 3 -311 22 -299 5 4 8 -8 6 -27 -2 -29 -7 -34 -25 -31 -22 3
-23 0 -23 -71 0 -59 3 -76 16 -81 20 -8 9 -26 -17 -26 -15 0 -19 -7 -19 -36 0
-23 6 -41 17 -49 19 -14 9 -35 -18 -35 -15 0 -19 -7 -19 -35 0 -19 5 -35 10
-35 6 0 10 -9 10 -20 0 -13 -7 -20 -20 -20 -16 0 -20 -7 -20 -35 0 -19 5 -35
10 -35 6 0 10 -7 10 -15 0 -9 -9 -15 -25 -15 -16 0 -25 -6 -25 -15 0 -8 -4
-15 -10 -15 -17 0 -11 -62 7 -75 19 -14 9 -35 -18 -35 -10 0 -19 -7 -19 -15 0
-8 -4 -15 -10 -15 -16 0 -12 -50 6 -67 12 -12 13 -18 3 -24 -7 -4 -18 -5 -26
-2 -8 3 -13 -2 -13 -16 0 -12 -4 -21 -10 -21 -5 0 -10 -9 -10 -20 0 -11 -7
-20 -15 -20 -10 0 -15 -11 -15 -35 0 -19 -4 -35 -10 -35 -5 0 -10 -9 -10 -20
0 -11 -4 -20 -10 -20 -17 0 -12 -67 6 -74 22 -8 10 -22 -26 -29 -25 -6 -30
-11 -29 -34 1 -17 3 -21 6 -11 7 28 21 21 15 -7 -3 -16 -11 -25 -23 -25 -10 0
-21 -4 -24 -10 -3 -5 1 -10 9 -10 9 0 16 -7 16 -16 0 -13 -7 -15 -35 -11 -32
5 -35 4 -35 -19 0 -13 -4 -24 -10 -24 -5 0 -10 -9 -10 -20 0 -11 -4 -20 -10
-20 -5 0 -10 -9 -10 -20 0 -11 -7 -20 -15 -20 -17 0 -21 -35 -5 -45 20 -12 9
-25 -20 -25 -23 0 -30 -4 -30 -20 0 -11 5 -20 10 -20 6 0 10 -7 10 -15 0 -11
-8 -13 -30 -8 -28 5 -30 3 -30 -23 0 -22 3 -26 10 -14 8 12 10 11 10 -7 0 -23
-7 -27 -47 -23 -17 1 -23 -4 -23 -19 0 -12 5 -21 10 -21 6 0 10 -7 10 -16 0
-10 -6 -13 -18 -10 -23 8 -62 -24 -62 -50 0 -16 2 -17 10 -4 8 12 10 12 10 -5
0 -11 -12 -34 -28 -52 -21 -25 -32 -31 -50 -26 -16 4 -28 -1 -41 -16 -10 -11
-22 -21 -25 -21 -11 0 -36 -27 -36 -39 0 -6 10 -11 23 -12 21 -1 21 -1 -3 -9
-17 -5 -19 -8 -7 -9 21 -1 21 -6 0 -31 -11 -13 -24 -18 -40 -14 -23 6 -53 -14
-53 -35 0 -6 -5 -11 -11 -11 -16 0 -39 -26 -39 -44 0 -9 -4 -16 -10 -16 -5 0
-10 -16 -10 -35 0 -19 5 -35 11 -35 6 0 9 -6 6 -12 -2 -7 -11 -12 -21 -10 -14
2 -16 -8 -16 -73 0 -68 2 -75 20 -75 11 0 20 -7 20 -16 0 -8 -4 -12 -10 -9 -6
4 -10 -8 -10 -29 0 -20 5 -36 10 -36 6 0 10 -9 10 -20 0 -11 5 -20 10 -20 6 0
10 -7 10 -15 0 -8 5 -15 11 -15 6 0 24 -13 39 -30 15 -16 35 -30 44 -30 9 0
16 -4 16 -10 0 -5 21 -10 48 -10 34 0 43 3 32 10 -12 8 -9 10 13 10 22 0 27
-4 27 -25 0 -22 4 -25 36 -25 31 0 35 3 32 23 -3 20 2 22 42 24 34 2 40 0 25
-7 -18 -8 -17 -9 8 -9 21 -1 27 3 25 15 -2 10 3 19 10 21 6 3 12 0 12 -6 0 -6
5 -11 10 -11 6 0 10 11 10 25 0 14 5 25 10 25 6 0 10 -8 10 -17 0 -15 2 -16
10 -3 6 10 10 11 10 3 0 -7 5 -13 10 -13 14 0 60 46 60 60 0 5 5 10 10 10 6 0
10 5 10 10 0 6 -9 10 -19 10 -17 0 -18 3 -8 25 10 21 17 24 39 19 25 -5 58 12
58 31 0 10 48 55 60 55 5 0 10 5 10 10 0 6 -11 10 -25 10 -14 0 -25 5 -25 10
0 6 5 10 10 10 6 0 10 7 10 15 0 15 10 19 42 16 16 -2 68 40 68 54 0 3 -9 5
-20 5 -11 0 -20 5 -20 10 0 6 14 10 30 10 20 0 30 5 30 15 0 8 7 15 15 15 8 0
15 7 15 16 0 9 14 29 30 44 36 34 39 54 8 46 -13 -3 -17 -3 -10 0 6 3 12 17
12 31 0 19 4 24 16 19 8 -3 13 -2 10 2 -2 4 0 14 5 22 8 12 9 11 7 -5 -2 -12
4 -21 15 -23 12 -2 17 3 17 17 0 12 5 21 10 21 6 0 10 11 10 25 0 14 -4 25
-10 25 -5 0 -10 5 -10 10 0 6 12 10 26 10 29 0 54 21 54 44 0 9 7 16 15 16 9
0 15 9 15 25 0 14 5 25 10 25 6 0 10 9 10 20 0 11 -4 20 -10 20 -5 0 -10 7
-10 16 0 11 6 14 20 9 14 -5 20 -2 20 9 0 9 -4 16 -10 16 -5 0 -10 5 -10 10 0
6 9 10 20 10 11 0 20 5 20 10 0 6 -5 10 -11 10 -6 0 -9 6 -6 13 2 7 16 11 35
9 30 -3 32 -1 32 27 0 16 -4 33 -10 36 -20 12 -9 25 20 25 23 0 30 4 30 20 0
11 5 20 10 20 17 0 12 67 -6 74 -23 9 -9 23 31 30 31 6 35 10 35 38 0 18 -7
36 -17 44 -16 12 -15 13 10 14 20 0 27 5 27 20 0 11 -4 20 -10 20 -5 0 -10 7
-10 15 0 8 9 15 20 15 24 0 27 15 4 24 -20 8 -9 26 17 26 10 0 19 7 19 15 0 8
5 15 10 15 6 0 10 11 10 25 0 16 6 25 15 25 19 0 19 30 0 56 -21 28 -18 44 10
44 16 0 25 6 25 15 0 8 5 15 10 15 17 0 12 87 -5 94 -24 9 -17 26 10 26 21 0
25 5 25 31 0 19 -4 28 -11 23 -7 -4 -9 2 -7 17 2 16 9 23 21 21 14 -2 17 5 17
40 0 32 -3 39 -11 28 -7 -12 -9 -8 -7 15 2 25 7 29 26 27 23 -3 27 4 16 32 -3
9 -10 13 -16 10 -5 -4 -8 6 -6 22 2 21 9 30 26 32 18 3 22 10 22 43 0 21 -4
39 -10 39 -5 0 -10 9 -10 19 0 14 5 18 20 14 19 -5 20 0 20 61 0 37 -4 66 -10
66 -5 0 -10 7 -10 15 0 8 6 15 14 15 13 0 15 73 15 500 0 419 -2 500 -14 500
-22 0 -29 22 -12 35 12 9 17 28 17 69 0 49 -2 56 -19 56 -27 0 -37 21 -18 35
10 7 17 26 17 44 0 28 -3 32 -22 29 -19 -2 -24 2 -26 26 -2 16 1 26 6 22 11
-7 22 16 22 46 0 17 -4 19 -25 14 -19 -5 -25 -2 -25 9 0 9 5 13 10 10 6 -4 10
10 10 34 0 34 -3 41 -20 41 -14 0 -20 7 -20 21 0 11 5 17 10 14 6 -4 10 8 10
30 0 32 -3 36 -20 30 -14 -5 -20 -2 -20 9 0 9 5 16 10 16 6 0 10 11 10 25 0
18 -5 25 -19 25 -27 0 -37 21 -18 35 24 17 21 43 -5 47 -11 2 -22 11 -24 20
-1 11 3 15 12 11 11 -4 14 5 14 36 0 30 -4 41 -15 41 -9 0 -15 9 -15 25 0 14
-4 25 -10 25 -5 0 -10 14 -10 30 0 26 -5 31 -30 37 -38 7 -48 22 -27 38 18 13
23 65 7 65 -5 0 -10 11 -10 25 0 16 -6 25 -15 25 -8 0 -15 5 -15 10 0 6 -9 10
-20 10 -11 0 -20 5 -20 10 0 6 9 10 20 10 11 0 20 5 20 10 0 6 -4 10 -10 10
-5 0 -10 11 -10 25 0 14 -4 25 -10 25 -5 0 -10 9 -10 20 0 11 -4 20 -10 20 -5
0 -10 9 -10 20 0 11 -4 20 -10 20 -5 0 -10 11 -10 25 0 16 -6 25 -15 25 -8 0
-15 9 -15 20 0 11 -4 20 -10 20 -5 0 -10 11 -10 25 0 21 -5 25 -30 25 -28 0
-44 19 -17 21 6 1 1 4 -12 8 -27 7 -41 31 -19 31 7 0 15 11 16 25 1 16 -3 25
-13 25 -8 0 -15 9 -15 20 0 16 -7 20 -30 20 -16 0 -30 5 -30 10 0 6 5 10 10
10 6 0 10 11 10 24 0 23 -3 24 -35 19 -37 -6 -46 6 -20 27 27 22 18 40 -20 40
-25 0 -35 4 -35 16 0 8 5 12 10 9 6 -3 10 5 10 19 0 23 -3 24 -35 19 -27 -4
-35 -2 -35 10 0 9 7 23 16 31 14 14 14 18 0 31 -8 8 -19 15 -25 15 -6 0 -11 7
-11 15 0 8 -4 15 -10 15 -5 0 -10 7 -10 16 0 25 -26 44 -59 44 -17 0 -31 5
-31 10 0 6 5 10 11 10 5 0 7 5 4 10 -3 6 -1 10 4 10 6 0 11 5 11 11 0 11 -25
39 -35 39 -8 0 -55 47 -55 55 0 19 -33 36 -59 30 -25 -5 -29 -3 -33 19 -4 18
-1 26 8 26 8 0 14 5 14 10 0 6 -4 10 -10 10 -5 0 -10 5 -10 10 0 6 -16 26 -35
45 -36 36 -55 44 -55 23 0 -9 -4 -8 -10 2 -8 13 -10 12 -10 -3 0 -11 -5 -17
-12 -14 -8 2 -12 19 -11 41 1 20 -2 36 -7 36 -6 0 -10 -11 -10 -25 0 -14 -4
-25 -10 -25 -5 0 -10 11 -10 25 0 29 -29 35 -50 10 -16 -19 -30 -10 -23 15 5
18 0 20 -41 20 -42 0 -46 -2 -46 -25z m158 -960 c-3 -3 -9 2 -12 12 -6 14 -5
15 5 6 7 -7 10 -15 7 -18z m742 -15 c0 -5 -2 -10 -4 -10 -3 0 -8 5 -11 10 -3
6 -1 10 4 10 6 0 11 -4 11 -10z m70 -124 c0 -3 -4 -8 -10 -11 -5 -3 -10 -1
-10 4 0 6 5 11 10 11 6 0 10 -2 10 -4z m90 -200 c0 -3 -4 -8 -10 -11 -5 -3
-10 -1 -10 4 0 6 5 11 10 11 6 0 10 -2 10 -4z m-470 -536 c0 -5 -5 -10 -11
-10 -5 0 -7 5 -4 10 3 6 8 10 11 10 2 0 4 -4 4 -10z m-87 -2225 c-3 -9 -8 -14
-10 -11 -3 3 -2 9 2 15 9 16 15 13 8 -4z m-23 -75 c0 -5 -2 -10 -4 -10 -3 0
-8 5 -11 10 -3 6 -1 10 4 10 6 0 11 -4 11 -10z m-20 -40 c0 -5 -4 -10 -10 -10
-5 0 -10 5 -10 10 0 6 5 10 10 10 6 0 10 -4 10 -10z m-110 -220 c0 -5 -4 -10
-10 -10 -5 0 -10 5 -10 10 0 6 5 10 10 10 6 0 10 -4 10 -10z m640 -114 c0 -3
-4 -8 -10 -11 -5 -3 -10 -1 -10 4 0 6 5 11 10 11 6 0 10 -2 10 -4z m-25 -46
c3 -5 1 -10 -4 -10 -6 0 -11 5 -11 10 0 6 2 10 4 10 3 0 8 -4 11 -10z"/>
<path d="M3460 6620 c0 -28 -27 -36 -49 -16 -12 11 -37 16 -84 16 -65 0 -67
-1 -67 -25 0 -22 -4 -25 -37 -25 -28 0 -34 3 -23 10 11 7 5 10 -22 10 -31 0
-38 -4 -38 -20 0 -14 -7 -20 -21 -20 -11 0 -17 5 -14 10 4 6 -10 10 -34 10
-34 0 -41 -3 -41 -20 0 -13 -7 -20 -20 -20 -11 0 -20 5 -20 10 0 6 -18 10 -40
10 -22 0 -40 -4 -40 -10 0 -5 -16 -10 -35 -10 -19 0 -35 -4 -35 -10 0 -5 -13
-10 -30 -10 -20 0 -30 -5 -30 -15 0 -8 -4 -15 -10 -15 -5 0 -10 -9 -10 -20 0
-11 -7 -20 -15 -20 -8 0 -15 5 -15 10 0 15 -49 12 -66 -4 -8 -8 -14 -21 -14
-30 0 -21 -19 -30 -26 -12 -7 18 -64 23 -64 6 0 -5 -11 -10 -25 -10 -16 0 -25
-6 -25 -15 0 -8 -9 -15 -20 -15 -11 0 -20 -4 -20 -10 0 -5 -11 -10 -25 -10
-14 0 -25 -4 -25 -10 0 -5 -9 -10 -19 -10 -17 0 -19 -5 -14 -35 4 -28 2 -35
-11 -35 -9 0 -16 6 -16 13 0 7 -11 14 -25 15 -16 1 -25 -3 -25 -13 0 -8 -9
-15 -20 -15 -16 0 -20 -7 -20 -30 0 -16 -4 -30 -10 -30 -5 0 -10 5 -10 10 0 6
-9 10 -20 10 -11 0 -20 -4 -20 -10 0 -5 -9 -10 -21 -10 -27 0 -52 -26 -46 -49
5 -22 0 -32 -29 -48 -19 -10 -21 -10 -17 8 6 22 -12 26 -31 6 -8 -8 -11 -26
-8 -46 4 -31 3 -34 -17 -28 -11 3 -19 1 -15 -4 3 -5 0 -9 -5 -9 -6 0 -11 9
-11 20 0 11 -4 20 -10 20 -5 0 -10 -4 -10 -10 0 -5 -7 -10 -15 -10 -8 0 -15
-6 -15 -13 0 -7 -9 -19 -20 -27 -12 -9 -20 -26 -20 -43 0 -28 -6 -37 -42 -65
-13 -10 -22 -11 -38 -2 -18 10 -25 7 -49 -19 -16 -17 -32 -31 -36 -31 -10 0
-35 -27 -35 -39 0 -6 6 -11 13 -11 8 0 7 -4 -3 -10 -13 -8 -12 -10 3 -10 22 0
22 -6 -1 -30 -12 -13 -26 -18 -45 -15 -15 3 -27 1 -27 -5 0 -5 -7 -10 -15 -10
-8 0 -15 -5 -15 -11 0 -6 -18 -28 -40 -49 -44 -42 -52 -65 -20 -55 11 3 20 2
20 -3 0 -5 -14 -12 -31 -16 -51 -10 -80 -56 -43 -70 26 -10 5 -26 -26 -19 -23
4 -30 2 -30 -11 0 -9 -4 -16 -10 -16 -5 0 -10 -4 -10 -10 0 -5 9 -10 20 -10
11 0 20 -4 20 -10 0 -5 -13 -10 -30 -10 -16 0 -30 -4 -30 -10 0 -5 -7 -10 -15
-10 -8 0 -15 -9 -15 -20 0 -11 -4 -20 -10 -20 -5 0 -10 -7 -10 -15 0 -8 -4
-15 -10 -15 -5 0 -10 -9 -10 -20 0 -11 -4 -20 -10 -20 -5 0 -10 -9 -10 -20 0
-11 -4 -20 -10 -20 -5 0 -10 -11 -10 -25 0 -16 -6 -25 -15 -25 -8 0 -15 -9
-15 -20 0 -11 -4 -20 -10 -20 -5 0 -10 -11 -10 -25 0 -14 -4 -25 -10 -25 -5 0
-10 -9 -10 -20 0 -11 -4 -20 -10 -20 -5 0 -10 -9 -10 -20 0 -11 -4 -20 -10
-20 -5 0 -10 -17 -10 -37 0 -29 3 -35 11 -23 8 12 9 10 7 -10 -2 -18 -8 -24
-21 -22 -25 4 -47 -22 -47 -57 0 -17 -4 -31 -10 -31 -5 0 -10 -16 -10 -35 0
-19 -4 -35 -10 -35 -5 0 -10 -18 -10 -40 0 -22 5 -40 10 -40 6 0 10 -7 10 -16
0 -11 -6 -14 -20 -9 -16 5 -20 2 -20 -19 0 -16 -6 -26 -15 -26 -10 0 -15 -10
-15 -34 0 -19 7 -41 15 -50 22 -22 18 -36 -10 -36 -22 0 -25 -4 -25 -40 0 -30
4 -40 16 -40 24 0 12 -35 -14 -38 -19 -3 -22 -10 -22 -44 0 -25 6 -45 16 -52
21 -16 8 -49 -17 -41 -18 6 -19 -1 -19 -103 0 -71 4 -112 11 -114 16 -5 17
-178 2 -194 -9 -9 -13 -48 -13 -124 0 -107 1 -111 20 -105 16 5 20 2 20 -14 0
-12 -4 -21 -10 -21 -5 0 -10 -23 -10 -51 0 -47 2 -51 21 -46 26 7 39 -22 16
-35 -10 -5 -17 -22 -17 -40 0 -25 3 -29 20 -25 24 6 38 -11 16 -19 -22 -9 -23
-114 -1 -114 8 0 15 -9 15 -20 0 -13 7 -20 20 -20 11 0 20 -7 20 -15 0 -8 -4
-15 -10 -15 -5 0 -10 -12 -10 -26 0 -21 4 -24 20 -19 11 4 20 2 20 -4 0 -6 -9
-11 -20 -11 -11 0 -20 -7 -20 -15 0 -8 5 -15 10 -15 6 0 10 -13 10 -30 0 -16
5 -30 10 -30 6 0 10 -7 10 -16 0 -12 6 -15 21 -11 13 3 19 1 16 -6 -2 -7 -11
-11 -21 -9 -9 2 -16 -4 -16 -11 0 -16 21 -27 51 -27 14 0 19 -7 19 -25 0 -14
5 -25 10 -25 6 0 10 -7 10 -16 0 -8 -4 -12 -10 -9 -6 4 -10 -8 -10 -29 0 -33
2 -36 30 -36 17 0 30 -4 30 -10 0 -5 -4 -10 -10 -10 -5 0 -10 -7 -10 -15 0 -8
9 -15 20 -15 11 0 20 -5 20 -11 0 -6 -9 -8 -20 -4 -14 5 -20 2 -20 -9 0 -11 9
-16 29 -16 27 0 50 -24 36 -38 -3 -3 -5 0 -5 6 0 7 -9 12 -20 12 -11 0 -20 -4
-20 -10 0 -5 7 -10 15 -10 9 0 15 -9 15 -25 0 -21 5 -25 30 -25 17 0 30 -5 30
-11 0 -6 -9 -8 -20 -4 -15 5 -20 2 -20 -11 0 -13 6 -15 30 -11 31 7 52 -9 26
-19 -17 -7 -22 -54 -6 -54 6 0 10 -9 10 -20 0 -11 5 -20 11 -20 16 0 39 -26
39 -45 0 -26 26 -45 62 -45 30 -1 31 -2 16 -14 -19 -14 -24 -46 -8 -46 6 0 10
-7 10 -15 0 -8 7 -15 15 -15 8 0 15 -5 15 -11 0 -6 12 -9 27 -7 15 2 28 -2 30
-9 3 -7 0 -13 -6 -13 -19 0 -12 -35 9 -50 11 -8 20 -20 20 -28 0 -9 10 -12 34
-8 31 5 37 1 71 -39 20 -25 32 -45 26 -45 -6 0 -11 5 -11 10 0 6 -8 10 -17 10
-15 0 -16 -2 -3 -10 10 -6 11 -10 3 -10 -7 0 -13 -5 -13 -11 0 -14 25 -39 39
-39 6 0 11 -4 11 -10 0 -5 5 -10 10 -10 6 0 10 9 10 20 0 26 12 26 30 0 8 -11
19 -20 24 -20 17 0 44 -41 39 -60 -3 -12 7 -31 31 -54 36 -37 60 -47 50 -22
-4 10 2 12 21 9 31 -6 55 -37 48 -63 -3 -12 5 -29 21 -44 31 -31 50 -34 43 -5
-3 12 -1 19 5 17 6 -2 12 -16 14 -31 3 -31 25 -57 48 -57 9 0 16 -4 16 -10 0
-5 7 -10 15 -10 8 0 15 -4 15 -10 0 -5 9 -10 20 -10 11 0 20 -4 20 -10 0 -5 9
-10 20 -10 11 0 20 5 20 10 0 15 27 12 33 -3 3 -8 1 -20 -4 -28 -14 -23 -11
-29 16 -29 14 0 25 -4 25 -10 0 -5 9 -10 20 -10 11 0 20 -4 20 -10 0 -5 11
-10 25 -10 14 0 25 -4 25 -10 0 -5 9 -10 20 -10 11 0 20 -4 20 -10 0 -5 9 -10
20 -10 11 0 20 -7 20 -15 0 -9 9 -15 25 -15 14 0 25 -4 25 -10 0 -5 9 -10 20
-10 11 0 20 -4 20 -10 0 -5 16 -10 35 -10 19 0 35 5 35 10 0 6 5 10 10 10 6 0
10 -7 10 -16 0 -27 27 -44 72 -44 32 0 39 3 28 11 -12 8 -10 9 10 7 20 -2 24
-8 22 -25 -3 -18 2 -23 18 -23 11 0 23 7 26 15 9 24 24 17 24 -10 0 -18 5 -25
20 -25 11 0 20 -4 20 -10 0 -5 20 -10 45 -10 25 0 45 -4 45 -10 0 -5 5 -10 10
-10 6 0 10 9 10 20 0 11 5 20 10 20 6 0 10 -9 10 -20 0 -16 7 -20 35 -20 19 0
35 5 35 10 0 6 9 10 20 10 13 0 20 -7 20 -20 0 -17 7 -20 48 -20 35 0 43 3 32
10 -11 8 -6 10 20 8 30 -3 35 -6 32 -26 -3 -21 -1 -22 87 -22 75 0 91 3 91 15
0 13 19 15 130 14 97 -2 130 -5 134 -16 4 -10 31 -13 107 -13 97 0 101 1 96
21 -6 22 24 42 31 21 2 -7 25 -12 59 -12 50 0 54 2 48 20 -5 16 -2 20 14 20
12 0 21 -4 21 -10 0 -5 18 -10 41 -10 33 0 40 3 35 15 -3 10 1 18 11 22 9 4
19 1 21 -5 2 -7 17 -12 34 -12 24 0 28 3 23 19 -7 23 13 39 21 17 9 -24 54
-21 54 4 0 11 5 20 10 20 6 0 10 -9 10 -20 0 -11 5 -20 10 -20 6 0 10 5 10 10
0 6 16 10 35 10 24 0 35 5 35 15 0 8 7 15 15 15 8 0 15 9 15 20 0 11 7 20 15
20 8 0 15 -4 15 -10 0 -5 16 -10 35 -10 19 0 35 5 35 10 0 6 9 10 20 10 11 0
20 5 20 10 0 6 11 10 25 10 14 0 25 5 25 10 0 6 9 10 20 10 14 0 21 9 26 35 5
30 10 35 33 35 20 0 23 -2 11 -10 -13 -8 -12 -10 3 -10 10 0 17 8 17 20 0 11
5 20 10 20 6 0 10 -9 10 -20 0 -26 12 -26 30 0 8 11 24 20 37 20 19 0 21 4 16
34 -5 32 -3 34 27 38 28 4 31 3 16 -7 -15 -12 -15 -13 0 -19 23 -9 24 -8 24
19 0 14 -4 25 -10 25 -5 0 -10 6 -10 13 0 8 -9 22 -20 32 -21 19 -27 45 -10
45 15 0 12 29 -4 46 -8 8 -17 14 -21 14 -8 0 -35 27 -35 35 0 8 -67 75 -75 75
-8 0 -35 27 -35 35 0 3 -11 17 -25 30 -32 33 -105 36 -105 5 0 -11 -4 -20 -10
-20 -5 0 -10 5 -10 10 0 6 -11 10 -25 10 -14 0 -25 -4 -25 -10 0 -5 -9 -10
-20 -10 -11 0 -20 -7 -20 -15 0 -8 -7 -15 -16 -15 -20 0 -44 -24 -44 -44 0 -9
-7 -16 -15 -16 -8 0 -15 5 -15 10 0 6 -13 10 -30 10 -16 0 -30 -4 -30 -10 0
-5 -15 -10 -34 -10 -35 0 -46 -13 -46 -51 0 -10 -7 -19 -15 -19 -8 0 -15 5
-15 10 0 6 -11 10 -25 10 -18 0 -25 -5 -25 -20 0 -13 -7 -20 -20 -20 -11 0
-20 5 -20 10 0 6 -13 10 -30 10 -23 0 -30 -4 -30 -20 0 -11 -7 -20 -15 -20 -8
0 -15 5 -15 10 0 6 -18 10 -40 10 -33 0 -40 -3 -40 -20 0 -11 -7 -20 -15 -20
-8 0 -15 5 -15 10 0 6 -35 10 -85 10 -82 0 -85 -1 -82 -22 2 -20 -3 -23 -35
-26 -29 -2 -38 0 -38 12 0 13 -13 16 -65 16 -51 0 -65 -3 -65 -15 0 -11 -12
-15 -44 -15 -59 0 -75 7 -69 31 5 18 -1 19 -85 19 -71 0 -91 -3 -96 -15 -9
-24 -26 -17 -26 10 0 23 -4 25 -41 25 -22 0 -38 -4 -35 -9 7 -10 -19 -23 -28
-14 -3 4 -6 15 -6 25 0 13 -7 18 -25 18 -14 0 -25 -4 -25 -10 0 -5 -9 -10 -20
-10 -13 0 -20 7 -20 20 0 15 -7 20 -27 20 -22 0 -25 -2 -13 -10 11 -7 7 -10
-17 -10 -29 0 -33 3 -33 25 0 27 -17 34 -26 10 -9 -22 -24 -18 -24 6 0 19 -21
49 -34 49 -3 0 -6 -9 -6 -20 0 -11 -6 -20 -14 -20 -9 0 -12 7 -9 20 4 14 0 20
-11 20 -9 0 -16 5 -16 10 0 6 -9 10 -20 10 -11 0 -20 5 -20 10 0 6 -9 10 -20
10 -11 0 -20 7 -20 15 0 9 -9 15 -25 15 -14 0 -25 5 -25 10 0 6 -13 10 -30 10
-16 0 -30 5 -30 10 0 6 -7 10 -15 10 -8 0 -15 5 -15 10 0 6 -4 10 -10 10 -5 0
-10 -9 -10 -20 0 -11 -4 -20 -10 -20 -5 0 -10 14 -10 30 0 23 -4 30 -20 30
-11 0 -20 7 -20 15 0 19 -24 19 -44 0 -25 -26 -37 -18 -30 20 5 31 4 35 -14
35 -11 0 -23 -7 -26 -16 -9 -24 -26 -6 -26 27 0 16 -4 29 -10 29 -5 0 -10 7
-10 15 0 8 -4 15 -10 15 -5 0 -10 -7 -10 -15 0 -10 -10 -15 -26 -15 -25 0 -26
2 -21 35 4 24 2 35 -6 35 -7 0 -19 9 -27 20 -8 11 -24 20 -35 20 -16 0 -17 -2
-5 -10 21 -13 9 -19 -18 -9 -18 7 -21 14 -16 33 5 23 -13 56 -31 56 -8 0 -75
67 -75 75 0 18 -33 37 -57 32 -18 -3 -31 0 -40 11 -18 24 -16 32 7 32 11 0 20
5 20 10 0 6 -4 10 -10 10 -5 0 -10 5 -10 10 0 12 -45 60 -55 60 -4 0 -13 7
-22 15 -9 9 -23 13 -34 10 -11 -4 -19 -2 -19 4 0 6 9 11 20 11 23 0 26 16 6
36 -10 9 -25 12 -45 8 -34 -7 -41 7 -16 32 19 20 19 34 0 34 -8 0 -15 7 -15
15 0 8 -4 15 -10 15 -5 0 -10 9 -10 21 0 17 -5 20 -32 17 -18 -2 -33 2 -35 10
-3 6 3 12 13 12 22 0 12 11 -13 14 -10 2 -18 12 -19 24 -1 12 2 19 6 17 4 -3
11 2 14 11 9 22 8 24 -9 24 -8 0 -15 7 -15 16 0 22 -25 44 -49 44 -26 0 -27
15 -3 29 15 9 15 10 -5 11 -27 0 -40 18 -19 26 18 7 23 74 6 74 -5 0 -10 9
-10 20 0 11 -7 20 -15 20 -8 0 -15 5 -15 10 0 6 -9 10 -20 10 -11 0 -20 7 -20
16 0 8 5 12 10 9 6 -3 10 3 10 14 0 16 -6 21 -25 21 -27 0 -34 17 -10 26 23 9
19 44 -5 44 -11 0 -20 7 -20 15 0 8 5 15 10 15 6 0 10 14 10 30 0 26 -4 30
-27 30 -25 0 -25 1 -10 18 10 10 17 31 17 46 0 22 -4 27 -22 24 -11 -2 -23 3
-25 10 -3 6 0 12 6 12 7 0 11 25 11 65 0 37 -4 65 -10 65 -5 0 -10 23 -10 50
0 42 -3 50 -19 50 -10 0 -21 7 -25 15 -6 18 2 45 15 45 5 0 9 68 9 150 0 93
-4 150 -10 150 -5 0 -10 12 -10 26 0 21 4 24 20 19 19 -6 20 -2 20 64 0 44 -4
71 -11 71 -6 0 -9 6 -6 13 2 6 11 11 21 9 13 -2 16 6 16 42 0 25 -5 46 -12 48
-17 6 0 28 23 28 14 0 19 7 19 30 0 21 -5 30 -16 30 -9 0 -14 7 -12 18 2 11
11 16 26 14 18 -3 22 2 22 22 0 14 -4 26 -10 26 -5 0 -10 7 -10 15 0 8 9 15
20 15 24 0 27 28 3 45 -21 15 -8 38 18 30 15 -5 19 -1 19 15 0 13 -4 19 -11
14 -7 -4 -9 1 -7 12 2 11 11 18 21 16 9 -2 17 2 17 8 0 5 7 10 15 10 8 0 15 9
15 20 0 11 5 20 10 20 6 0 10 11 10 25 0 14 5 25 10 25 6 0 10 9 10 20 0 11 5
20 10 20 6 0 10 11 10 25 0 14 5 25 10 25 6 0 10 9 10 20 0 11 7 20 15 20 8 0
15 9 15 20 0 11 5 20 10 20 6 0 10 11 10 25 0 14 5 25 10 25 6 0 10 8 10 18 0
10 9 24 20 32 11 8 20 26 20 40 0 20 -2 22 -10 10 -8 -12 -10 -9 -10 13 0 27
2 28 35 21 31 -5 35 -4 35 14 0 11 -7 23 -16 26 -23 9 -7 26 24 26 16 0 34 8
42 20 8 11 20 20 27 20 7 0 13 5 13 10 0 6 -11 10 -25 10 -14 0 -25 5 -25 10
0 6 16 10 35 10 19 0 35 5 35 10 0 11 65 80 75 80 8 0 55 47 55 55 0 8 47 55
55 55 10 0 55 49 55 60 0 5 5 10 10 10 6 0 10 16 10 35 0 19 5 35 10 35 6 0
10 -7 10 -15 0 -20 37 -19 57 0 17 18 10 50 -9 39 -16 -10 10 26 32 43 22 18
30 16 30 -7 0 -11 5 -20 10 -20 6 0 10 5 10 10 0 6 6 10 14 10 11 0 13 9 9 35
-4 28 -2 35 11 35 9 0 16 -6 16 -13 0 -7 9 -13 20 -14 11 -1 20 2 20 8 0 5 11
9 25 9 16 0 25 6 25 15 0 8 8 15 18 15 10 0 24 9 32 20 8 11 25 20 37 20 13 0
23 5 23 10 0 6 9 10 20 10 11 0 20 5 20 10 0 6 9 10 20 10 11 0 20 7 20 15 0
9 9 15 25 15 20 0 27 6 32 30 5 27 33 44 33 20 0 -5 9 -10 20 -10 13 0 20 7
20 20 0 11 7 20 15 20 8 0 15 -4 15 -10 0 -5 14 -10 30 -10 17 0 30 5 30 10 0
6 16 10 35 10 24 0 35 5 35 15 0 8 7 15 15 15 8 0 15 9 15 20 0 14 7 20 21 20
11 0 17 -4 14 -10 -4 -6 5 -10 20 -10 22 0 25 3 20 20 -5 14 -2 20 9 20 9 0
16 -4 16 -10 0 -5 16 -10 35 -10 28 0 35 4 35 19 0 27 21 37 35 18 8 -11 27
-17 54 -17 37 0 42 2 36 19 -4 14 1 20 22 24 17 3 34 0 44 -9 12 -11 56 -14
206 -14 164 0 192 2 197 16 4 10 15 14 33 12 22 -2 28 -8 26 -25 -3 -21 1 -23
52 -23 30 0 55 5 55 10 0 6 9 10 19 10 14 0 18 -5 14 -20 -5 -17 0 -20 26 -20
17 0 31 -4 31 -10 0 -5 16 -10 35 -10 19 0 35 -4 35 -10 0 -5 20 -10 45 -10
25 0 45 5 45 10 0 6 5 10 10 10 6 0 10 -11 10 -25 0 -29 34 -36 44 -9 7 18 26
9 26 -12 0 -9 6 -22 14 -30 16 -16 86 -19 86 -4 0 6 7 10 15 10 8 0 15 -9 15
-20 0 -11 5 -20 10 -20 6 0 10 5 10 10 0 6 5 10 10 10 6 0 10 -9 10 -20 0 -11
5 -20 10 -20 6 0 10 -7 10 -15 0 -8 9 -15 20 -15 11 0 20 -4 20 -10 0 -5 7
-10 15 -10 8 0 15 -4 15 -10 0 -5 5 -10 10 -10 6 0 10 9 10 20 0 11 5 20 10
20 6 0 10 -13 10 -30 l0 -30 63 0 c51 0 65 4 77 20 8 11 18 20 23 20 10 0 37
26 37 35 0 8 67 75 75 75 9 0 35 27 35 37 0 5 9 15 20 23 11 8 20 18 20 22 0
4 -9 8 -20 8 -11 0 -20 5 -20 10 0 6 5 10 10 10 6 0 10 6 10 13 0 7 9 19 20
27 15 11 20 26 20 62 0 41 -3 48 -20 48 -11 0 -20 7 -20 15 0 8 -9 15 -20 15
-11 0 -20 5 -20 10 0 6 -11 10 -25 10 -14 0 -25 -4 -25 -10 0 -5 -4 -10 -10
-10 -5 0 -10 14 -10 30 0 23 -4 30 -20 30 -11 0 -20 5 -20 10 0 6 -11 10 -25
10 -16 0 -25 6 -25 15 0 21 -56 20 -64 -1 -8 -20 -26 -9 -26 17 0 10 -4 19
-10 19 -5 0 -10 -7 -10 -16 0 -9 -6 -14 -12 -11 -7 2 -12 12 -11 22 2 26 -21
45 -56 45 -17 0 -31 5 -31 10 0 6 -9 10 -20 10 -11 0 -20 7 -20 15 0 10 -11
15 -35 15 -19 0 -35 5 -35 10 0 6 -13 10 -30 10 -16 0 -30 5 -30 10 0 6 -20
10 -45 10 -25 0 -45 -4 -45 -10 0 -5 -7 -10 -16 -10 -11 0 -14 6 -9 20 6 17 2
20 -29 20 -20 0 -36 5 -36 10 0 6 -32 10 -77 10 -56 0 -74 -3 -63 -11 12 -7 8
-9 -15 -7 -25 2 -29 7 -27 26 3 20 0 22 -52 22 -36 0 -60 -5 -70 -16 -22 -21
-50 -14 -54 14 -3 22 -4 22 -193 22 -183 0 -189 -1 -189 -20z m720 -60 c0 -5
-2 -10 -4 -10 -3 0 -8 5 -11 10 -3 6 -1 10 4 10 6 0 11 -4 11 -10z m-1235 -40
c3 -5 1 -10 -4 -10 -6 0 -11 5 -11 10 0 6 2 10 4 10 3 0 8 -4 11 -10z m1415 0
c0 -5 -5 -10 -11 -10 -5 0 -7 5 -4 10 3 6 8 10 11 10 2 0 4 -4 4 -10z m140
-50 c8 -5 11 -10 5 -10 -5 0 -17 5 -25 10 -8 5 -10 10 -5 10 6 0 17 -5 25 -10z
m265 -118 c-3 -3 -11 0 -18 7 -9 10 -8 11 6 5 10 -3 15 -9 12 -12z m-2570
-182 c3 -5 1 -10 -4 -10 -6 0 -11 5 -11 10 0 6 2 10 4 10 3 0 8 -4 11 -10z
m1935 -70 c0 -5 -4 -10 -10 -10 -5 0 -10 5 -10 10 0 6 5 10 10 10 6 0 10 -4
10 -10z m-2280 -220 c0 -5 -4 -10 -10 -10 -5 0 -10 5 -10 10 0 6 5 10 10 10 6
0 10 -4 10 -10z m730 -20 c0 -5 -5 -10 -11 -10 -5 0 -7 5 -4 10 3 6 8 10 11
10 2 0 4 -4 4 -10z m-1149 -477 c-12 -20 -14 -14 -5 12 4 9 9 14 11 11 3 -2 0
-13 -6 -23z m-110 -196 c-10 -9 -11 -8 -5 6 3 10 9 15 12 12 3 -3 0 -11 -7
-18z m379 -277 c0 -5 -4 -10 -10 -10 -5 0 -10 5 -10 10 0 6 5 10 10 10 6 0 10
-4 10 -10z m-25 -40 c3 -5 1 -10 -4 -10 -6 0 -11 5 -11 10 0 6 2 10 4 10 3 0
8 -4 11 -10z m-525 -110 c0 -5 -4 -10 -10 -10 -5 0 -10 5 -10 10 0 6 5 10 10
10 6 0 10 -4 10 -10z m474 -1606 c3 -8 2 -12 -4 -9 -6 3 -10 10 -10 16 0 14 7
11 14 -7z m-454 -84 c0 -5 -5 -10 -11 -10 -5 0 -7 5 -4 10 3 6 8 10 11 10 2 0
4 -4 4 -10z m804 -506 c3 -8 2 -12 -4 -9 -6 3 -10 10 -10 16 0 14 7 11 14 -7z
m-536 -69 c-3 -3 -9 2 -12 12 -6 14 -5 15 5 6 7 -7 10 -15 7 -18z m1362 -565
c0 -5 -2 -10 -4 -10 -3 0 -8 5 -11 10 -3 6 -1 10 4 10 6 0 11 -4 11 -10z
m1620 -40 c0 -5 -4 -10 -10 -10 -5 0 -10 5 -10 10 0 6 5 10 10 10 6 0 10 -4
10 -10z m-2255 -130 c3 -6 -1 -7 -9 -4 -18 7 -21 14 -7 14 6 0 13 -4 16 -10z"/>
<path d="M3380 6126 c0 -9 5 -16 10 -16 6 0 10 4 10 9 0 6 -4 13 -10 16 -5 3
-10 -1 -10 -9z"/>
<path d="M1830 5925 c0 -8 7 -15 15 -15 9 0 12 6 9 15 -4 8 -10 15 -15 15 -5
0 -9 -7 -9 -15z"/>
<path d="M5300 5925 c0 -9 -9 -15 -25 -15 -14 0 -25 -4 -25 -10 0 -5 -7 -10
-15 -10 -23 0 -85 -66 -85 -90 0 -11 5 -20 10 -20 6 0 10 -4 10 -10 0 -5 -9
-10 -19 -10 -25 0 -36 -16 -16 -24 24 -9 17 -26 -10 -26 -21 0 -25 -5 -25 -29
0 -16 4 -31 9 -33 4 -1 11 -20 15 -41 5 -29 3 -39 -9 -43 -8 -3 -15 -15 -15
-26 0 -15 5 -18 19 -13 26 8 36 -11 17 -31 -20 -20 -21 -44 -1 -44 8 0 15 -7
15 -15 0 -25 47 -65 76 -65 17 0 35 -10 50 -27 26 -30 30 -43 14 -43 -5 0 -10
-9 -10 -20 0 -11 5 -20 10 -20 6 0 10 -5 10 -11 0 -20 29 -39 60 -39 18 0 29
-4 25 -10 -3 -5 -15 -10 -26 -10 -10 0 -19 -3 -19 -6 0 -10 28 -34 39 -34 6 0
11 -7 11 -15 0 -10 10 -15 30 -15 17 0 30 -4 30 -10 0 -5 -9 -10 -20 -10 -24
0 -25 -6 -5 -27 9 -8 24 -13 34 -10 23 6 53 -12 34 -20 -14 -5 -18 -24 -5 -22
23 4 32 -4 32 -28 0 -22 -2 -25 -10 -13 -8 12 -10 11 -10 -7 0 -13 5 -23 10
-23 6 0 10 -11 10 -24 0 -24 16 -36 51 -36 23 0 25 -18 4 -26 -24 -9 -17 -24
10 -24 27 0 34 -15 10 -24 -9 -3 -15 -18 -15 -36 0 -20 5 -30 15 -30 8 0 15
-5 15 -10 0 -6 7 -10 16 -8 10 2 19 -3 21 -9 3 -7 0 -13 -6 -13 -6 0 -11 -16
-11 -35 0 -19 5 -35 10 -35 6 0 10 -7 10 -16 0 -11 6 -14 20 -9 11 4 20 2 20
-4 0 -6 -9 -11 -20 -11 -11 0 -20 -4 -20 -10 0 -5 5 -10 10 -10 6 0 10 -16 10
-35 0 -19 5 -35 10 -35 6 0 10 -7 10 -15 0 -9 9 -15 25 -15 20 0 25 -5 25 -26
0 -14 -4 -23 -10 -19 -6 4 -10 -7 -10 -24 0 -24 4 -31 20 -31 11 0 20 -7 20
-16 0 -8 -4 -12 -10 -9 -6 4 -10 -13 -10 -45 0 -47 2 -51 20 -45 27 9 41 -42
16 -60 -11 -9 -16 -27 -16 -64 0 -47 2 -52 19 -46 25 8 38 -25 17 -41 -23 -17
-23 -301 0 -318 21 -16 8 -49 -17 -41 -17 6 -19 0 -19 -59 0 -37 4 -66 10 -66
6 0 10 -9 10 -20 0 -13 -7 -20 -20 -20 -16 0 -20 -7 -20 -35 0 -19 -4 -35 -10
-35 -5 0 -10 -25 -10 -56 0 -37 4 -53 11 -48 7 4 9 -2 7 -17 -2 -16 -11 -25
-25 -27 -27 -4 -32 -46 -7 -56 18 -7 9 -26 -12 -26 -23 0 -44 -26 -44 -54 0
-14 -4 -26 -10 -26 -5 0 -10 -16 -10 -35 0 -19 -4 -35 -10 -35 -5 0 -10 -15
-10 -32 0 -26 3 -30 11 -18 8 12 9 10 7 -10 -2 -20 -8 -24 -25 -22 -16 2 -23
-2 -23 -12 0 -9 -4 -16 -10 -16 -5 0 -10 -9 -10 -20 0 -11 -4 -20 -10 -20 -5
0 -10 -9 -10 -20 0 -11 -4 -20 -10 -20 -5 0 -10 -11 -10 -25 0 -14 -4 -25 -10
-25 -5 0 -10 -10 -10 -22 0 -19 2 -20 10 -8 8 12 10 9 10 -12 0 -24 -4 -28
-27 -28 -25 -1 -26 -2 -11 -14 21 -16 13 -26 -19 -26 -28 0 -53 -21 -53 -44 0
-9 -4 -16 -10 -16 -5 0 -10 -7 -10 -15 0 -8 -7 -15 -15 -15 -19 0 -19 -14 1
-34 20 -21 11 -34 -20 -29 -15 3 -32 -1 -41 -10 -18 -19 -20 -37 -2 -37 8 0 7
-4 -3 -10 -13 -8 -12 -10 3 -10 27 0 21 -13 -28 -57 -31 -27 -52 -39 -65 -36
-21 6 -70 -37 -70 -62 0 -8 -7 -15 -15 -15 -9 0 -15 -9 -15 -25 0 -14 -4 -25
-10 -25 -5 0 -10 -25 -10 -55 0 -42 3 -55 15 -55 8 0 15 -7 15 -15 0 -9 -7
-18 -15 -21 -9 -4 -15 -19 -15 -35 0 -24 4 -29 25 -29 29 0 33 -15 8 -29 -17
-10 -16 -11 19 -15 16 -2 22 -26 6 -26 -10 0 -9 -3 2 -10 10 -6 11 -10 3 -10
-20 0 -15 -19 12 -45 24 -25 55 -33 55 -15 0 6 7 10 15 10 11 0 13 -8 9 -30
-5 -23 -3 -30 10 -30 9 0 16 8 16 20 0 11 5 20 11 20 6 0 8 -9 4 -20 -6 -18
-2 -20 37 -19 33 0 38 2 23 9 -13 6 6 9 60 9 55 1 75 -2 65 -9 -11 -7 -2 -10
31 -10 48 0 65 14 53 45 -4 8 -1 15 5 15 6 0 11 -9 11 -20 0 -11 5 -20 10 -20
11 0 80 65 80 75 0 8 27 35 35 35 12 0 35 28 35 43 0 8 -7 18 -16 21 -23 9 -7
26 24 26 16 0 34 8 42 20 8 11 21 20 28 20 9 0 12 6 8 16 -3 9 -6 19 -6 22 0
4 -5 0 -10 -8 -8 -12 -10 -9 -10 13 0 24 4 27 31 27 17 0 37 6 45 14 16 17 19
46 4 46 -5 0 -10 6 -10 14 0 11 9 13 35 9 27 -4 35 -2 35 10 0 9 -7 23 -16 31
-21 22 -11 34 26 28 24 -3 30 -1 30 15 0 10 9 25 20 33 11 8 20 25 20 37 0 13
5 23 10 23 6 0 10 9 10 20 0 11 7 20 15 20 9 0 15 9 15 25 0 14 5 25 10 25 6
0 10 9 10 20 0 11 5 20 10 20 6 0 10 9 10 20 0 11 5 20 10 20 6 0 10 11 10 25
0 14 5 25 10 25 6 0 10 14 10 31 0 17 -4 28 -10 24 -5 -3 -10 3 -10 14 0 15 6
21 21 21 11 0 27 6 35 14 18 19 18 62 -1 70 -24 9 -17 26 10 26 14 0 25 5 25
10 0 6 -4 10 -10 10 -5 0 -10 7 -10 15 0 8 9 15 20 15 11 0 20 7 20 15 0 8 -4
15 -10 15 -5 0 -10 7 -10 16 0 11 6 14 20 9 17 -5 20 -2 20 22 0 22 -2 25 -10
13 -8 -12 -10 -9 -10 13 0 22 4 27 25 27 29 0 32 12 9 35 -20 20 -11 45 16 45
13 0 20 7 20 20 0 11 5 20 10 20 6 0 10 25 10 55 0 30 5 55 10 55 6 0 10 28
10 65 0 37 -4 65 -10 65 -5 0 -10 12 -10 26 0 21 4 24 20 19 19 -6 20 -2 20
67 0 51 -3 68 -10 58 -7 -11 -10 -7 -10 18 0 28 3 32 25 32 l25 0 0 245 c0
211 -2 245 -15 245 -9 0 -15 -10 -16 -22 -1 -22 -1 -22 -9 2 -4 14 -8 39 -9
55 0 23 2 26 9 15 7 -11 10 4 10 48 0 54 -2 62 -17 60 -12 -2 -19 5 -21 21 -2
15 0 21 7 17 8 -5 11 15 11 63 0 41 -4 71 -10 71 -5 0 -10 25 -10 55 0 30 -4
55 -10 55 -5 0 -10 11 -10 25 0 18 -5 25 -19 25 -27 0 -38 20 -17 32 9 5 16
20 16 33 0 20 -5 25 -25 25 -21 0 -25 5 -25 28 0 21 2 24 10 12 8 -12 10 -11
10 8 0 15 -6 22 -20 22 -11 0 -20 7 -20 15 0 8 5 15 10 15 6 0 10 9 10 21 0
16 -4 19 -20 14 -14 -5 -20 -2 -20 9 0 9 5 16 10 16 6 0 10 7 10 16 0 11 -6
14 -20 9 -14 -5 -20 -2 -20 9 0 9 5 16 10 16 15 0 12 49 -4 66 -8 8 -24 14
-35 14 -15 0 -21 6 -21 21 0 11 5 17 10 14 6 -4 10 7 10 24 0 17 -4 31 -10 31
-5 0 -10 11 -10 24 0 24 -16 36 -51 36 -23 0 -25 18 -4 26 17 7 21 44 5 44 -5
0 -10 11 -10 25 0 22 -4 25 -35 25 -19 0 -35 5 -35 10 0 6 5 10 10 10 19 0 11
65 -10 80 -11 8 -20 22 -20 32 0 10 -4 18 -10 18 -5 0 -10 9 -10 20 0 11 -4
20 -10 20 -5 0 -10 7 -10 15 0 8 -7 15 -15 15 -8 0 -15 7 -15 16 0 23 -25 44
-54 44 -26 0 -35 13 -16 25 28 17 -5 68 -43 65 -35 -3 -47 -1 -47 10 0 6 8 10
18 10 14 0 15 2 2 10 -10 6 -11 10 -2 10 21 0 13 19 -23 55 -19 19 -39 35 -45
35 -5 0 -10 5 -10 10 0 6 -14 10 -31 10 -42 0 -63 23 -55 60 5 27 3 30 -18 30
-14 0 -27 -6 -29 -12 -4 -10 -8 -10 -14 -2 -4 7 -19 14 -33 15 -19 3 -24 9
-22 27 3 21 1 22 -92 22 -79 0 -96 -3 -96 -15z m700 -595 c0 -5 -2 -10 -4 -10
-3 0 -8 5 -11 10 -3 6 -1 10 4 10 6 0 11 -4 11 -10z m330 -900 c0 -5 -2 -10
-4 -10 -3 0 -8 5 -11 10 -3 6 -1 10 4 10 6 0 11 -4 11 -10z m-578 -1012 c-7
-7 -12 -8 -12 -2 0 14 12 26 19 19 2 -3 -1 -11 -7 -17z m574 -95 c-10 -10 -19
5 -10 18 6 11 8 11 12 0 2 -7 1 -15 -2 -18z m-21 -103 c3 -5 1 -10 -4 -10 -6
0 -11 5 -11 10 0 6 2 10 4 10 3 0 8 -4 11 -10z m-615 -40 c0 -5 -2 -10 -4 -10
-3 0 -8 5 -11 10 -3 6 -1 10 4 10 6 0 11 -4 11 -10z m-20 -60 c0 -5 -4 -10
-10 -10 -5 0 -10 5 -10 10 0 6 5 10 10 10 6 0 10 -4 10 -10z m-220 -440 c0 -5
-4 -10 -10 -10 -5 0 -10 5 -10 10 0 6 5 10 10 10 6 0 10 -4 10 -10z m-90 -130
c0 -5 -4 -10 -10 -10 -5 0 -10 5 -10 10 0 6 5 10 10 10 6 0 10 -4 10 -10z"/>
<path d="M3480 5585 c0 -21 -5 -25 -31 -25 -17 0 -28 4 -24 10 4 6 -12 10 -39
10 -39 0 -46 -3 -46 -20 0 -13 -7 -20 -20 -20 -11 0 -20 5 -20 10 0 6 -20 10
-45 10 -25 0 -45 -4 -45 -10 0 -5 -7 -10 -15 -10 -8 0 -15 -9 -15 -19 0 -26
-18 -37 -26 -17 -10 27 -44 20 -44 -9 0 -27 -17 -34 -26 -10 -4 9 -19 15 -35
15 -19 0 -29 -5 -29 -15 0 -8 -4 -15 -10 -15 -5 0 -10 -9 -10 -20 0 -11 -7
-20 -15 -20 -8 0 -15 5 -15 10 0 6 -13 10 -30 10 -27 0 -30 -3 -30 -30 0 -32
-9 -37 -28 -18 -9 9 -12 7 -12 -9 0 -27 -18 -40 -26 -19 -7 17 -44 22 -44 6 0
-5 -11 -10 -25 -10 -14 0 -25 -5 -25 -11 0 -14 -26 -39 -40 -39 -18 0 -41 -28
-39 -47 3 -34 -1 -41 -26 -45 -19 -4 -25 -1 -23 10 2 8 -3 17 -9 19 -7 3 -13
0 -13 -7 0 -11 -44 -60 -55 -60 -8 0 -55 -47 -55 -55 0 -8 -47 -55 -55 -55
-10 0 -55 -49 -55 -60 0 -5 -4 -10 -10 -10 -5 0 -10 -4 -10 -10 0 -5 9 -10 20
-10 11 0 20 -4 20 -10 0 -5 -13 -10 -30 -10 -16 0 -30 -4 -30 -10 0 -5 -7 -10
-16 -10 -11 0 -14 -6 -8 -22 3 -13 10 -24 15 -26 5 -2 1 -14 -7 -27 -13 -19
-22 -23 -45 -18 -25 5 -29 2 -29 -16 0 -11 -4 -21 -10 -21 -14 0 -12 -48 2
-52 8 -3 4 -13 -11 -29 -15 -16 -20 -18 -16 -6 6 13 2 17 -14 17 -14 0 -21 -6
-21 -20 0 -11 -4 -20 -10 -20 -17 0 -12 -67 6 -74 21 -8 8 -26 -19 -26 -20 0
-20 0 -1 -15 16 -12 17 -16 4 -24 -8 -5 -18 -7 -22 -5 -14 9 -38 -23 -38 -50
0 -16 -6 -26 -15 -26 -22 0 -21 -86 1 -94 20 -8 9 -26 -17 -26 -14 0 -19 -7
-19 -29 0 -16 6 -31 15 -35 24 -9 17 -26 -10 -26 -23 0 -25 -4 -25 -46 0 -30
5 -51 15 -58 22 -16 8 -58 -16 -51 -18 6 -19 -3 -19 -200 0 -175 2 -206 14
-202 8 3 19 0 25 -7 13 -15 4 -49 -10 -40 -5 3 -9 -20 -9 -51 0 -51 2 -56 19
-50 26 8 39 -15 18 -30 -10 -7 -17 -24 -17 -39 0 -21 5 -26 25 -26 27 0 34
-15 10 -24 -25 -9 -18 -36 10 -36 21 0 25 -5 25 -27 0 -22 -2 -25 -10 -13 -8
12 -10 11 -10 -7 0 -16 6 -23 20 -23 11 0 20 -7 20 -15 0 -8 -4 -15 -10 -15
-15 0 -12 -49 4 -66 8 -8 24 -14 35 -14 26 0 27 -15 4 -29 -15 -9 -14 -10 10
-11 17 0 27 -5 27 -15 0 -8 -6 -15 -13 -15 -7 0 -13 -9 -14 -20 -1 -11 4 -20
13 -20 8 0 14 -10 14 -25 0 -14 5 -25 10 -25 6 0 10 -9 10 -21 0 -15 6 -20 23
-19 12 1 28 2 35 1 17 -1 15 -21 -3 -21 -9 0 -15 -9 -15 -24 0 -23 3 -24 35
-19 33 5 35 4 35 -21 0 -16 -5 -26 -15 -26 -8 0 -15 -4 -15 -10 0 -5 5 -10 11
-10 13 0 39 -25 39 -39 0 -5 14 -7 33 -4 29 4 34 1 54 -35 l23 -39 -25 5 c-15
2 -25 0 -25 -7 0 -6 7 -11 15 -11 8 0 15 -5 15 -10 0 -14 87 -100 101 -100 6
0 9 9 6 20 -3 12 0 20 7 20 7 0 13 -13 13 -29 0 -19 11 -40 36 -65 37 -37 57
-45 57 -23 0 8 4 7 10 -3 8 -13 10 -12 10 3 0 11 6 17 13 14 7 -2 11 -18 9
-40 -3 -32 -1 -37 17 -37 23 0 28 15 9 24 -7 2 -2 3 12 1 14 -1 24 -8 22 -15
-5 -24 10 -50 29 -50 10 0 19 -4 19 -10 0 -5 9 -10 20 -10 11 0 20 5 20 10 0
6 7 10 15 10 8 0 15 -9 15 -20 0 -11 5 -20 11 -20 5 0 7 5 4 10 -3 6 1 10 9
10 9 0 16 -9 16 -20 0 -21 15 -27 25 -10 10 17 24 2 18 -20 -6 -24 12 -27 25
-4 11 20 34 10 26 -11 -8 -20 20 -45 50 -45 14 0 26 -4 26 -10 0 -5 16 -10 35
-10 24 0 35 -5 35 -15 0 -11 12 -15 45 -15 25 0 45 -4 45 -10 0 -6 28 -10 65
-10 52 0 65 3 65 16 0 10 7 14 23 12 16 -2 21 -9 20 -26 l-3 -22 216 0 c214 0
216 0 211 21 -7 26 22 39 35 16 7 -13 23 -17 63 -17 52 0 55 1 55 25 0 20 5
25 26 25 14 0 23 -4 20 -9 -3 -5 1 -12 10 -15 31 -12 44 -6 44 19 0 16 6 25
15 25 8 0 15 -4 15 -10 0 -5 7 -10 15 -10 8 0 15 9 15 20 0 11 7 20 15 20 8 0
15 -4 15 -10 0 -5 9 -10 20 -10 13 0 20 7 20 20 0 11 7 20 15 20 8 0 15 -4 15
-10 0 -5 14 -10 30 -10 17 0 30 5 30 10 0 6 11 10 24 10 24 0 36 16 36 51 0
10 7 19 15 19 8 0 15 -4 15 -10 0 -5 7 -10 15 -10 8 0 15 5 15 11 0 5 -6 7
-12 3 -9 -5 -9 -2 1 9 18 23 30 21 24 -3 -4 -14 0 -20 11 -20 9 0 16 5 16 10
0 6 9 10 20 10 16 0 20 7 20 35 0 19 5 35 10 35 6 0 10 -7 10 -15 0 -9 9 -15
25 -15 14 0 25 5 25 10 0 6 9 10 20 10 11 0 20 5 20 11 0 16 26 39 45 39 27 0
48 28 41 55 -8 30 9 41 30 21 24 -25 34 -19 34 19 0 25 6 37 22 46 16 9 23 9
26 0 6 -18 36 -13 52 9 8 11 20 20 27 20 7 0 13 6 13 13 0 7 9 19 20 27 22 16
27 46 9 52 -9 3 -9 10 0 26 8 15 21 22 42 22 17 0 36 6 43 13 17 16 16 47 -1
47 -7 0 -13 7 -13 16 0 13 7 15 35 11 32 -5 35 -3 35 18 0 12 -7 26 -16 29
-28 11 -5 25 31 19 31 -5 35 -3 35 16 0 11 5 21 10 21 6 0 10 11 10 25 0 14 5
25 10 25 6 0 10 9 10 20 0 11 5 20 10 20 6 0 10 9 10 20 0 11 5 20 10 20 6 0
10 16 10 35 0 19 -5 35 -11 35 -6 0 -9 6 -6 13 2 6 11 11 21 9 11 -2 16 4 16
23 0 14 -5 25 -11 25 -6 0 -9 6 -6 13 2 6 14 11 25 9 27 -4 30 25 5 43 -19 14
-9 35 18 35 14 0 19 7 19 25 0 14 -4 25 -10 25 -5 0 -10 5 -10 10 0 6 9 10 20
10 16 0 20 7 20 34 0 19 -5 36 -12 38 -6 2 -9 12 -5 21 4 10 12 14 22 11 13
-5 15 5 15 65 0 44 -4 71 -11 71 -6 0 -9 12 -7 28 2 19 8 26 21 24 15 -3 17 8
17 108 0 103 -1 110 -20 110 -13 0 -20 7 -20 20 0 11 5 20 10 20 6 0 10 30 10
70 0 63 -2 70 -20 70 -13 0 -20 7 -20 20 0 11 5 20 10 20 6 0 10 14 10 30 0
23 -4 30 -20 30 -11 0 -20 5 -20 10 0 6 5 10 10 10 6 0 10 20 10 45 0 25 -4
45 -10 45 -5 0 -10 16 -10 35 0 24 -5 35 -15 35 -10 0 -15 10 -15 30 0 17 -4
30 -10 30 -5 0 -10 16 -10 35 0 19 -4 35 -10 35 -5 0 -10 7 -10 16 0 22 -25
44 -49 44 -25 0 -27 13 -6 30 17 14 20 40 5 40 -5 0 -10 9 -10 20 0 16 -7 20
-35 20 -24 0 -35 5 -35 15 0 8 5 15 10 15 6 0 10 9 10 20 0 11 -4 20 -10 20
-5 0 -10 9 -10 20 0 11 -4 20 -10 20 -5 0 -10 7 -10 15 0 13 -7 15 -34 10 -30
-6 -34 -4 -38 19 -4 18 -1 26 8 26 20 0 17 13 -6 30 -11 8 -20 18 -20 23 0 9
-46 57 -55 57 -8 0 -55 47 -55 55 0 10 -49 55 -60 55 -6 0 -10 -7 -8 -16 2
-10 -3 -19 -11 -22 -9 -3 -11 1 -7 16 5 14 -1 28 -19 46 -14 14 -25 30 -25 36
0 13 -43 3 -48 -11 -9 -22 -22 -6 -22 26 0 28 -4 35 -19 35 -10 0 -22 -7 -25
-16 -10 -26 -26 -5 -21 27 5 26 3 29 -22 29 -22 0 -25 -2 -13 -10 12 -8 11
-10 -6 -10 -11 0 -29 9 -39 20 -17 18 -17 20 -2 14 13 -4 17 -1 17 15 0 14 -6
21 -20 21 -11 0 -20 5 -20 10 0 6 -11 10 -25 10 -14 0 -25 5 -25 10 0 17 -38
11 -45 -7 -6 -17 -7 -17 -18 -2 -7 9 -21 18 -32 21 -12 2 -19 10 -17 21 2 9
-2 17 -8 17 -5 0 -10 7 -10 15 0 10 -10 15 -29 15 -16 0 -31 -6 -35 -15 -9
-24 -26 -17 -26 10 0 18 -5 25 -20 25 -11 0 -20 -4 -20 -10 0 -5 -7 -10 -15
-10 -8 0 -15 9 -15 20 0 24 -25 26 -47 5 -20 -20 -37 -14 -41 13 -3 17 -10 22
-33 22 -19 0 -28 -4 -23 -11 4 -7 -1 -9 -12 -7 -11 2 -18 11 -16 21 2 14 -6
17 -53 17 -30 0 -55 -4 -55 -10 0 -5 -7 -10 -15 -10 -9 0 -15 9 -15 25 l0 25
-180 0 -180 0 0 -25z m-530 -165 c0 -5 -4 -10 -10 -10 -5 0 -10 5 -10 10 0 6
5 10 10 10 6 0 10 -4 10 -10z m570 0 c0 -5 20 -10 45 -10 l45 0 0 -145 0 -145
-80 0 c-73 0 -80 -2 -80 -20 0 -13 -7 -20 -20 -20 -11 0 -20 5 -20 10 0 6 -11
10 -25 10 -18 0 -25 -5 -25 -19 0 -27 -21 -37 -35 -18 -16 23 -35 21 -35 -2 0
-26 -18 -37 -26 -17 -8 20 -60 21 -80 2 -8 -8 -14 -24 -14 -35 0 -15 -6 -21
-22 -21 -19 0 -20 2 -8 10 11 7 5 10 -22 10 -36 0 -38 -2 -38 -30 0 -16 -4
-30 -10 -30 -5 0 -10 5 -10 10 0 6 -9 10 -20 10 -11 0 -20 -4 -20 -10 0 -5 -9
-10 -21 -10 -29 0 -51 -26 -47 -57 2 -15 -2 -28 -9 -30 -7 -3 -13 0 -13 6 0 6
-9 11 -20 11 -11 0 -20 -4 -20 -10 0 -5 -5 -10 -10 -10 -11 0 -60 -45 -60 -55
0 -3 -11 -17 -25 -30 -13 -14 -27 -25 -30 -25 -11 0 -55 -49 -55 -61 0 -6 7
-9 15 -6 20 8 28 -9 15 -33 -8 -15 -17 -18 -40 -13 -27 5 -30 3 -30 -18 0 -19
2 -21 10 -9 8 12 10 9 10 -12 0 -24 -8 -32 -30 -30 -3 0 -13 4 -22 7 -14 6
-18 2 -18 -19 0 -14 5 -26 10 -26 6 0 10 -4 10 -10 0 -5 -13 -10 -30 -10 -21
0 -30 -5 -30 -16 0 -11 6 -14 20 -9 11 4 20 2 20 -4 0 -6 -9 -11 -20 -11 -22
0 -27 -25 -7 -34 10 -5 10 -7 0 -12 -7 -3 -13 -17 -13 -30 0 -19 -5 -24 -25
-24 -28 0 -32 -12 -10 -34 22 -22 18 -36 -10 -36 -27 0 -35 -24 -10 -34 24 -9
17 -26 -10 -26 -21 0 -25 -5 -25 -30 0 -16 5 -30 10 -30 6 0 10 -7 10 -15 0
-8 -9 -15 -20 -15 -17 0 -20 -7 -20 -50 0 -29 5 -50 11 -50 6 0 9 -12 7 -27
-2 -20 -8 -27 -20 -25 -16 3 -18 -6 -18 -68 0 -40 4 -70 10 -70 6 0 10 5 10
11 0 5 5 7 10 4 6 -3 10 -19 10 -36 0 -16 -4 -29 -10 -29 -5 0 -10 -25 -10
-56 0 -51 2 -55 20 -49 16 5 20 2 20 -15 0 -12 -4 -18 -10 -15 -6 4 -10 -15
-10 -49 0 -31 5 -56 10 -56 6 0 10 -7 10 -16 0 -11 6 -15 20 -11 13 3 20 0 20
-9 0 -8 -9 -14 -20 -14 -11 0 -20 -3 -20 -6 0 -13 30 -34 49 -34 15 0 21 -6
21 -22 0 -19 -2 -20 -10 -8 -7 11 -10 5 -10 -22 0 -21 5 -38 10 -38 6 0 10 -9
10 -20 0 -11 5 -20 10 -20 6 0 10 -11 10 -24 0 -23 3 -24 35 -19 38 6 46 -7
20 -33 -23 -24 -18 -34 19 -34 28 0 34 -4 39 -26 3 -18 1 -24 -9 -20 -24 9
-15 -15 16 -44 17 -15 30 -33 30 -39 0 -6 7 -11 15 -11 8 0 15 -4 15 -9 0 -5
15 -8 33 -7 29 1 32 -1 29 -27 -3 -27 17 -57 37 -57 6 0 11 -5 11 -11 0 -6 7
-17 15 -25 13 -14 17 -14 31 0 27 28 47 20 42 -16 -6 -36 10 -58 41 -58 12 0
21 -6 21 -15 0 -8 9 -15 20 -15 11 0 20 -4 20 -10 0 -5 11 -10 25 -10 14 0 25
5 25 10 0 6 5 10 10 10 6 0 10 -7 10 -16 0 -25 26 -44 59 -44 17 0 31 -4 31
-10 0 -5 18 -10 41 -10 24 0 38 4 34 10 -4 6 5 10 19 10 21 0 26 -5 26 -25 0
-23 4 -25 44 -25 26 0 48 6 56 15 16 19 30 10 23 -15 -5 -19 0 -20 61 -20 l66
0 0 -140 c0 -87 4 -140 10 -140 6 0 10 -4 10 -10 0 -5 -11 -10 -24 -10 -19 0
-23 4 -19 20 5 19 0 20 -76 20 -47 0 -81 -4 -81 -10 0 -5 -7 -10 -16 -10 -11
0 -14 6 -9 20 6 18 2 20 -39 20 -25 0 -46 5 -46 10 0 6 -18 10 -40 10 -22 0
-40 -4 -40 -10 0 -5 -9 -10 -20 -10 -13 0 -20 7 -20 20 0 12 -7 20 -17 20 -15
0 -16 -2 -3 -10 12 -8 9 -10 -12 -10 -23 0 -28 4 -28 25 0 25 -23 35 -35 15
-10 -17 -25 -11 -25 10 0 11 -4 20 -10 20 -5 0 -10 -7 -10 -15 0 -28 -30 -16
-31 13 0 15 -3 21 -6 15 -8 -21 -33 -15 -33 7 0 11 -4 20 -10 20 -5 0 -10 -4
-10 -10 0 -5 -4 -10 -10 -10 -5 0 -10 16 -10 35 0 28 -4 35 -20 35 -11 0 -20
5 -20 10 0 6 -11 10 -25 10 -16 0 -25 -6 -25 -15 0 -8 -4 -15 -10 -15 -5 0
-10 16 -10 35 0 28 -4 35 -20 35 -11 0 -20 -4 -20 -10 0 -5 -7 -10 -16 -10
-13 0 -15 7 -10 35 5 22 3 35 -4 35 -14 0 -100 86 -100 100 0 5 -5 10 -10 10
-14 0 -100 86 -100 100 0 5 -7 10 -15 10 -8 0 -15 4 -15 9 0 5 -14 8 -31 7
-37 -1 -47 15 -23 38 15 16 15 18 -5 35 -12 10 -21 28 -21 40 0 15 -6 21 -21
21 -16 0 -19 -4 -13 -22 5 -20 3 -19 -17 6 -16 20 -19 31 -11 34 19 6 14 22
-8 22 -11 0 -20 7 -20 16 0 8 5 12 10 9 6 -3 10 -1 10 4 0 6 -9 11 -19 11 -26
0 -37 18 -17 26 23 9 20 24 -4 24 -11 0 -20 5 -20 10 0 6 5 10 10 10 6 0 10 7
10 15 0 8 -9 15 -19 15 -10 0 -22 8 -26 18 -5 14 -4 15 6 5 18 -18 39 -16 39
2 0 8 -7 15 -15 15 -8 0 -15 9 -15 20 0 11 -4 20 -10 20 -5 0 -10 16 -10 35 0
19 -4 35 -10 35 -5 0 -10 7 -10 15 0 8 -9 15 -19 15 -26 0 -37 18 -17 26 10 4
16 18 16 35 0 24 -4 29 -25 29 -27 0 -34 17 -10 26 10 4 15 20 15 45 0 35 -3
39 -25 39 -28 0 -32 14 -10 36 12 12 15 46 15 174 0 154 -4 195 -20 185 -4 -2
-7 8 -6 23 1 22 5 26 24 24 19 -3 22 1 22 32 0 20 5 36 10 36 6 0 10 20 10 45
0 25 5 45 10 45 6 0 10 7 10 16 0 11 -6 14 -20 9 -14 -4 -20 -2 -20 8 0 10 7
13 20 10 16 -4 20 0 20 21 0 14 -4 26 -10 26 -24 0 -7 28 20 34 27 5 30 10 30
41 0 19 -5 35 -11 35 -6 0 -9 6 -6 13 2 6 12 11 21 9 22 -4 46 21 46 47 0 12
5 21 10 21 6 0 10 9 10 20 0 11 -4 20 -10 20 -5 0 -10 7 -10 15 0 11 8 13 30
9 24 -5 30 -3 30 11 0 13 -6 16 -21 12 -13 -3 -19 -1 -16 6 2 7 10 12 18 13 8
0 22 2 32 2 9 1 17 10 17 20 0 10 9 24 20 32 28 20 26 43 -2 35 -21 -5 -21 -5
2 9 19 12 21 15 8 16 -34 0 -18 20 17 20 19 0 35 5 35 10 0 6 5 10 10 10 14 0
60 46 60 60 0 5 5 10 10 10 6 0 10 5 10 10 0 6 -9 10 -20 10 -11 0 -20 5 -20
10 0 6 5 10 10 10 6 0 10 5 10 11 0 15 20 33 60 52 l35 17 -25 -23 c-14 -12
-23 -21 -21 -20 2 2 10 -2 17 -8 10 -8 17 -7 29 4 8 9 15 18 15 22 0 10 49 55
60 55 7 0 10 13 8 31 -3 28 0 32 22 35 14 1 19 0 13 -2 -20 -9 -15 -24 7 -24
16 0 20 7 20 35 0 25 4 35 16 35 8 0 12 -4 9 -10 -4 -6 5 -10 19 -10 14 0 26
5 26 10 0 6 10 10 21 10 18 0 21 5 17 30 -5 34 9 51 23 29 7 -11 10 -9 15 9 4
13 14 22 26 22 12 0 17 -4 12 -12 -4 -8 -3 -10 2 -5 5 5 9 14 9 19 0 6 6 13
13 16 6 2 12 -1 12 -7 0 -6 16 -11 35 -11 31 0 36 3 42 30 7 36 21 48 29 26 7
-18 74 -23 74 -6 0 6 7 10 15 10 9 0 15 9 15 25 0 16 6 25 15 25 8 0 15 -4 15
-10 0 -5 14 -10 30 -10 23 0 30 4 30 20 0 11 7 20 15 20 8 0 15 -4 15 -10 0
-5 20 -10 45 -10 38 0 45 3 45 20 0 13 7 20 20 20 11 0 20 -4 20 -10z m-590
-200 c0 -5 -4 -10 -10 -10 -5 0 -10 5 -10 10 0 6 5 10 10 10 6 0 10 -4 10 -10z
m1710 -180 c0 -11 5 -20 10 -20 6 0 10 5 10 10 0 6 7 10 16 10 13 0 15 -7 11
-35 -4 -26 -2 -35 9 -35 8 0 14 -4 14 -10 0 -5 5 -10 10 -10 6 0 10 9 10 20 0
23 4 24 31 10 15 -8 18 -18 13 -45 -4 -27 -2 -35 10 -35 8 0 17 4 21 10 10 16
33 0 38 -26 3 -16 0 -24 -9 -24 -20 0 -17 -13 6 -30 11 -8 20 -20 20 -27 0 -7
5 -13 10 -13 6 0 10 -9 10 -20 0 -18 4 -20 35 -14 33 6 35 5 35 -22 0 -23 -2
-26 -10 -14 -8 12 -10 9 -10 -12 0 -16 5 -28 10 -28 6 0 10 -9 10 -19 0 -15 7
-19 31 -17 18 0 34 -5 36 -11 3 -7 -3 -13 -14 -14 -14 0 -12 -3 7 -12 14 -6
27 -12 29 -13 2 -2 -5 -11 -15 -21 -17 -17 -17 -18 7 -23 15 -3 25 -13 26 -25
1 -11 0 -14 -3 -7 -7 14 -44 16 -44 2 0 -5 7 -10 15 -10 8 0 15 -7 15 -16 0
-8 6 -22 14 -30 8 -8 22 -14 30 -14 9 0 16 -7 16 -15 0 -8 -4 -15 -10 -15 -5
0 -10 -7 -10 -15 0 -9 9 -15 25 -15 16 0 25 -6 25 -15 0 -8 -7 -15 -15 -15
-10 0 -15 -10 -15 -26 0 -21 4 -25 20 -21 13 3 20 0 20 -9 0 -8 -4 -14 -10
-14 -5 0 -10 -16 -10 -35 0 -31 3 -35 25 -35 22 0 25 -4 25 -32 0 -25 -3 -29
-10 -18 -7 11 -10 -2 -10 -43 0 -54 2 -58 20 -52 17 5 20 2 20 -25 0 -18 -4
-29 -10 -25 -6 4 -10 -38 -10 -120 0 -88 3 -124 11 -119 7 4 9 -2 7 -17 -2
-16 -9 -23 -20 -21 -15 2 -18 -5 -18 -47 0 -29 5 -51 12 -53 19 -7 1 -38 -22
-38 -16 0 -20 -7 -20 -30 0 -18 6 -33 15 -36 25 -10 17 -34 -10 -34 -27 0 -35
-24 -10 -34 24 -9 17 -26 -10 -26 -29 0 -36 -34 -9 -44 22 -8 10 -22 -26 -29
-24 -5 -30 -12 -30 -32 0 -16 -6 -25 -15 -25 -21 0 -20 -56 1 -64 21 -8 8 -26
-19 -26 -20 -1 -21 -2 -4 -14 25 -20 21 -26 -18 -26 -28 0 -35 -4 -35 -20 0
-11 -4 -20 -10 -20 -5 0 -9 -12 -9 -27 1 -17 3 -21 6 -10 7 27 21 20 15 -8 -4
-26 -10 -29 -49 -25 -17 1 -23 -4 -23 -18 0 -11 7 -23 16 -26 24 -9 6 -27 -21
-20 -25 6 -55 -14 -55 -35 0 -6 -5 -11 -11 -11 -6 0 -17 -7 -25 -15 -14 -13
-14 -17 -1 -30 12 -11 17 -12 21 -2 3 6 3 1 -1 -13 -3 -14 -14 -32 -24 -40
-51 -43 -60 -50 -68 -50 -5 0 -7 9 -4 20 3 13 0 20 -9 20 -7 0 -20 -9 -28 -20
-8 -11 -21 -20 -28 -20 -9 0 -12 -7 -9 -20 3 -13 -1 -21 -14 -25 -26 -9 -41 3
-34 26 5 13 2 19 -10 19 -15 0 -65 42 -65 55 0 19 -31 34 -59 29 -24 -5 -31
-3 -31 10 0 9 5 16 10 16 6 0 10 21 10 46 0 27 -4 43 -10 39 -5 -3 -10 3 -10
14 0 12 5 21 10 21 6 0 16 12 23 28 15 35 27 43 48 31 23 -12 29 -11 29 1 0
12 45 60 55 60 10 0 35 28 35 39 0 6 -6 11 -12 11 -9 0 -8 4 2 10 13 8 12 10
-2 10 -10 0 -18 5 -18 10 0 6 16 10 35 10 25 0 35 4 35 16 0 18 23 44 39 44 6
0 11 11 11 25 0 14 5 25 10 25 16 0 12 57 -5 64 -24 9 -17 26 10 26 18 0 25 5
25 20 0 11 -4 20 -10 20 -5 0 -10 7 -10 16 0 11 5 14 16 10 24 -9 44 19 44 63
0 30 4 41 15 41 12 0 15 13 15 55 0 43 -3 55 -16 55 -25 0 -13 44 14 48 22 3
22 6 22 138 0 134 0 135 -22 132 -15 -2 -24 3 -26 15 -2 10 3 17 12 17 13 0
16 12 16 55 0 42 -3 55 -15 55 -11 0 -15 11 -15 41 0 42 -17 69 -44 69 -9 0
-16 5 -16 10 0 6 5 10 10 10 6 0 10 12 10 26 0 21 -4 24 -20 19 -14 -5 -20 -2
-20 9 0 9 5 16 10 16 6 0 10 5 10 10 0 6 -9 10 -20 10 -21 0 -27 15 -10 25 13
8 13 65 -1 65 -16 0 -39 26 -39 45 0 26 -27 46 -56 43 -15 -2 -29 3 -31 10 -3
6 2 12 9 12 8 0 14 9 15 20 1 11 -3 20 -8 20 -12 0 -39 25 -39 35 0 20 -32 36
-60 30 -23 -5 -30 -3 -30 9 0 9 6 16 13 16 8 0 7 4 -3 10 -13 8 -12 10 3 10 9
0 17 5 17 10 0 6 -16 10 -35 10 -29 0 -35 4 -35 21 0 11 5 17 10 14 6 -4 10
10 10 34 0 30 4 41 15 41 20 0 19 24 -1 45 -22 21 -11 30 32 27 26 -2 41 3 54
18 9 11 22 20 29 20 6 0 11 7 11 15 0 8 6 15 13 15 8 0 7 4 -3 10 -11 7 -7 10
18 10 25 0 32 -4 32 -20z m420 -164 c0 -3 -4 -8 -10 -11 -5 -3 -10 -1 -10 4 0
6 5 11 10 11 6 0 10 -2 10 -4z m-75 -206 c3 -5 1 -10 -4 -10 -6 0 -11 5 -11
10 0 6 2 10 4 10 3 0 8 -4 11 -10z m-305 -195 c0 -5 -5 -3 -10 5 -5 8 -10 20
-10 25 0 6 5 3 10 -5 5 -8 10 -19 10 -25z m-952 -12 c3 -17 10 -23 28 -23 13
0 24 -4 24 -10 0 -5 7 -10 15 -10 9 0 15 7 13 16 -2 10 2 19 9 21 7 3 9 -3 6
-16 -4 -15 -1 -21 11 -21 9 0 16 -4 16 -10 0 -5 5 -10 10 -10 6 0 10 9 10 20
0 11 5 20 10 20 6 0 10 -9 10 -20 0 -11 7 -20 15 -20 8 0 15 5 15 10 0 6 5 10
10 10 6 0 10 -13 10 -30 0 -16 5 -30 10 -30 6 0 10 -7 10 -15 0 -19 16 -19 24
0 3 8 -2 19 -12 24 -14 8 -13 10 7 8 40 -3 138 -107 101 -107 -5 0 -10 -11
-10 -24 0 -23 3 -24 35 -19 33 5 35 4 35 -23 0 -22 -3 -26 -10 -14 -5 8 -10
12 -10 8 0 -3 -3 -13 -6 -22 -4 -11 -1 -16 10 -16 10 0 16 -9 16 -25 0 -14 5
-25 10 -25 6 0 10 -9 10 -21 0 -16 4 -19 20 -14 14 5 20 2 20 -9 0 -9 -4 -16
-10 -16 -6 0 -10 -50 -10 -130 0 -80 4 -130 10 -130 6 0 10 -7 10 -15 0 -8 -9
-15 -20 -15 -13 0 -20 -7 -20 -20 0 -11 5 -20 10 -20 6 0 10 -4 10 -10 0 -5
-9 -10 -20 -10 -11 0 -20 -4 -20 -10 0 -5 -7 -10 -15 -10 -9 0 -15 -9 -15 -23
0 -12 -9 -29 -20 -37 -24 -17 -25 -27 -5 -46 8 -9 15 -20 15 -25 0 -5 -7 -9
-15 -9 -8 0 -15 6 -15 13 0 8 -4 7 -10 -3 -8 -13 -10 -12 -10 3 0 9 -4 17 -10
17 -5 0 -10 -7 -10 -15 0 -8 -5 -15 -10 -15 -23 0 -61 -50 -58 -76 2 -15 -3
-29 -9 -31 -7 -3 -13 1 -13 9 0 7 -11 15 -25 16 -16 1 -25 -3 -25 -13 0 -8 -9
-15 -20 -15 -11 0 -20 -4 -20 -10 0 -5 -16 -10 -35 -10 -19 0 -35 -4 -35 -10
0 -5 -16 -10 -36 -10 -31 0 -36 -3 -31 -20 6 -23 -14 -30 -73 -27 -28 2 -36 7
-38 25 -3 18 -10 22 -42 22 -25 0 -40 -5 -44 -16 -8 -20 -26 -9 -26 17 0 21
-26 27 -32 7 -2 -6 -12 -9 -21 -5 -10 4 -14 12 -11 22 3 8 1 15 -5 15 -6 0
-11 7 -11 15 0 8 -9 15 -20 15 -22 0 -27 -15 -7 -24 6 -2 1 -3 -13 -2 -22 3
-25 7 -22 35 2 18 -1 31 -8 31 -11 0 -60 44 -60 55 0 3 -12 17 -26 32 -20 20
-32 24 -55 19 -22 -4 -29 -2 -29 9 0 8 5 15 10 15 6 0 10 4 10 10 0 5 -3 9 -7
9 -21 -3 -33 2 -33 16 0 8 5 15 10 15 6 0 10 5 10 10 0 6 -9 10 -20 10 -11 0
-20 5 -20 10 0 6 5 10 10 10 6 0 10 9 10 20 0 13 -7 20 -20 20 -21 0 -27 15
-10 25 6 4 10 57 10 126 0 73 4 119 10 119 6 0 10 18 10 40 0 22 -4 40 -10 40
-5 0 -10 7 -10 15 0 8 9 15 20 15 11 0 20 5 20 10 0 6 -4 10 -10 10 -5 0 -10
5 -10 10 0 6 14 10 30 10 23 0 30 4 30 20 0 11 7 20 15 20 8 0 15 5 15 10 0 6
20 31 45 55 24 25 49 45 55 45 5 0 10 5 10 11 0 14 26 39 40 39 17 0 40 26 40
44 0 9 7 16 15 16 8 0 15 -4 15 -10 0 -5 14 -10 30 -10 17 0 30 5 30 10 0 6
14 10 30 10 22 0 30 5 30 18 0 29 10 33 80 30 59 -3 65 -5 68 -25z m1056 -279
c3 -8 2 -12 -4 -9 -6 3 -10 10 -10 16 0 14 7 11 14 -7z m-1659 -124 c3 -5 1
-10 -4 -10 -6 0 -11 5 -11 10 0 6 2 10 4 10 3 0 8 -4 11 -10z m1656 -417 c-12
-20 -14 -14 -5 12 4 9 9 14 11 11 3 -2 0 -13 -6 -23z m-2511 -193 c0 -5 -2
-10 -4 -10 -3 0 -8 5 -11 10 -3 6 -1 10 4 10 6 0 11 -4 11 -10z m1560 -64 c0
-3 -4 -8 -10 -11 -5 -3 -10 -1 -10 4 0 6 5 11 10 11 6 0 10 -2 10 -4z m-1190
-56 c0 -5 -4 -10 -10 -10 -5 0 -10 5 -10 10 0 6 5 10 10 10 6 0 10 -4 10 -10z
m2350 -164 c0 -3 -4 -8 -10 -11 -5 -3 -10 -1 -10 4 0 6 5 11 10 11 6 0 10 -2
10 -4z m95 -166 c-3 -5 -12 -10 -18 -10 -7 0 -6 4 3 10 19 12 23 12 15 0z
m-1875 -170 c0 -5 -4 -10 -10 -10 -5 0 -10 5 -10 10 0 6 5 10 10 10 6 0 10 -4
10 -10z m65 -20 c3 -5 1 -10 -4 -10 -6 0 -11 5 -11 10 0 6 2 10 4 10 3 0 8 -4
11 -10z m1415 -194 c0 -3 -4 -8 -10 -11 -5 -3 -10 -1 -10 4 0 6 5 11 10 11 6
0 10 -2 10 -4z m-180 -116 c0 -5 -4 -10 -10 -10 -5 0 -10 5 -10 10 0 6 5 10
10 10 6 0 10 -4 10 -10z m-1215 -178 c-3 -3 -11 0 -18 7 -9 10 -8 11 6 5 10
-3 15 -9 12 -12z"/>
<path d="M2720 4670 c-9 -6 -10 -10 -3 -10 6 0 15 5 18 10 8 12 4 12 -15 0z"/>
<path d="M4456 3064 c-9 -23 -8 -24 14 -24 24 0 25 6 6 25 -12 12 -15 12 -20
-1z"/>
<path d="M2420 2831 c0 -10 19 -25 25 -20 1 2 -3 10 -11 17 -8 7 -14 8 -14 3z"/>
</g>
</svg>
